<svg xmlns="http://www.w3.org/2000/svg" width="53" height="53" viewBox="0 0 53 53" fill="none">
<g filter="url(#filter0_d)">
<path d="M19.7075 39.2074H13.2136V38.0997L16.4307 34.5907C16.895 34.0733 17.2245 33.6421 17.419 33.2972C17.618 32.9479 17.7175 32.5985 17.7175 32.2491C17.7175 31.7892 17.5871 31.4178 17.3262 31.1348C17.0697 30.8517 16.7226 30.7102 16.2848 30.7102C15.7629 30.7102 15.3583 30.8694 15.0709 31.1878C14.7834 31.5062 14.6397 31.9418 14.6397 32.4946H13.0278C13.0278 31.9064 13.1605 31.378 13.4258 30.9092C13.6956 30.4361 14.0781 30.069 14.5734 29.8081C15.0731 29.5472 15.648 29.4167 16.298 29.4167C17.2355 29.4167 17.974 29.6533 18.5135 30.1265C19.0575 30.5953 19.3294 31.2453 19.3294 32.0767C19.3294 32.5587 19.1923 33.065 18.9182 33.5957C18.6484 34.1219 18.204 34.7211 17.5849 35.3933L15.2234 37.9206H19.7075V39.2074Z" fill="#ffffff"/>
<path d="M26.3872 35.7648H27.5878V37.0583H26.3872V39.2074H24.7753V37.0583H20.603L20.5566 36.0765L24.7223 29.5494H26.3872V35.7648ZM22.2481 35.7648H24.7753V31.7318L24.6559 31.944L22.2481 35.7648Z" fill="#ffffff"/>
<path d="M29.213 40.0366H27.946L31.7469 29.5494H33.0138L29.213 40.0366Z" fill="#ffffff"/>
<path d="M40.4563 30.4449L36.5958 39.2074H34.9043L38.7582 30.8429H33.7634V29.5494H40.4563V30.4449Z" fill="#ffffff"/>
<path d="M19.7075 39.2074H13.2136V38.0997L16.4307 34.5907C16.895 34.0733 17.2245 33.6421 17.419 33.2972C17.618 32.9479 17.7175 32.5985 17.7175 32.2491C17.7175 31.7892 17.5871 31.4178 17.3262 31.1348C17.0697 30.8517 16.7226 30.7102 16.2848 30.7102C15.7629 30.7102 15.3583 30.8694 15.0709 31.1878C14.7834 31.5062 14.6397 31.9418 14.6397 32.4946H13.0278C13.0278 31.9064 13.1605 31.378 13.4258 30.9092C13.6956 30.4361 14.0781 30.069 14.5734 29.8081C15.0731 29.5472 15.648 29.4167 16.298 29.4167C17.2355 29.4167 17.974 29.6533 18.5135 30.1265C19.0575 30.5953 19.3294 31.2453 19.3294 32.0767C19.3294 32.5587 19.1923 33.065 18.9182 33.5957C18.6484 34.1219 18.204 34.7211 17.5849 35.3933L15.2234 37.9206H19.7075V39.2074Z" stroke="#ffffff"/>
<path d="M26.3872 35.7648H27.5878V37.0583H26.3872V39.2074H24.7753V37.0583H20.603L20.5566 36.0765L24.7223 29.5494H26.3872V35.7648ZM22.2481 35.7648H24.7753V31.7318L24.6559 31.944L22.2481 35.7648Z" stroke="#ffffff"/>
<path d="M29.213 40.0366H27.946L31.7469 29.5494H33.0138L29.213 40.0366Z" stroke="#ffffff"/>
<path d="M40.4563 30.4449L36.5958 39.2074H34.9043L38.7582 30.8429H33.7634V29.5494H40.4563V30.4449Z" stroke="#ffffff"/>
<path d="M26.5 1C26.0853 1 25.75 1.33525 25.75 1.75V11.719C25.75 12.1337 26.0853 12.469 26.5 12.469C26.9147 12.469 27.25 12.1337 27.25 11.719V2.5135C38.4842 2.9095 47.5 12.172 47.5 23.5C47.5 35.0793 38.0793 44.5 26.5 44.5C14.9207 44.5 5.5 35.0793 5.5 23.5C5.5 17.905 7.675 12.6407 11.6245 8.677C11.9178 8.383 11.9162 7.909 11.623 7.6165C11.329 7.3255 10.855 7.3255 10.5625 7.618C6.33025 11.8645 4 17.5052 4 23.5C4 35.9065 14.0935 46 26.5 46C38.9065 46 49 35.9065 49 23.5C49 11.0935 38.9065 1 26.5 1Z" fill="#ffffff" stroke="#ffffff"/>
<path d="M25.4165 26.1487C25.877 26.7824 26.5887 27.1807 27.3695 27.2414C27.4392 27.2474 27.509 27.2497 27.578 27.2497C28.2845 27.2497 28.964 26.9707 29.4672 26.4667C30.02 25.9139 30.3027 25.1497 30.242 24.3689C30.1812 23.5882 29.783 22.8764 29.1477 22.4144L19.4397 15.3922C19.1427 15.1777 18.731 15.2107 18.47 15.4702C18.209 15.7312 18.1767 16.1422 18.392 16.4399L25.4165 26.1487ZM28.2665 23.6287C28.5447 23.8312 28.7195 24.1439 28.7465 24.4867C28.7735 24.8287 28.649 25.1639 28.4067 25.4069C28.1637 25.6492 27.8225 25.7729 27.4857 25.7467C27.1437 25.7204 26.831 25.5449 26.63 25.2689L22.3452 19.3462L28.2665 23.6287Z" fill="#ffffff" stroke="#ffffff"/>
</g>
<defs>
<filter id="filter0_d" x="0.5" y="0.5" width="52" height="52" filterUnits="userSpaceOnUse" color-interpolation-filters="sRGB">
<feFlood flood-opacity="0" result="BackgroundImageFix"/>
<feColorMatrix in="SourceAlpha" type="matrix" values="0 0 0 0 0 0 0 0 0 0 0 0 0 0 0 0 0 0 127 0"/>
<feOffset dy="3"/>
<feGaussianBlur stdDeviation="1.5"/>
<feColorMatrix type="matrix" values="0 0 0 0 0 0 0 0 0 0 0 0 0 0 0 0 0 0 0.16 0"/>
<feBlend mode="normal" in2="BackgroundImageFix" result="effect1_dropShadow"/>
<feBlend mode="normal" in="SourceGraphic" in2="effect1_dropShadow" result="shape"/>
</filter>
</defs>
</svg>