<svg width="615" height="666" fill="none" xmlns="http://www.w3.org/2000/svg"><circle cx="177" cy="333" r="333" fill="#F7B55F"/><g opacity=".7"><path d="M288.375 593.238H165.18c-21.019-15.959-46.903-42.038-58.191-79.6-3.309-11.483-9.537-31.918.389-42.622 10.509-11.288 31.528 3.309 44.763-8.369 9.925-8.757 8.563-25.884 7.59-38.534-2.53-30.945-19.073-45.736-10.315-59.359.389-.779 3.892-6.034 10.315-8.175 12.65-4.087 22.381 8.953 44.957 9.537 4.866.194 7.396.194 10.12-1.362 10.121-5.644 5.644-22.382 13.235-27.053 8.368-5.06 25.106 8.369 26.273 9.342 34.837 28.22 47.098 188.782 34.059 246.195z" fill="#FFFDF9"/><path d="M288.375 593.238H165.18c-21.019-15.959-46.903-42.038-58.191-79.6-3.309-11.483-9.537-31.918.389-42.622 11.872-12.65 33.669 2.141 44.763-8.369 21.213-19.656-34.059-94.585-11.288-117.55 7.006-7.006 20.824-8.953 30.36-5.449 14.792 5.644 17.711 24.522 33.475 26.468 2.336.194 6.228.778 10.12-1.362 10.121-5.644 5.644-22.382 13.235-27.053 8.368-5.06 25.106 8.369 26.273 9.342 34.837 28.22 47.098 188.782 34.059 246.195z" stroke="#4A4949" stroke-miterlimit="10"/><path d="M329.053 593.237h-72.788c-6.423-8.563-15.764-22.576-21.603-42.038-1.557-5.254-8.174-27.441-4.476-60.137 3.114-28.804 10.704-35.032 15.764-57.413 12.456-56.051-22.576-74.54-11.288-138.764 6.033-33.475 18.294-44.568 26.274-49.434 3.308-1.946 16.737-9.536 31.528-5.06 14.207 4.282 21.214 16.737 22.965 19.851 13.818 25.495 1.168 61.5-7.395 86.022-4.866 13.818-9.537 22.965-7.785 36.784 1.946 16.153 10.899 27.052 13.039 29.776 12.456 16.349 21.993 62.084 15.765 180.413z" fill="#D2E1BF" stroke="#4A4949" stroke-miterlimit="10"/><path d="M329.051 593.237h-59.554c-6.033-8.563-14.402-22.576-19.851-41.843-1.557-5.255-7.395-27.442-4.087-60.138 2.919-28.804 9.926-35.031 14.402-57.413 11.288-56.05-20.824-74.539-10.315-138.764 5.449-33.475 16.737-44.568 24.133-49.433 1.946-1.363 7.59-4.671 14.791-6.034 1.362.195 2.725.584 3.893.973 14.207 4.282 21.213 16.738 22.965 19.852 13.818 25.495 1.167 61.5-7.396 86.022-4.865 13.818-9.536 22.965-7.785 36.783 1.947 16.153 10.899 27.052 13.04 29.777 12.456 16.153 21.992 61.889 15.764 180.218z" fill="#6EAB33"/><path d="M329.051 593.237h-59.554c-6.033-8.563-14.402-22.576-19.851-41.843-1.557-5.255-7.395-27.442-4.087-60.138 2.919-28.804 9.926-35.031 14.402-57.413 11.288-56.05-20.824-74.539-10.315-138.764 5.449-33.475 16.737-44.568 24.133-49.433 1.946-1.363 7.59-4.671 14.791-6.034 1.362.195 2.725.584 3.893.973 14.207 4.282 21.213 16.738 22.965 19.852 13.818 25.495 1.167 61.5-7.396 86.022-4.865 13.818-9.536 22.965-7.785 36.783 1.947 16.153 10.899 27.052 13.04 29.777 12.456 16.153 21.992 61.889 15.764 180.218z" fill="#B4C99A"/><path d="M364.861 593.237h-69.285c.974-2.725 2.141-7.396 2.725-13.429 2.141-23.549-10.899-36.005-15.18-58.775-.584-2.92-3.698-21.214 2.141-38.924 10.314-31.14 36.977-25.69 63.057-59.749 22.965-29.971 22.381-59.943 43.984-64.808 8.563-1.946 17.126.389 17.126.389s13.429 3.698 23.744 19.073c12.261 18.294-6.423 105.873-68.312 216.223z" fill="#D2E1BF"/><path d="M364.859 593.236H336.25c.973-2.724 2.141-7.59 2.724-13.429 2.141-23.743-10.898-36.004-15.18-58.775-1.557-8.563-4.087-23.549 2.141-38.924 6.228-15.18 16.543-19.656 28.025-30.361 36.589-34.447 19.073-72.398 50.601-90.303 1.947-1.168 4.087-2.141 6.228-2.92 3.698 1.363 14.013 6.228 22.382 18.489 12.261 18.295-6.423 105.874-68.312 216.223z" fill="#6EAB33"/><path d="M364.859 593.236H336.25c.973-2.724 2.141-7.59 2.724-13.429 2.141-23.743-10.898-36.004-15.18-58.775-1.557-8.563-4.087-23.549 2.141-38.924 6.228-15.18 16.543-19.656 28.025-30.361 36.589-34.447 19.073-72.398 50.601-90.303 1.947-1.168 4.087-2.141 6.228-2.92 3.698 1.363 14.013 6.228 22.382 18.489 12.261 18.295-6.423 105.874-68.312 216.223zM196.705 385.772c11.678 9.925 7.98 43.011 7.396 47.487-1.362-1.362-3.503-3.698-6.033-6.422-7.396-8.564-23.355-27.247-18.1-39.119.195-.389 2.336-5.06 6.617-6.033 4.282-.973 8.369 2.53 10.12 4.087zM172.186 419.636c12.455-1.946 31.334 18.099 33.864 20.824-1.557.195-4.087.195-7.201.195-9.342 0-29.583 0-34.254-9.537-.194-.389-1.946-4.281-.194-7.395 1.557-3.114 5.838-3.698 7.785-4.087zM236.409 428.978c-2.92 11.482-27.053 20.046-30.361 21.213.584-1.362 1.362-3.698 2.53-6.228 3.503-7.979 10.899-25.3 20.824-25.689.39 0 4.282-.195 6.423 2.53 1.946 2.53.973 6.422.584 8.174zM236.018 480.162c-7.591 9.147-33.086 7.007-36.394 6.617.973-1.167 2.724-2.724 4.865-4.671 6.423-5.838 20.63-18.489 29.777-14.596.195.195 3.892 1.751 4.865 5.06.584 3.114-2.14 6.228-3.113 7.59zM230.181 513.248c-8.758 10.704-38.924 8.174-43.011 7.784 1.168-1.362 3.114-3.308 5.644-5.449 7.59-6.812 24.327-21.797 35.032-17.321.389.194 4.67 1.946 5.644 5.838 1.167 3.893-1.947 7.591-3.309 9.148zM234.464 538.937c-5.839 12.651-35.616 17.711-39.703 18.295.779-1.557 2.336-3.893 4.087-6.812 5.644-8.563 17.905-27.247 29.583-25.495.389 0 5.06.778 7.006 4.281 1.946 3.504 0 7.98-.973 9.731zM251.976 578.055c-9.731 9.926-39.508 4.477-43.595 3.698 1.363-1.167 3.504-2.919 6.228-5.06 8.369-6.228 26.274-19.462 36.589-14.013.389.195 4.476 2.531 5.06 6.423.584 4.087-2.919 7.396-4.282 8.952zM172.38 447.272c12.261-1.946 30.75 17.71 33.086 20.435-1.557.195-4.087.195-7.007.195-9.147 0-28.998 0-33.474-9.342-.195-.389-1.947-4.087-.195-7.201 1.557-3.114 5.839-3.892 7.59-4.087zM161.676 480.552c12.261-1.946 30.75 17.711 33.085 20.435-1.557.195-4.087.195-7.006.195-9.147 0-28.999 0-33.475-9.342-.195-.389-1.946-4.087-.195-7.201 1.557-3.308 5.839-3.892 7.591-4.087zM147.078 509.55c14.207-3.113 37.172 18.1 40.091 21.019-1.751.195-4.67.584-8.174.973-10.704.779-33.669 2.336-39.702-8.174-.195-.389-2.53-4.67-.973-8.368 1.751-3.698 6.617-4.866 8.758-5.45zM163.231 551.589c14.207-3.114 37.172 18.099 40.092 21.018-1.752.195-4.671.584-8.174.974-10.704.778-33.67 2.335-39.703-8.174-.194-.39-2.53-4.671-.973-8.369 1.752-3.893 6.617-4.866 8.758-5.449z" fill="#B4C99A"/><path d="M217.337 593.236c-31.723-41.065-33.475-64.808-28.22-79.016 2.336-6.422 8.369-17.515 13.429-36.977 2.53-9.537 3.892-18.489 3.503-28.804-.195-7.59-1.557-13.818-2.53-18.294" stroke="#B4C99A" stroke-miterlimit="10"/><path d="M279.619 593.237c-12.651-24.911-25.69-61.111-19.073-101.981 5.255-32.501 17.321-32.501 20.24-64.808 3.504-37.367-10.898-53.326-11.677-112.101-.194-9.342 0-23.355 6.033-39.703 5.644-15.57 14.208-26.468 20.241-33.085" stroke="#4A4949" stroke-miterlimit="10"/><path d="M322.432 433.26c-3.503.389-7.006 1.167-10.899 2.141-18.294 4.865-31.334 14.791-39.508 22.576M316.01 416.717a132.721 132.721 0 00-16.153 7.785c-8.953 5.254-15.959 11.093-21.214 16.153M248.088 399.2c3.698.584 11.288 2.141 18.878 7.785 9.147 7.006 12.845 15.764 14.013 19.267M242.052 372.343c5.255 1.751 12.845 4.865 20.435 11.288 11.288 9.147 16.543 20.046 18.684 25.69M272.806 357.941c.584-7.201 3.308-27.247 19.072-44.957 10.705-11.872 22.771-17.711 29.583-20.241M316.594 320.38c-6.228 2.335-17.127 7.395-27.441 17.71-8.564 8.758-13.235 17.905-15.57 23.744" stroke="#4A4949" stroke-miterlimit="10"/><path d="M527 593H120" stroke="#4A4949" stroke-width="2" stroke-miterlimit="10" stroke-linecap="round"/><path d="M364.861 593.237h-69.285c.974-2.725 2.141-7.396 2.725-13.429 2.141-23.549-10.899-36.005-15.18-58.775-.584-2.92-3.698-21.214 2.141-38.924 10.314-31.14 36.977-25.69 63.057-59.749 22.965-29.971 22.381-59.943 43.984-64.808 8.563-1.946 17.126.389 17.126.389s13.429 3.698 23.744 19.073c12.261 18.294-6.423 105.873-68.312 216.223z" stroke="#4A4949" stroke-miterlimit="10"/></g><path d="M598.779 458.633c0 4.259-.609 8.031.365 14.845.973 6.205 2.433 9.368 1.095 13.992-1.095 4.137-4.745 7.909-4.745 7.909s.486 3.65.851 8.273c.365 5.111 0 9.369-.243 11.681-.122.852-.243 1.947-.243 1.947 3.041 14.235 5.962 36.38 2.311 62.783-4.38 31.148-15.817 16.808-23.847 30.192H353.852c-9.004-14.479-20.928.104-27.498-30.192-7.544-34.555-4.989-63.635-1.947-81.399-2.19-.609-5.597-1.947-7.909-4.989-4.137-5.597-3.285-14.966 2.92-22.631a105.228 105.228 0 01-1.46-27.133s1.582-21.901 11.559-40.76c18.494-35.042 74.22-44.776 88.7-47.209 71.3-12.411 155.619 10.22 170.098 48.304 3.772 9.977 10.464 40.882 10.464 54.387z" fill="#fff"/><path d="M576.147 613.297H352.27l-.852-1.46c-13.262-21.171-22.631-6.709-27.863-31.165-5.719-26.403-6.57-53.293-2.433-79.939-2.921-1.217-5.232-3.042-6.936-5.232-4.988-6.692-4.015-16.913 2.19-25.186-1.581-8.761-1.946-17.765-1.338-26.525.122-.973 1.825-22.753 11.924-41.977 12.654-24.091 43.315-40.517 90.889-48.791 74.464-12.897 158.783 11.559 173.506 50.251 3.893 10.221 10.707 41.612 10.707 55.483 0 1.217 0 2.433-.122 3.65-.122 3.042-.243 6.084.487 10.829.243 1.582.486 3.042.73 4.38.73 3.65 1.338 6.814.243 10.951-.973 3.285-3.163 6.448-4.38 8.03.243 1.46.487 4.137.73 7.057.243 4.015.243 8.274-.243 12.289 0 .487-.122 1.095-.122 1.46 4.38 20.928 5.11 42.22 2.19 63.27-3.407 24.456-11.559 9.994-24.213 31.287l-1.217 1.338zm-220.47-13.599h217.064c11.802-20.198 19.346 2.997 22.509-20 2.799-20.562 2.069-41.368-2.312-61.688l-.121-.486.121-.487s.122-.973.244-1.825c.365-3.65.486-7.544.243-11.194-.243-4.38-.852-8.03-.852-8.03l-.243-1.46.973-1.096c.852-.973 3.286-3.893 4.016-6.692.73-2.676.365-4.745-.365-8.152-.244-1.338-.609-2.92-.852-4.623-.73-5.232-.609-8.761-.487-11.924 0-1.095.122-2.19.122-3.285 0-13.141-6.692-43.681-10.342-53.293-13.506-35.65-96.122-58.646-166.692-46.479-56.821 9.856-78.479 30.297-86.509 45.627C322.703 422.619 321 443.912 321 444.155a105.7 105.7 0 001.46 26.281l.243 1.339-.851 1.095c-5.111 6.327-6.327 14.236-2.799 18.859 1.704 2.312 4.38 3.407 6.327 3.894l2.677.73-.487 2.676c-4.502 26.768-3.893 53.78 1.947 80.304 4.989 23.24 13.749.046 26.16 20.365z" fill="#4A4949"/><path d="M539.282 402.908c-12.046 28.472-5.719 42.951-5.719 42.951s12.776-.487 32.122 4.867c11.68 3.285 18.251 7.787 20.562 9.49 6.206 4.624 10.342 9.612 12.898 13.141" fill="#fff"/><path d="M599.265 476.52c-.974 0-1.947-.487-2.434-1.338-3.407-4.867-7.544-9.004-12.167-12.411-5.11-3.772-11.924-6.814-19.589-9.004-18.616-5.232-31.149-4.745-31.27-4.745l-2.069.122-.851-1.947c-.244-.608-6.814-16.061 5.718-45.384.608-1.582 2.434-2.312 4.015-1.582 1.582.609 2.312 2.434 1.582 4.016-9.004 21.171-7.3 34.19-6.205 38.813 4.623.122 15.817.852 30.783 4.989 8.395 2.311 15.817 5.718 21.536 9.977 5.232 3.772 9.855 8.517 13.627 13.871.974 1.338.609 3.285-.73 4.258-.73.122-1.338.365-1.946.365z" fill="#4A4949"/><path d="M477.93 337.747c.253 5.962.843 11.559 1.685 16.791-2.78 6.692-11.121 11.437-20.726 12.045-10.869.609-21.316-4.258-24.77-11.802 4.044-4.258 5.729-8.03 6.487-10.585 1.011-3.407 1.011-6.449 1.095-12.411 0-2.19-.084-4.38-.252-6.449-.506-6.692-1.77-12.532-3.202-17.521h41.452a147.947 147.947 0 00-1.853 27.498c.084.852.084 1.582.084 2.434z" fill="#fff"/><path d="M456.951 369.746c-11.037 0-20.894-5.232-24.601-13.263l-1.096-2.433 1.601-1.703c2.865-3.042 4.803-6.206 5.814-9.369.842-2.677.842-4.989.842-10.221v-.973c0-1.947-.084-4.015-.253-6.205-.421-5.597-1.432-11.194-3.033-16.548l-1.263-4.259h47.265l-.589 3.772a141.628 141.628 0 00-1.77 26.647c0 .851.084 1.581.084 2.311l-2.106.244 2.106-.244c.253 5.354.759 10.829 1.686 16.305l.168 1.216-.421 1.095c-3.202 7.544-11.964 12.898-22.411 13.506-.59.122-1.264.122-2.023.122zm-19.799-14.479c3.96 5.353 12.722 8.882 21.737 8.395 8.257-.487 15.671-4.38 18.536-9.612-.843-5.354-1.348-10.707-1.601-15.939l2.106-.244-2.106.122c0-.852-.084-1.703-.084-2.433-.253-8.152.168-16.426 1.348-24.578h-35.723c1.179 4.623 1.853 9.369 2.19 14.114.169 2.312.253 4.623.253 6.814v.973c0 5.475-.084 8.882-1.264 12.654-1.011 3.285-2.78 6.57-5.392 9.734z" fill="#4A4949"/><path d="M377.09 402.422c6.448 18.372 7.178 27.863 6.448 33.217-.365 2.798-1.703 8.152 1.095 13.018 1.46 2.434 3.285 3.651 3.042 5.719-.487 3.164-5.232 6.205-5.232 6.205s4.624 2.312 6.814 6.084c0 0 1.46 2.555.852 6.327-1.339 9.734-26.403 7.422-38.084 21.779-10.586 13.141-1.947 30.297-10.586 34.069-5.962 2.555-15.817-2.92-18.615-9.734-3.286-7.909 1.581-20.441 1.581-20.441s-4.623-1.46-7.057-4.015c-4.137-4.259-3.528-12.289-1.947-16.913 5.232-15.33 29.932-20.562 48.426-24.578 8.761-1.825 16.061-2.676 20.928-3.041" fill="#fff"/><path d="M338.277 532.489c-1.947 0-4.137-.487-6.327-1.338-5.354-2.069-9.856-6.327-11.803-10.951-2.798-6.57-.851-15.331.487-19.832-1.703-.852-3.893-1.947-5.475-3.651-4.745-4.988-4.745-13.87-2.677-19.954 5.719-17.034 31.757-22.509 50.738-26.525 5.84-1.216 11.68-2.19 17.52-2.798-1.581-4.38-.851-8.517-.365-11.316 0-.365.122-.73.122-.973.852-6.57-1.217-17.156-6.327-31.757-.608-1.581.243-3.285 1.825-3.893 1.582-.608 3.285.243 3.894 1.825 5.475 15.696 7.665 27.011 6.692 34.555 0 .365-.122.73-.122 1.217-.487 2.798-1.095 6.57.852 9.855.365.609.851 1.217 1.217 1.825 1.095 1.461 2.555 3.286 2.19 5.962-.244 2.19-1.582 4.016-3.042 5.476 1.582 1.216 3.163 2.798 4.38 4.867.243.365 1.947 3.528 1.217 8.273-.974 6.571-8.152 8.761-16.426 11.316-7.909 2.433-16.791 5.232-22.266 11.924-4.867 6.083-5.232 13.262-5.475 19.589-.244 6.327-.487 12.776-6.327 15.331a11.075 11.075 0 01-4.502.973zm46.114-79.209c-6.571.609-13.263 1.582-19.711 2.92-17.521 3.651-41.612 8.761-46.236 22.51-1.46 4.502-1.582 10.829 1.338 13.871 1.582 1.581 4.624 2.798 5.719 3.163l2.19.608v2.799l-.243.487c0 .121-4.38 11.558-1.582 18.129 1.338 3.042 4.624 6.083 8.395 7.665 2.434.974 4.746 1.095 6.206.487 2.312-.974 2.555-4.259 2.677-9.977.243-6.936.608-15.574 6.813-23.24 6.571-8.152 16.913-11.315 25.187-13.87 6.083-1.826 11.802-3.651 12.167-6.449.365-2.555-.487-4.38-.609-4.38-1.338-2.434-4.502-4.381-5.597-4.867l-4.866-2.434 4.501-2.92c1.704-1.095 3.651-2.92 3.772-4.015.122 0 0-.243-.121-.487z" fill="#4A4949"/><path d="M355.798 475.424c-11.316 6.57-21.293 15.331-29.08 25.308l-4.502-4.137c9.856-9.247 21.415-16.426 33.582-21.171zM357.746 466.176c1.946-.973 3.772-1.946 5.84-2.92 1.947-.973 4.015-1.703 6.084-2.555.973-.486 2.068-.73 3.163-1.095 1.095-.365 2.068-.608 3.164-.852 2.19-.608 4.258-1.095 6.448-1.338l.487 6.084h-6.205c-1.095 0-2.069.121-3.164.121-1.095.122-2.068.244-3.163.244-2.069.121-4.259.486-6.327.851-2.191.487-4.259.974-6.327 1.46zM362.735 422.254c8.761 2.798 16.913 8.517 22.875 16.182l-5.232 3.164c-3.529-7.665-9.734-14.723-17.643-19.346z" fill="#4A4949"/><path d="M544.877 444.761s4.015-2.311 5.475-1.338c1.582.973.852 5.962-1.338 10.099-2.92 5.718-6.814 6.57-13.019 12.167-6.692 6.084-5.719 8.274-9.977 11.924-8.882 7.665-26.16 9.247-30.905 2.92-9.369-12.289 28.715-54.996 37.354-54.022 2.555.243 3.528 1.581 3.528 1.581 1.703 2.312-.365 6.206-.852 7.179 4.989-3.65 9.613-4.624 11.559-2.798.974.851 1.095 2.19 1.217 3.406.365 4.259-2.068 7.666-3.042 8.882z" fill="#fff"/><path d="M506.185 487.47c-1.095 0-2.068 0-3.042-.122-4.745-.487-8.395-2.19-10.342-4.867-3.65-4.745-2.555-12.411 3.285-22.753 8.152-14.6 28.35-37.11 36.746-36.258 3.65.365 5.353 2.433 5.718 2.92.609.852 1.095 1.947 1.217 3.042 3.772-1.339 7.057-1.095 9.125.851 1.825 1.582 1.947 3.894 2.069 5.354.121 1.703 0 3.285-.365 4.745.486.122.973.244 1.46.609 3.893 2.433 2.068 9.733-.244 14.114-2.19 4.258-4.866 6.327-8.03 8.638-1.582 1.217-3.528 2.556-5.597 4.502-3.285 3.042-4.502 4.867-5.718 6.692-1.096 1.582-2.069 3.286-4.381 5.232-5.475 4.38-13.992 7.301-21.901 7.301zm26.038-57.917c-4.38.122-24.334 19.468-32.486 36.259-2.921 6.084-3.772 10.829-2.069 13.019.973 1.338 3.285 2.19 6.205 2.555 6.814.73 15.453-1.825 20.32-5.962 1.582-1.338 2.312-2.433 3.163-3.894 1.217-1.946 2.799-4.38 6.692-7.908 2.312-2.19 4.38-3.529 6.084-4.867 2.92-2.19 4.745-3.407 6.205-6.449 1.095-2.068 1.582-4.258 1.704-5.597-.609.244-1.217.487-1.704.852l-13.749 7.787 9.977-12.532c.974-1.217 2.555-3.772 2.312-6.692 0-.487-.122-1.095-.243-1.46-.73-.244-3.529 0-7.666 3.041l-10.707 7.788 6.206-11.681c1.095-2.068 1.216-3.528 1.095-3.894-.122-.121-.609-.365-1.339-.365z" fill="#4A4949"/><path d="M507.524 473.356c.609-3.772 1.704-7.422 3.042-10.951 1.46-3.528 3.164-6.935 5.232-10.22 2.069-3.164 4.502-6.327 7.179-9.004 2.798-2.677 5.718-5.11 9.125-7.057l2.069 2.92c-2.799 2.312-5.597 4.624-8.152 7.179-2.555 2.555-5.111 5.11-7.301 8.03-4.623 5.841-8.273 12.167-11.194 19.103zM519.569 473.355c1.217-2.92 2.555-5.718 4.015-8.517 1.46-2.798 3.164-5.475 5.232-8.03 4.015-4.989 9.004-9.369 14.601-12.776l2.068 4.015c-5.475 2.434-10.707 5.841-15.087 10.221-2.19 2.068-4.259 4.502-6.206 6.935-1.946 2.555-3.528 5.232-4.623 8.152z" fill="#4A4949"/><path d="M596.348 513.385c-2.433 14.479-25.551 21.536-31.391 23.24-13.628 4.136-25.308 3.163-30.297 2.555-36.015-4.259-48.061-23.848-89.794-41.977-33.825-14.723-53.658-19.103-53.658-19.103 1.095-.73 2.798-1.947 4.867-3.285 20.563-12.411 40.152-9.369 66.555-8.639 41.977 1.217 40.76-5.11 68.015-.73 24.578 3.894 36.502 10.829 43.437 15.818 7.057 5.353 24.7 18.129 22.266 32.121z" fill="#fff"/><path d="M543.905 542.831c-3.164 0-6.449-.243-9.612-.608-22.388-2.677-36.137-11.194-51.955-21.172-10.463-6.57-22.266-13.87-38.692-21.049-33.095-14.357-52.927-18.859-53.049-18.981l-6.57-1.46 5.353-4.015c1.582-1.217 3.286-2.312 5.111-3.407 18.372-11.194 36.501-10.342 57.429-9.49 3.407.121 7.057.243 10.707.365 19.59.608 29.567-.487 37.597-1.339 9.247-.973 15.939-1.703 30.662.609 25.429 4.015 37.718 11.315 44.775 16.425 7.909 5.719 26.282 19.225 23.605 35.042-1.825 10.829-13.141 19.468-33.582 25.673-6.935 2.312-14.236 3.407-21.779 3.407zm-145.399-65.947c8.517 2.434 24.821 7.666 47.452 17.521 16.791 7.301 28.837 14.844 39.544 21.536 15.939 9.977 28.471 17.764 49.399 20.198 10.099 1.217 19.833.365 29.08-2.434 22.387-6.813 28.349-15.087 29.323-20.927 2.068-12.167-14.844-24.456-21.171-29.08-6.571-4.745-18.008-11.559-42.221-15.331-13.992-2.19-20.076-1.582-29.079-.608-8.274.852-18.495 1.947-38.449 1.338-3.772-.121-7.3-.243-10.829-.365-20.319-.73-36.502-1.46-53.049 8.152z" fill="#4A4949"/><path d="M482.096 517.402c-16.183 7.422-43.316 17.399-78.236 18.251-24.213.609-44.289-3.285-58.646-7.422-.243-2.312-2.19-22.874 13.506-37.718 12.289-11.559 27.254-11.803 30.661-11.681 4.259 1.095 8.517 2.19 12.898 3.529 30.661 8.882 57.186 21.414 79.817 35.041z" fill="#fff"/><path d="M398.993 538.694c-18.372 0-36.745-2.555-54.509-7.544l-1.947-.608-.243-2.068c-.487-4.015-1.947-24.943 14.479-40.274 12.289-11.437 27.011-12.654 32.73-12.532h.365l.365.121c4.259 1.095 8.639 2.191 13.019 3.529 27.863 8.152 54.996 20.076 80.547 35.407l4.989 2.92-5.232 2.433c-25.186 11.559-51.954 17.886-79.452 18.495-1.825.121-3.529.121-5.111.121zm-50.859-12.775c18.251 4.866 36.989 7.178 55.726 6.692 24.7-.609 48.791-5.841 71.666-15.575-23.605-13.627-48.426-24.334-74.099-31.756-4.137-1.217-8.274-2.312-12.411-3.407-5.232 0-17.764 1.095-28.228 10.951-12.41 11.558-12.897 27.254-12.654 33.095z" fill="#4A4949"/><path d="M488.02 279.952c5.033 8.118 3.734 17.21.974 35.395-1.867 12.339-2.841 18.672-7.793 24.435-5.764 6.738-15.83 12.015-25.572 10.635-18.753-2.517-27.845-28.007-28.819-44.081-.325-6.008-1.299-21.919 10.147-32.635 7.956-7.387 17.617-8.361 20.701-8.524 11.772-.649 24.192 4.79 30.362 14.775z" fill="#fff"/><path d="M458.714 352.608c-1.137 0-2.192-.081-3.328-.244-20.377-2.76-29.55-29.631-30.524-46.029-.406-6.251-1.381-22.893 10.797-34.259 7.793-7.306 17.129-8.848 22-9.092 12.907-.649 25.815 5.683 32.066 15.83 5.439 8.768 4.059 18.104 1.299 36.694-1.786 11.934-2.841 19.078-8.281 25.41-5.114 6.169-14.287 11.69-24.029 11.69zm.812-85.565c-.569 0-1.137 0-1.705.081-4.303.244-12.583 1.543-19.402 8.037-10.797 10.067-9.904 25.329-9.498 31.093.974 16.154 9.985 39.94 27.033 42.214 9.417 1.298 18.753-4.141 23.786-9.986 4.465-5.195 5.439-10.959 7.306-23.38 2.598-17.616 3.897-26.465-.731-34.015-5.276-8.524-15.83-14.044-26.789-14.044z" fill="#4A4949"/><path d="M465.775 327.604c-.406.244-1.786 1.056-3.41.893-.406 0-1.867-.162-2.76-1.218-1.217-1.38-.893-3.977.081-5.357 1.949-2.761 7.225-2.355 10.31-1.543 5.602 1.461 6.901 5.033 11.285 4.952 2.516 0 4.546-1.218 5.763-2.111-1.867 3.166-3.896 4.303-5.358 4.871-5.52 2.03-11.446-2.922-15.911-.487z" fill="#4A4949"/><path d="M452.057 327.279c.406.243 1.704 1.136 3.409 1.055.406 0 1.867-.081 2.76-1.055 1.299-1.381 1.137-3.897.163-5.358-1.867-2.842-7.144-2.679-10.229-2.03-5.683 1.218-7.144 4.709-11.528 4.465-2.516-.162-4.465-1.461-5.682-2.435 1.705 3.247 3.734 4.546 5.114 5.114 5.439 2.273 11.609-2.354 15.993.244z" fill="#4A4949"/><path d="M520.526 224.689c-4.367-9.111-14.768-12.387-16.991-13.027-12.147-3.356-21.833 2.717-23.421 3.756a26.68 26.68 0 00-2.303-9.27c-4.763-10.869-18.499-22.856-34.457-19.18-14.609 3.357-24.93 18.381-22.707 34.604-2.144-1.119-4.605-1.918-7.225-1.678-9.766 1.038-19.055 16.542-16.197 30.128 3.017 14.065 15.085 23.415 27.074 20.778 1.112-.24 2.223-.639 3.255-1.039 9.448 2.877 21.199 3.996 33.664 2.717a107.87 107.87 0 0010.559-1.678c8.337 1.678 18.102.48 27.392-4.076 18.658-9.11 28.185-27.89 21.357-42.035z" fill="#fff"/><path d="M458.227 266.961l-.406.568a3.536 3.536 0 01-.487-.568h.893z" fill="#fff"/><path d="M451.082 275.323c-8.443 0-16.561-1.055-23.786-3.166-1.055.406-2.029.731-3.004.893a21.439 21.439 0 01-4.465.487c-11.69 0-22.649-9.579-25.572-23.136-1.704-8.037.406-17.454 5.521-24.517 3.653-5.033 8.199-8.037 12.745-8.524 1.705-.162 3.491 0 5.277.568-.65-15.911 9.823-30.443 25.085-33.933 17.86-4.059 32.716 9.66 37.505 20.62a28.99 28.99 0 012.111 6.981c4.465-2.273 12.908-5.195 22.812-2.516 2.273.649 13.801 4.221 18.671 14.287 3.654 7.55 3.248 16.48-1.136 25.085-4.303 8.443-11.934 15.668-21.513 20.295-9.417 4.547-19.646 6.089-28.9 4.384-3.491.731-6.982 1.299-10.554 1.624-3.653.325-7.225.568-10.797.568zm-23.948-7.469l.649.244c9.904 3.004 21.513 3.897 33.69 2.679a89.314 89.314 0 0010.554-1.624l.406-.081.406.081c8.442 1.705 17.94.325 26.708-3.977 8.768-4.222 15.749-10.798 19.727-18.51 3.815-7.468 4.221-15.099 1.136-21.513-4.14-8.524-14.125-11.608-16.073-12.096-10.96-3.003-19.808 1.949-22.325 3.572l-2.841 1.868-.244-3.41c-.243-3.085-.974-6.089-2.192-8.768-4.302-9.741-17.373-21.837-32.959-18.346-14.288 3.247-23.786 17.697-21.594 32.878l.568 3.978-3.572-1.949c-2.192-1.136-4.221-1.704-6.17-1.461-3.409.325-6.981 2.841-9.904 6.9-4.465 6.17-6.332 14.369-4.871 21.27 2.842 13.151 14.126 21.919 25.248 19.564.893-.162 1.867-.487 2.922-.974l.731-.325z" fill="#4A4949"/><path d="M440.366 263.307c-2.354.569-4.709 1.299-6.982 2.03-5.439-4.14-10.147-9.011-13.882-14.45a59.166 59.166 0 0020.864 12.42zM458.227 269.233l-.405.569a3.548 3.548 0 01-.488-.569h.893zM459.281 261.116h-2.516c-1.624 0-3.248.081-4.871.244a45.086 45.086 0 01-1.543-3.491c-1.623-4.303-2.354-8.768-2.192-13.07 1.218 4.14 3.248 7.874 5.764 11.04a27.419 27.419 0 005.358 5.277zM491.348 250.644a68.46 68.46 0 01-11.69 13.557c-2.273-.65-4.708-1.299-7.306-1.786 6.819-2.679 13.314-6.657 18.996-11.771z" fill="#4A4949"/><path d="M491.59 295.699c-6.575-2.76-17.453-6.413-31.335-6.657a85.647 85.647 0 00-35.07 6.738v-24.679a71.274 71.274 0 0131.66-8.199c16.561-.406 28.982 5.114 34.745 8.118v24.679z" fill="#fff"/><path d="M423.155 298.865l-.081-28.981 1.056-.569c10.066-5.276 21.269-8.199 32.553-8.442 15.587-.325 28.007 4.302 35.72 8.361l1.055.569.081 28.9-2.841-1.137c-9.742-4.14-20.052-6.332-30.605-6.494-11.609-.244-23.462 2.029-34.259 6.576l-2.679 1.217zm4.059-26.465v20.458c10.554-4.059 21.919-6.008 33.122-5.764 10.067.244 19.889 2.111 29.225 5.683v-20.458c-7.306-3.653-18.59-7.631-32.634-7.306-10.31.162-20.539 2.76-29.713 7.387z" fill="#4A4949"/><path d="M422.72 405.463c3.226 0 5.84-3.268 5.84-7.3s-2.614-7.301-5.84-7.301c-3.225 0-5.84 3.269-5.84 7.301s2.615 7.3 5.84 7.3z" fill="#fff"/><path d="M422.719 408.504c-4.866 0-8.882-4.624-8.882-10.342 0-5.719 4.016-10.343 8.882-10.343 4.867 0 8.883 4.624 8.883 10.343 0 5.718-4.016 10.342-8.883 10.342zm0-14.601c-1.338 0-2.798 1.703-2.798 4.259 0 2.555 1.46 4.258 2.798 4.258 1.339 0 2.799-1.703 2.799-4.258 0-2.556-1.46-4.259-2.799-4.259z" fill="#4A4949"/><path d="M487.205 405.463c3.226 0 5.84-3.268 5.84-7.3s-2.614-7.301-5.84-7.301c-3.225 0-5.84 3.269-5.84 7.301s2.615 7.3 5.84 7.3z" fill="#fff"/><path d="M487.205 408.504c-4.867 0-8.882-4.624-8.882-10.342 0-5.719 4.015-10.343 8.882-10.343s8.882 4.624 8.882 10.343c0 5.718-3.894 10.342-8.882 10.342zm0-14.601c-1.339 0-2.799 1.703-2.799 4.259 0 2.555 1.46 4.258 2.799 4.258 1.338 0 2.798-1.703 2.798-4.258 0-2.556-1.46-4.259-2.798-4.259z" fill="#4A4949"/><path d="M422.961 449.023c3.226 0 5.841-3.269 5.841-7.301s-2.615-7.3-5.841-7.3c-3.225 0-5.84 3.268-5.84 7.3s2.615 7.301 5.84 7.301z" fill="#fff"/><path d="M422.962 452.064c-4.867 0-8.882-4.623-8.882-10.342s4.015-10.342 8.882-10.342 8.882 4.623 8.882 10.342-4.015 10.342-8.882 10.342zm0-14.6c-1.339 0-2.799 1.703-2.799 4.258 0 2.555 1.46 4.259 2.799 4.259 1.338 0 2.798-1.704 2.798-4.259 0-2.555-1.46-4.258-2.798-4.258z" fill="#4A4949"/><path d="M487.449 449.023c3.226 0 5.84-3.269 5.84-7.301s-2.614-7.3-5.84-7.3c-3.225 0-5.84 3.268-5.84 7.3s2.615 7.301 5.84 7.301z" fill="#fff"/><path d="M487.448 452.064c-4.866 0-8.882-4.623-8.882-10.342s4.016-10.342 8.882-10.342c4.867 0 8.883 4.623 8.883 10.342s-3.894 10.342-8.883 10.342zm0-14.6c-1.338 0-2.798 1.703-2.798 4.258 0 2.555 1.46 4.259 2.798 4.259 1.339 0 2.799-1.704 2.799-4.259 0-2.555-1.46-4.258-2.799-4.258z" fill="#4A4949"/><path fill-rule="evenodd" clip-rule="evenodd" d="M601.711 618.302c3.922 0 7.059-6.215 7.059-13.817 0-7.603-3.198-13.818-7.059-13.818H118.464c-8.206-.603-15.145 5.672-15.567 13.093-.423 7.905 6.697 15.206 15.567 14.602h483.247v-.06z" fill="#fff"/><path d="M100 604.605c.121 9.111 7.905 16.593 17.197 16.291h480.29c8.809 0 16.291-6.818 16.714-15.567v-.784-.785c-.362-8.869-7.905-15.748-16.714-15.748h-480.29c-9.413-.362-17.257 7.361-17.197 16.593zm4.767-.06c-.06-6.456 5.732-11.887 12.43-11.344h481.436c5.37 0 10.197 3.741 11.163 8.991.181.965.241 1.931.181 2.896 0 .241-.06.422-.06.664-.604 5.671-5.612 9.895-11.344 9.895H117.197c-6.698.603-12.43-4.706-12.43-11.102z" fill="#4A4949"/><path d="M356.504 565.69v3.438c0 5.14-1.51 10.153-4.37 14.458a13.665 13.665 0 01-11.406 6.105H207.776a13.665 13.665 0 01-11.406-6.105 26.083 26.083 0 01-4.37-14.458v-3.438a3.442 3.442 0 013.438-3.438h7.036c1.671-34.925 28.274-63.36 62.396-67.858a10.365 10.365 0 01-.867-4.113c0-5.654 4.594-10.281 10.281-10.281s10.282 4.627 10.282 10.281c0 1.478-.322 2.86-.868 4.113 34.122 4.498 60.725 32.933 62.396 67.858h7.036c1.832 0 3.374 1.542 3.374 3.438z" fill="#fff"/><path d="M248.741 513.286c-10.475 5.109-19.117 13.141-24.933 23.262-.964 1.638-.385 3.727 1.253 4.691.546.321 1.125.45 1.703.45 1.189 0 2.345-.611 2.956-1.703 5.173-8.932 12.788-16.033 22.009-20.531a3.435 3.435 0 001.574-4.595 3.416 3.416 0 00-4.562-1.574z" fill="#4A4949"/><path d="M353.066 562.252h-7.036c-1.671-34.925-28.275-63.36-62.396-67.858.546-1.253.867-2.667.867-4.113 0-5.654-4.594-10.281-10.281-10.281s-10.282 4.627-10.282 10.281c0 1.478.322 2.86.868 4.113-34.122 4.498-60.725 32.933-62.396 67.858h-6.972A3.442 3.442 0 00192 565.69v3.438c0 5.14 1.51 10.153 4.37 14.458a13.665 13.665 0 0011.406 6.105h132.952c4.595 0 8.868-2.282 11.406-6.105a26.003 26.003 0 004.37-14.458v-3.438a3.442 3.442 0 00-3.438-3.438zm-78.814-75.376a3.442 3.442 0 013.438 3.438 3.441 3.441 0 01-3.438 3.437 3.441 3.441 0 01-3.438-3.437 3.442 3.442 0 013.438-3.438zm0 13.687c34.764 0 63.135 27.374 64.934 61.689H209.318c1.799-34.315 30.17-61.689 64.934-61.689zm75.408 68.565c0 3.791-1.124 7.486-3.213 10.635a6.809 6.809 0 01-5.687 3.052H207.776a6.863 6.863 0 01-5.719-3.052 19.057 19.057 0 01-3.213-10.635H349.66z" fill="#4A4949"/></svg>