<svg xmlns="http://www.w3.org/2000/svg" width="68" height="68" viewBox="0 0 68 68" fill="none">
<g filter="url(#filter0_d)">
<path d="M23.1172 9.30444L22.4368 9.25L22.3823 9.93047L23.0628 9.98491L23.1172 9.30444Z" fill="#ffffff"/>
<path d="M23.8241 9.35913L23.1164 9.30469L23.062 9.98516L23.7425 10.0396L23.8241 9.35913Z" fill="#ffffff"/>
<path d="M24.5059 9.41332L23.8254 9.35889L23.771 10.0394L24.4515 10.0938L24.5059 9.41332Z" fill="#ffffff"/>
<path d="M25.893 9.54956L25.2125 9.49512L25.1309 10.1756L25.8113 10.23L25.893 9.54956Z" fill="#ffffff"/>
<path d="M27.2818 9.65844L26.6013 9.604L26.5469 10.2845L27.2273 10.3389L27.2818 9.65844Z" fill="#ffffff"/>
<path d="M28.6709 9.76733L27.9905 9.71289L27.936 10.3934L28.6165 10.4478L28.6709 9.76733Z" fill="#ffffff"/>
<path d="M29.3506 9.84887L28.6702 9.79443L28.6157 10.4749L29.2962 10.5293L29.3506 9.84887Z" fill="#ffffff"/>
<path d="M30.0596 9.90307L29.3791 9.84863L29.3247 10.5291L30.0052 10.5835L30.0596 9.90307Z" fill="#ffffff"/>
<path d="M31.4454 10.0124L30.7649 9.95801L30.7104 10.6385L31.3909 10.6929L31.4454 10.0124Z" fill="#ffffff"/>
<path d="M23.0634 10.0124L22.3829 9.95801L22.3013 10.6385L22.9817 10.6929L23.0634 10.0124Z" fill="#ffffff"/>
<path d="M23.7437 10.0666L23.0632 10.0122L23.0088 10.6927L23.6893 10.7471L23.7437 10.0666Z" fill="#ffffff"/>
<path d="M25.1309 10.1755L24.4504 10.1211L24.396 10.8016L25.0765 10.856L25.1309 10.1755Z" fill="#ffffff"/>
<path d="M27.2279 10.366L26.5475 10.3115L26.4658 10.992L27.1463 11.0464L27.2279 10.366Z" fill="#ffffff"/>
<path d="M29.2955 10.5295L28.615 10.4751L28.5605 11.1556L29.241 11.21L29.2955 10.5295Z" fill="#ffffff"/>
<path d="M30.6846 10.6384L30.0041 10.584L29.9497 11.2645L30.6302 11.3189L30.6846 10.6384Z" fill="#ffffff"/>
<path d="M23.0082 10.6926L22.3005 10.6382L22.2461 11.3187L22.9266 11.3731L23.0082 10.6926Z" fill="#ffffff"/>
<path d="M23.6885 10.7473L23.0081 10.6929L22.9536 11.3733L23.6341 11.4278L23.6885 10.7473Z" fill="#ffffff"/>
<path d="M24.396 10.8015L23.7156 10.7471L23.6611 11.4275L24.3416 11.482L24.396 10.8015Z" fill="#ffffff"/>
<path d="M25.0772 10.8835L24.3967 10.8291L24.3423 11.5096L25.0228 11.564L25.0772 10.8835Z" fill="#ffffff"/>
<path d="M26.4664 10.9919L25.7859 10.9375L25.7314 11.618L26.4119 11.6724L26.4664 10.9919Z" fill="#ffffff"/>
<path d="M27.1733 11.0466L26.4656 10.9922L26.4111 11.6727L27.0916 11.7271L27.1733 11.0466Z" fill="#ffffff"/>
<path d="M27.855 11.1013L27.1746 11.0469L27.1201 11.7273L27.8006 11.7818L27.855 11.1013Z" fill="#ffffff"/>
<path d="M29.9224 11.2917L29.2419 11.2373L29.1875 11.9178L29.868 11.9722L29.9224 11.2917Z" fill="#ffffff"/>
<path d="M30.6294 11.3459L29.949 11.2915L29.8945 11.972L30.575 12.0264L30.6294 11.3459Z" fill="#ffffff"/>
<path d="M31.3111 11.4001L30.6306 11.3457L30.5762 12.0262L31.2566 12.0806L31.3111 11.4001Z" fill="#ffffff"/>
<path d="M26.4112 11.6726L25.7307 11.6182L25.6763 12.2986L26.3567 12.3531L26.4112 11.6726Z" fill="#ffffff"/>
<path d="M27.0909 11.7273L26.4104 11.6729L26.356 12.3533L27.0364 12.4078L27.0909 11.7273Z" fill="#ffffff"/>
<path d="M29.1871 11.9177L28.5066 11.8633L28.4521 12.5438L29.1326 12.5982L29.1871 11.9177Z" fill="#ffffff"/>
<path d="M30.5762 12.0261L29.8957 11.9717L29.8413 12.6522L30.5218 12.7066L30.5762 12.0261Z" fill="#ffffff"/>
<path d="M23.5795 12.1355L22.8718 12.0811L22.8174 12.7615L23.4979 12.816L23.5795 12.1355Z" fill="#ffffff"/>
<path d="M24.9687 12.2439L24.2882 12.1895L24.2065 12.8971L24.887 12.9516L24.9687 12.2439Z" fill="#ffffff"/>
<path d="M25.647 12.3259L24.9665 12.2715L24.9121 12.952L25.5926 13.0064L25.647 12.3259Z" fill="#ffffff"/>
<path d="M26.356 12.3806L25.6755 12.3262L25.6211 13.0066L26.3016 13.0611L26.356 12.3806Z" fill="#ffffff"/>
<path d="M27.7447 12.489L27.0642 12.4346L27.0098 13.115L27.6902 13.1695L27.7447 12.489Z" fill="#ffffff"/>
<path d="M29.8121 12.6794L29.1316 12.625L29.0771 13.3055L29.7576 13.3599L29.8121 12.6794Z" fill="#ffffff"/>
<path d="M30.521 12.7341L29.8406 12.6797L29.7861 13.3602L30.4666 13.4146L30.521 12.7341Z" fill="#ffffff"/>
<path d="M22.8179 12.7615L22.1374 12.707L22.083 13.3875L22.7635 13.4419L22.8179 12.7615Z" fill="#ffffff"/>
<path d="M23.5264 12.843L22.8459 12.7886L22.7915 13.469L23.472 13.5235L23.5264 12.843Z" fill="#ffffff"/>
<path d="M25.5953 13.0066L24.9148 12.9521L24.8604 13.6326L25.5408 13.6871L25.5953 13.0066Z" fill="#ffffff"/>
<path d="M26.3022 13.0608L25.6217 13.0063L25.54 13.714L26.2205 13.7685L26.3022 13.0608Z" fill="#ffffff"/>
<path d="M29.7582 13.3601L29.0778 13.3057L28.9961 13.9861L29.6766 14.0406L29.7582 13.3601Z" fill="#ffffff"/>
<path d="M31.146 13.469L30.4656 13.4146L30.4111 14.095L31.0916 14.1495L31.146 13.469Z" fill="#ffffff"/>
<path d="M22.7627 13.469L22.0823 13.4146L22.0278 14.095L22.7083 14.1495L22.7627 13.469Z" fill="#ffffff"/>
<path d="M24.1528 13.5779L23.4723 13.5234L23.3906 14.2311L24.0711 14.2856L24.1528 13.5779Z" fill="#ffffff"/>
<path d="M25.5401 13.7141L24.8596 13.6597L24.8052 14.3401L25.4856 14.3946L25.5401 13.7141Z" fill="#ffffff"/>
<path d="M26.9273 13.823L26.2468 13.7686L26.1924 14.449L26.8729 14.5035L26.9273 13.823Z" fill="#ffffff"/>
<path d="M28.3165 13.9319L27.636 13.8774L27.5815 14.5579L28.262 14.6124L28.3165 13.9319Z" fill="#ffffff"/>
<path d="M29.7035 14.0408L28.9958 13.9863L28.9414 14.6668L29.6219 14.7212L29.7035 14.0408Z" fill="#ffffff"/>
<path d="M31.0923 14.1765L30.4119 14.1221L30.3574 14.8025L31.0379 14.857L31.0923 14.1765Z" fill="#ffffff"/>
<path d="M22.7089 14.1492L22.0284 14.0947L21.9468 14.8024L22.6272 14.8569L22.7089 14.1492Z" fill="#ffffff"/>
<path d="M23.3907 14.2312L22.7102 14.1768L22.6558 14.8572L23.3362 14.9117L23.3907 14.2312Z" fill="#ffffff"/>
<path d="M24.0976 14.2859L23.3899 14.2314L23.3354 14.9119L24.0159 14.9664L24.0976 14.2859Z" fill="#ffffff"/>
<path d="M26.1666 14.449L25.4861 14.3945L25.4316 15.075L26.1121 15.1294L26.1666 14.449Z" fill="#ffffff"/>
<path d="M27.5542 14.5579L26.8738 14.5034L26.8193 15.1839L27.4998 15.2383L27.5542 14.5579Z" fill="#ffffff"/>
<path d="M30.3301 14.8025L29.6497 14.748L29.5952 15.4285L30.2757 15.483L30.3301 14.8025Z" fill="#ffffff"/>
<path d="M31.0376 14.8572L30.3572 14.8027L30.3027 15.4832L30.9832 15.5376L31.0376 14.8572Z" fill="#ffffff"/>
<path d="M18.4893 14.5037L17.8088 14.4492L17.7544 15.1297L18.4349 15.1841L18.4893 14.5037Z" fill="#ffffff"/>
<path d="M19.1977 14.5579L18.49 14.5034L18.4355 15.1839L19.116 15.2383L19.1977 14.5579Z" fill="#ffffff"/>
<path d="M19.878 14.6121L19.1975 14.5576L19.1431 15.2381L19.8235 15.2925L19.878 14.6121Z" fill="#ffffff"/>
<path d="M21.2671 14.7483L20.5867 14.6938L20.5322 15.3743L21.2127 15.4288L21.2671 14.7483Z" fill="#ffffff"/>
<path d="M22.6537 14.8572L21.946 14.8027L21.8916 15.4832L22.5721 15.5376L22.6537 14.8572Z" fill="#ffffff"/>
<path d="M23.3355 14.9119L22.655 14.8574L22.6006 15.5379L23.2811 15.5923L23.3355 14.9119Z" fill="#ffffff"/>
<path d="M26.1119 15.1569L25.4314 15.0752L25.377 15.7557L26.0574 15.8101L26.1119 15.1569Z" fill="#ffffff"/>
<path d="M27.4985 15.2654L26.818 15.2109L26.7363 15.8914L27.4168 15.9458L27.4985 15.2654Z" fill="#ffffff"/>
<path d="M28.2066 15.3201L27.5261 15.2656L27.4717 15.9461L28.1522 16.0005L28.2066 15.3201Z" fill="#ffffff"/>
<path d="M29.5689 15.4289L28.8884 15.3745L28.834 16.0822L29.5145 16.1366L29.5689 15.4289Z" fill="#ffffff"/>
<path d="M31.6636 15.6194L30.9831 15.5649L30.9287 16.2454L31.6092 16.2999L31.6636 15.6194Z" fill="#ffffff"/>
<path d="M31.8009 15.6191L31.6376 16.2996H31.6104L31.6648 15.6191H31.8009Z" fill="#ffffff"/>
<path d="M17.0469 15.0749L16.3664 15.0205L16.312 15.701L16.9925 15.7554L17.0469 15.0749Z" fill="#ffffff"/>
<path d="M20.503 15.3747L19.8225 15.3203L19.7681 16.0008L20.4485 16.0552L20.503 15.3747Z" fill="#ffffff"/>
<path d="M22.6006 15.5378L21.9202 15.4834L21.8657 16.1639L22.5462 16.2183L22.6006 15.5378Z" fill="#ffffff"/>
<path d="M23.9878 15.6736L23.3074 15.6191L23.2529 16.2996L23.9334 16.3541L23.9878 15.6736Z" fill="#ffffff"/>
<path d="M24.668 15.7283L23.9875 15.6738L23.9331 16.3543L24.6136 16.4087L24.668 15.7283Z" fill="#ffffff"/>
<path d="M28.1255 16.0276L27.4451 15.9731L27.3906 16.6536L28.0711 16.7081L28.1255 16.0276Z" fill="#ffffff"/>
<path d="M31.5816 16.4634L31.6088 16.3L30.9011 16.2456L30.8467 16.9533L31.4455 17.0077L31.5816 16.4634Z" fill="#ffffff"/>
<path d="M31.6355 16.2998L31.5811 16.4631L31.6083 16.2998H31.6355Z" fill="#ffffff"/>
<path d="M16.9937 15.783L16.3132 15.7285L16.2588 16.409L16.9393 16.4634L16.9937 15.783Z" fill="#ffffff"/>
<path d="M17.6734 15.8372L16.9929 15.7827L16.9385 16.4632L17.6189 16.5176L17.6734 15.8372Z" fill="#ffffff"/>
<path d="M19.7681 16.0007L19.0876 15.9463L19.0332 16.6268L19.7137 16.6812L19.7681 16.0007Z" fill="#ffffff"/>
<path d="M21.1581 16.1091L20.4777 16.0547L20.396 16.7624L21.0765 16.8168L21.1581 16.1091Z" fill="#ffffff"/>
<path d="M21.8384 16.1912L21.158 16.1367L21.1035 16.8172L21.784 16.8716L21.8384 16.1912Z" fill="#ffffff"/>
<path d="M30.8462 16.9529L30.1658 16.8984L30.1113 17.5789L30.7918 17.6333L30.8462 16.9529Z" fill="#ffffff"/>
<path d="M16.9385 16.4631L16.2581 16.4087L16.2036 17.0892L16.8841 17.1436L16.9385 16.4631Z" fill="#ffffff"/>
<path d="M17.6182 16.5173L16.9377 16.4629L16.8833 17.1434L17.5638 17.1978L17.6182 16.5173Z" fill="#ffffff"/>
<path d="M20.396 16.7624L19.7156 16.708L19.6611 17.3885L20.3416 17.4429L20.396 16.7624Z" fill="#ffffff"/>
<path d="M21.7832 16.8713L21.1028 16.8169L21.0483 17.4974L21.7288 17.5518L21.7832 16.8713Z" fill="#ffffff"/>
<path d="M23.1719 16.9802L22.4914 16.9258L22.437 17.6063L23.1175 17.6607L23.1719 16.9802Z" fill="#ffffff"/>
<path d="M30.0855 17.5789L29.405 17.5244L29.3506 18.2049L30.0311 18.2593L30.0855 17.5789Z" fill="#ffffff"/>
<path d="M30.7945 17.6335L30.114 17.5791L30.0596 18.2596L30.74 18.3412L30.7945 17.6335Z" fill="#ffffff"/>
<path d="M17.5635 17.2253L16.8831 17.1709L16.8286 17.8514L17.5091 17.9058L17.5635 17.2253Z" fill="#ffffff"/>
<path d="M18.2447 17.28L17.5642 17.2256L17.5098 17.9061L18.1902 17.9605L18.2447 17.28Z" fill="#ffffff"/>
<path d="M18.9522 17.3342L18.2717 17.2798L18.2173 17.9603L18.8978 18.0147L18.9522 17.3342Z" fill="#ffffff"/>
<path d="M21.0225 17.4978L20.342 17.4434L20.2876 18.1238L20.9681 18.1783L21.0225 17.4978Z" fill="#ffffff"/>
<path d="M30.0308 18.2595L29.3503 18.2051L29.2959 18.8856L29.9764 18.94L30.0308 18.2595Z" fill="#ffffff"/>
<path d="M30.7398 18.3415L30.0593 18.2871L30.0049 18.9676L30.6854 19.022L30.7398 18.3415Z" fill="#ffffff"/>
<path d="M31.1201 18.3685L30.9568 19.049L30.6846 19.0218L30.739 18.3413L31.1201 18.3685Z" fill="#ffffff"/>
<path d="M16.8023 17.8513L16.1218 17.7969L16.0674 18.4773L16.7479 18.5318L16.8023 17.8513Z" fill="#ffffff"/>
<path d="M18.899 18.0144L18.2185 17.96L18.1641 18.6404L18.8445 18.6949L18.899 18.0144Z" fill="#ffffff"/>
<path d="M20.2856 18.1511L19.5779 18.0967L19.5234 18.7772L20.2039 18.8316L20.2856 18.1511Z" fill="#ffffff"/>
<path d="M22.356 18.3142L21.6755 18.2598L21.6211 18.9402L22.3016 18.9947L22.356 18.3142Z" fill="#ffffff"/>
<path d="M23.0634 18.3684L22.3829 18.314L22.3013 19.0217L22.9817 19.0761L23.0634 18.3684Z" fill="#ffffff"/>
<path d="M29.9756 18.9675L29.2952 18.9131L29.2407 19.5936L29.9212 19.648L29.9756 18.9675Z" fill="#ffffff"/>
<path d="M30.6846 19.0217L30.0041 18.9673L29.9497 19.6478L30.6302 19.7022L30.6846 19.0217Z" fill="#ffffff"/>
<path d="M30.9559 19.0487L30.7926 19.7292H30.6021L30.6837 19.0215L30.9559 19.0487Z" fill="#ffffff"/>
<path d="M18.8438 18.7224L18.1633 18.668L18.1089 19.3484L18.7894 19.4029L18.8438 18.7224Z" fill="#ffffff"/>
<path d="M19.5248 18.7771L18.8444 18.7227L18.7627 19.4031L19.4432 19.4576L19.5248 18.7771Z" fill="#ffffff"/>
<path d="M20.9126 18.8855L20.2322 18.8311L20.1777 19.5115L20.8582 19.566L20.9126 18.8855Z" fill="#ffffff"/>
<path d="M21.5923 18.9402L20.9119 18.8857L20.8574 19.5662L21.5379 19.6207L21.5923 18.9402Z" fill="#ffffff"/>
<path d="M22.3013 19.0217L21.6208 18.9673L21.5664 19.6478L22.2469 19.7022L22.3013 19.0217Z" fill="#ffffff"/>
<path d="M30.6021 19.7019L29.9216 19.6475L29.8672 20.3279L30.5477 20.3824L30.6021 19.7019Z" fill="#ffffff"/>
<path d="M18.081 19.3484L17.4005 19.2939L17.3188 19.9744L17.9993 20.0289L18.081 19.3484Z" fill="#ffffff"/>
<path d="M18.7627 19.4031L18.0823 19.3486L18.0278 20.0291L18.7083 20.0835L18.7627 19.4031Z" fill="#ffffff"/>
<path d="M19.4701 19.4573L18.7624 19.4028L18.708 20.0833L19.3885 20.1377L19.4701 19.4573Z" fill="#ffffff"/>
<path d="M21.5386 19.6477L20.8581 19.5933L20.8037 20.2737L21.4842 20.3282L21.5386 19.6477Z" fill="#ffffff"/>
<path d="M22.246 19.7019L21.5655 19.6475L21.4839 20.3279L22.1644 20.3824L22.246 19.7019Z" fill="#ffffff"/>
<path d="M22.9263 19.7566L22.2458 19.7021L22.1914 20.3826L22.8719 20.4371L22.9263 19.7566Z" fill="#ffffff"/>
<path d="M29.8686 20.3552L29.1881 20.3008L29.1064 20.9813L29.7869 21.0357L29.8686 20.3552Z" fill="#ffffff"/>
<path d="M30.5469 20.4099L30.5197 20.9271L30.4925 21.0904H30.4653L29.812 21.0359L29.8665 20.3555L30.5469 20.4099Z" fill="#ffffff"/>
<path d="M30.6299 20.4102L30.521 20.9273L30.5482 20.4102H30.6299Z" fill="#ffffff"/>
<path d="M17.3189 19.9744L16.6384 19.9199L16.584 20.6276L17.2645 20.682L17.3189 19.9744Z" fill="#ffffff"/>
<path d="M18.0278 20.0563L17.3201 19.9746L17.2656 20.6551L17.9461 20.7095L18.0278 20.0563Z" fill="#ffffff"/>
<path d="M18.7076 20.1106L18.0271 20.0562L17.9727 20.7366L18.6531 20.7911L18.7076 20.1106Z" fill="#ffffff"/>
<path d="M20.8038 20.2742L20.1233 20.2197L20.0688 20.9002L20.7493 20.9546L20.8038 20.2742Z" fill="#ffffff"/>
<path d="M22.1923 20.4098L21.4846 20.3281L21.4302 21.0086L22.1106 21.063L22.1923 20.4098Z" fill="#ffffff"/>
<path d="M22.8726 20.4646L22.1921 20.4102L22.1377 21.0906L22.8182 21.1451L22.8726 20.4646Z" fill="#ffffff"/>
<path d="M16.584 20.6277L15.9036 20.5732L15.8491 21.2537L16.5296 21.3082L16.584 20.6277Z" fill="#ffffff"/>
<path d="M17.2642 20.6824L16.5837 20.6279L16.5293 21.3084L17.2098 21.3628L17.2642 20.6824Z" fill="#ffffff"/>
<path d="M17.9727 20.7366L17.2922 20.6821L17.2378 21.3626L17.9183 21.417L17.9727 20.7366Z" fill="#ffffff"/>
<path d="M20.0416 20.927L19.3611 20.8726L19.3066 21.553L19.9871 21.6075L20.0416 20.927Z" fill="#ffffff"/>
<path d="M22.8179 21.1448L22.1374 21.0903L22.083 21.7708L22.7635 21.8252L22.8179 21.1448Z" fill="#ffffff"/>
<path d="M29.7583 21.7439L29.0779 21.6895L29.0234 22.3699L29.7039 22.4244L29.7583 21.7439Z" fill="#ffffff"/>
<path d="M16.5302 21.3083L15.8497 21.2539L15.7681 21.9616L16.4485 22.016L16.5302 21.3083Z" fill="#ffffff"/>
<path d="M17.9175 21.4441L17.2371 21.3896L17.1826 22.0701L17.8631 22.1246L17.9175 21.4441Z" fill="#ffffff"/>
<path d="M18.5992 21.4988L17.9187 21.4443L17.8643 22.1248L18.5447 22.1792L18.5992 21.4988Z" fill="#ffffff"/>
<path d="M20.668 21.6619L19.9875 21.6074L19.9331 22.2879L20.6136 22.3423L20.668 21.6619Z" fill="#ffffff"/>
<path d="M22.0567 21.7707L21.3762 21.7163L21.3218 22.424L22.0022 22.4784L22.0567 21.7707Z" fill="#ffffff"/>
<path d="M16.4478 22.0159L15.7673 21.9614L15.7129 22.6419L16.3934 22.6963L16.4478 22.0159Z" fill="#ffffff"/>
<path d="M17.837 22.1248L17.1565 22.0703L17.1021 22.7508L17.7825 22.8052L17.837 22.1248Z" fill="#ffffff"/>
<path d="M19.2256 22.2336L18.5452 22.1792L18.4907 22.8869L19.1712 22.9413L19.2256 22.2336Z" fill="#ffffff"/>
<path d="M19.9332 22.2878L19.2527 22.2334L19.1982 22.9139L19.8787 22.9683L19.9332 22.2878Z" fill="#ffffff"/>
<path d="M21.3218 22.4241L20.6414 22.3696L20.5869 23.0501L21.2674 23.1045L21.3218 22.4241Z" fill="#ffffff"/>
<path d="M24.0976 22.6418L23.3899 22.5874L23.3354 23.2679L24.0159 23.3223L24.0976 22.6418Z" fill="#ffffff"/>
<path d="M26.8467 22.887L26.1663 22.8325L26.1118 23.513L26.7923 23.5674L26.8467 22.887Z" fill="#ffffff"/>
<path d="M28.2354 22.9958L27.5549 22.9414L27.5005 23.6219L28.181 23.6763L28.2354 22.9958Z" fill="#ffffff"/>
<path d="M16.3946 22.696L15.7141 22.6416L15.6597 23.3221L16.3401 23.3765L16.3946 22.696Z" fill="#ffffff"/>
<path d="M17.7818 22.8054L17.1013 22.751L17.0469 23.4314L17.7273 23.4859L17.7818 22.8054Z" fill="#ffffff"/>
<path d="M20.5582 23.05L19.8777 22.9956L19.8232 23.6761L20.5037 23.7305L20.5582 23.05Z" fill="#ffffff"/>
<path d="M21.2671 23.1042L20.5867 23.0498L20.5322 23.7303L21.2127 23.7847L21.2671 23.1042Z" fill="#ffffff"/>
<path d="M22.6265 23.241L21.946 23.1865L21.8916 23.867L22.5721 23.9214L22.6265 23.241Z" fill="#ffffff"/>
<path d="M24.7227 23.404L24.0422 23.3496L23.9878 24.0301L24.6683 24.0845L24.7227 23.404Z" fill="#ffffff"/>
<path d="M28.1802 23.7034L27.4997 23.6489L27.4453 24.3294L28.1258 24.3838L28.1802 23.7034Z" fill="#ffffff"/>
<path d="M28.8877 23.7576L28.2073 23.7031L28.1528 24.3836L28.8333 24.438L28.8877 23.7576Z" fill="#ffffff"/>
<path d="M29.5689 23.8122L28.8884 23.7578L28.834 24.4383L29.5145 24.4927L29.5689 23.8122Z" fill="#ffffff"/>
<path d="M29.8136 23.8397L29.6503 24.5202H29.5142L29.5686 23.8125L29.8136 23.8397Z" fill="#ffffff"/>
<path d="M21.8916 23.8669L21.2112 23.8125L21.1567 24.493L21.8372 24.5474L21.8916 23.8669Z" fill="#ffffff"/>
<path d="M22.5733 23.9211L21.8928 23.8667L21.8384 24.5472L22.5189 24.6016L22.5733 23.9211Z" fill="#ffffff"/>
<path d="M23.2802 23.9753L22.5725 23.9209L22.5181 24.6014L23.1985 24.6558L23.2802 23.9753Z" fill="#ffffff"/>
<path d="M24.668 24.1116L23.9875 24.0571L23.9331 24.7376L24.6136 24.792L24.668 24.1116Z" fill="#ffffff"/>
<path d="M25.3492 24.1658L24.6687 24.1113L24.6143 24.7918L25.2947 24.8462L25.3492 24.1658Z" fill="#ffffff"/>
<path d="M26.7369 24.2751L26.0564 24.2207L26.002 24.9012L26.6824 24.9556L26.7369 24.2751Z" fill="#ffffff"/>
<path d="M27.4454 24.3293L26.7649 24.2749L26.7104 24.9554L27.3909 25.0098L27.4454 24.3293Z" fill="#ffffff"/>
<path d="M29.5141 24.5203L28.8336 24.4658L28.752 25.1463L29.4324 25.2007L29.5141 24.5203Z" fill="#ffffff"/>
<path d="M29.6495 24.52L29.4862 25.2005H29.459L29.5134 24.52H29.6495Z" fill="#ffffff"/>
<path d="M23.9068 24.738L23.2263 24.6836L23.1719 25.3641L23.8523 25.4185L23.9068 24.738Z" fill="#ffffff"/>
<path d="M25.2959 24.8464L24.6155 24.792L24.561 25.4725L25.2415 25.5269L25.2959 24.8464Z" fill="#ffffff"/>
<path d="M26.6832 24.9558L26.0027 24.9014L25.9482 25.5818L26.6287 25.6363L26.6832 24.9558Z" fill="#ffffff"/>
<path d="M27.3628 25.0369L26.6824 24.9824L26.6279 25.6629L27.3084 25.7173L27.3628 25.0369Z" fill="#ffffff"/>
<path d="M28.0704 25.0915L27.3899 25.0371L27.3354 25.7176L28.0159 25.772L28.0704 25.0915Z" fill="#ffffff"/>
<path d="M28.7515 25.1462L28.071 25.0918L28.0166 25.7723L28.6971 25.8267L28.7515 25.1462Z" fill="#ffffff"/>
<path d="M29.4589 25.2004L29.4317 25.391L29.3228 25.8809L28.6968 25.8265L28.7512 25.146L29.4589 25.2004Z" fill="#ffffff"/>
<path d="M29.4861 25.2002L29.4316 25.3907L29.4589 25.2002H29.4861Z" fill="#ffffff"/>
<path d="M22.4634 25.3093L21.783 25.2549L21.7285 25.9354L22.409 25.9898L22.4634 25.3093Z" fill="#ffffff"/>
<path d="M23.8521 25.4182L23.1716 25.3638L23.1172 26.0442L23.7977 26.0987L23.8521 25.4182Z" fill="#ffffff"/>
<path d="M24.5318 25.4724L23.8513 25.418L23.7969 26.0984L24.4773 26.1529L24.5318 25.4724Z" fill="#ffffff"/>
<path d="M25.2406 25.5544L24.5602 25.5L24.4785 26.1805L25.159 26.2349L25.2406 25.5544Z" fill="#ffffff"/>
<path d="M25.9205 25.6086L25.24 25.5542L25.1855 26.2347L25.866 26.2891L25.9205 25.6086Z" fill="#ffffff"/>
<path d="M28.0171 25.7722L27.3367 25.7178L27.2822 26.3982L27.9627 26.4527L28.0171 25.7722Z" fill="#ffffff"/>
<path d="M28.6968 25.8264L28.0164 25.772L27.9619 26.4524L28.6424 26.5069L28.6968 25.8264Z" fill="#ffffff"/>
<path d="M29.3221 25.8806L29.1588 26.5611L28.6416 26.5339L28.696 25.8262L29.3221 25.8806Z" fill="#ffffff"/>
<path d="M21.7022 25.9353L21.0217 25.8809L20.9673 26.5613L21.6478 26.6158L21.7022 25.9353Z" fill="#ffffff"/>
<path d="M23.0914 26.071L22.4109 26.0166L22.3564 26.6971L23.0369 26.7515L23.0914 26.071Z" fill="#ffffff"/>
<path d="M25.8658 26.2888L25.1853 26.2344L25.1309 26.9148L25.8113 26.9693L25.8658 26.2888Z" fill="#ffffff"/>
<path d="M27.9633 26.4797L27.2828 26.4253L27.2012 27.1058L27.8816 27.1602L27.9633 26.4797Z" fill="#ffffff"/>
<path d="M21.647 26.6433L20.9665 26.5889L20.9121 27.2693L21.5926 27.3238L21.647 26.6433Z" fill="#ffffff"/>
<path d="M22.356 26.6975L21.6755 26.6431L21.6211 27.3235L22.3016 27.378L22.356 26.6975Z" fill="#ffffff"/>
<path d="M24.4234 26.8611L23.7429 26.8066L23.6885 27.4871L24.3689 27.5416L24.4234 26.8611Z" fill="#ffffff"/>
<path d="M25.1309 26.9421L24.4504 26.8877L24.396 27.5682L25.0765 27.6226L25.1309 26.9421Z" fill="#ffffff"/>
<path d="M27.1991 27.1057L26.4915 27.0513L26.437 27.7317L27.1175 27.7862L27.1991 27.1057Z" fill="#ffffff"/>
<path d="M27.8809 27.1599L27.2004 27.1055L27.146 27.7859L27.8265 27.8404L27.8809 27.1599Z" fill="#ffffff"/>
<path d="M28.587 27.2146L27.9065 27.1602L27.8521 27.8406L28.5325 27.8951L28.587 27.2146Z" fill="#ffffff"/>
<path d="M28.9974 27.2693L28.8341 27.9498L28.5347 27.9225L28.5891 27.2148L28.9974 27.2693Z" fill="#ffffff"/>
<path d="M21.5923 27.3235L20.9119 27.269L20.8574 27.9495L21.5379 28.004L21.5923 27.3235Z" fill="#ffffff"/>
<path d="M23.6612 27.5144L22.9807 27.46L22.9263 28.1404L23.6067 28.1949L23.6612 27.5144Z" fill="#ffffff"/>
<path d="M25.0499 27.6228L24.3694 27.5684L24.3149 28.2488L24.9954 28.3033L25.0499 27.6228Z" fill="#ffffff"/>
<path d="M26.4371 27.7322L25.7566 27.6777L25.7021 28.3582L26.3826 28.4126L26.4371 27.7322Z" fill="#ffffff"/>
<path d="M27.146 27.7859L26.4656 27.7314L26.4111 28.4119L27.0916 28.4664L27.146 27.7859Z" fill="#ffffff"/>
<path d="M28.8338 27.9496L28.6705 28.6301L28.48 28.6028L28.5344 27.9224L28.8338 27.9496Z" fill="#ffffff"/>
<path d="M22.9263 28.1399L22.2458 28.0854L22.1914 28.7659L22.8719 28.8204L22.9263 28.1399Z" fill="#ffffff"/>
<path d="M27.0909 28.4939L26.4104 28.4395L26.356 29.1199L27.0364 29.1744L27.0909 28.4939Z" fill="#ffffff"/>
<path d="M27.771 28.5486L27.0906 28.4941L27.0361 29.1746L27.7166 29.2291L27.771 28.5486Z" fill="#ffffff"/>
<path d="M28.48 28.6028L27.7996 28.5483L27.7451 29.2288L28.4256 29.2832L28.48 28.6028Z" fill="#ffffff"/>
<path d="M22.1651 28.7664L21.4846 28.7119L21.4302 29.3924L22.1106 29.4468L22.1651 28.7664Z" fill="#ffffff"/>
<path d="M24.2613 28.9568L23.5808 28.9023L23.5264 29.5828L24.2068 29.6373L24.2613 28.9568Z" fill="#ffffff"/>
<path d="M24.9415 29.011L24.261 28.9565L24.2065 29.637L24.887 29.6915L24.9415 29.011Z" fill="#ffffff"/>
<path d="M28.3975 29.3103L28.3703 29.8547L28.3431 29.9908H28.3159L27.6626 29.9363L27.717 29.2559L28.3975 29.3103Z" fill="#ffffff"/>
<path d="M28.5072 29.3105L28.3711 29.8549L28.3983 29.3105H28.5072Z" fill="#ffffff"/>
<path d="M18.0952 10.2483L17.9116 12.418L20.0813 12.6015L20.2649 10.4318L18.0952 10.2483Z" fill="#ffffff"/>
<path d="M16.7753 8.65137L16.3398 13.7413L21.4298 14.1768L21.8653 9.08687L16.7753 8.65137ZM20.6677 13.2514L17.2653 12.9792L17.5647 9.57681L20.9398 9.849L20.6677 13.2514Z" fill="#ffffff"/>
<path d="M16.8853 8.7876L16.4771 13.6326L21.322 14.0408L21.7303 9.19588L16.8853 8.7876ZM20.6688 13.2515L17.2664 12.9793L17.5658 9.57695L20.941 9.84913L20.6688 13.2515Z" fill="#ffffff"/>
<path d="M32.0166 9.93066L31.5811 15.0206L31.9077 15.0478L31.9349 14.9389L32.697 11.7543L32.7787 10.8561H32.9148L33.0781 10.1484L33.1053 10.0395L32.0166 9.93066Z" fill="#ffffff"/>
<path d="M32.127 10.0664L31.7188 14.9114L31.9637 14.9386L32.7259 11.754L32.8075 10.8558H32.9436L33.1069 10.1481L32.127 10.0664Z" fill="#ffffff"/>
<path d="M16.8012 25.4856L16.6177 27.6553L18.7873 27.8388L18.9709 25.6691L16.8012 25.4856Z" fill="#ffffff"/>
<path d="M15.4687 23.8936L15.0332 28.9835L20.1231 29.419L20.5859 24.3291L15.4687 23.8936ZM19.361 28.4936L15.9586 28.2214L16.2581 24.819L19.6604 25.1184L19.361 28.4936Z" fill="#ffffff"/>
<path d="M15.6051 24.0303L15.1968 28.8752L20.0417 29.2835L20.45 24.4386L15.6051 24.0303ZM19.3613 28.4942L15.9589 28.222L16.2583 24.8196L19.6607 25.119L19.3613 28.4942Z" fill="#ffffff"/>
<path d="M18.0952 10.2483L17.9116 12.418L20.0813 12.6015L20.2649 10.4318L18.0952 10.2483Z" fill="#ffffff"/>
<path d="M16.8012 25.4856L16.6177 27.6553L18.7873 27.8388L18.9709 25.6691L16.8012 25.4856Z" fill="#ffffff"/>
<path d="M24.9673 17.9603L24.5046 17.9331L24.2324 21.1722L24.6951 21.1994L24.8585 19.3485L25.4301 21.2538L25.9472 21.3083L24.9673 17.9603Z" fill="#ffffff"/>
<path d="M27.3897 18.1778L26.5187 20.5187L25.7838 18.0417L25.2666 17.9873L26.2737 21.3352L26.7092 21.3624L27.1991 20.0287L27.0903 21.3897L27.553 21.4169L27.8252 18.1778H27.3897Z" fill="#ffffff"/>
<path d="M54.066 33.0668C53.6578 34.7544 53.2495 36.2787 52.9228 37.8301C52.8684 38.1296 53.1406 38.5923 53.3856 38.8917C54.1477 39.8988 54.9915 40.8514 55.8625 41.9402C55.3725 42.3757 54.9643 42.7568 54.4471 43.2195C52.7595 41.1781 51.1536 39.2455 49.5205 37.313C47.9418 35.4349 46.3903 33.5568 44.7844 31.7059C44.1856 31.0254 43.4779 30.5627 42.498 31.1343C41.4909 31.7059 41.2459 32.5769 41.8992 33.829C43.5323 36.8503 45.2471 39.8716 46.9075 42.8656C47.343 43.6278 47.724 44.4171 48.214 45.152C49.5477 47.1118 50.1465 49.4798 50.0104 51.8479C49.8471 55.223 51.072 58.0266 54.0116 59.9047C54.0933 59.9591 54.1477 60.0408 54.2021 60.1224C54.5832 60.7757 54.0116 61.5923 53.2495 61.4834C53.1406 61.4562 53.0589 61.4289 52.9501 61.4017C50.7726 60.2313 49.4388 58.326 48.4862 55.5497C48.1595 56.0668 48.0507 56.3934 47.8057 56.6384C46.8258 57.6455 45.6282 58.1354 44.24 57.8088C38.3335 56.4207 32.427 55.0325 26.5205 53.5355C24.2886 52.9639 23.227 50.9769 23.7986 48.6361C26.4933 37.3946 29.2152 26.1532 31.9371 14.939C32.3454 13.2515 32.6992 11.5639 33.1347 9.90355C33.7607 7.58994 35.6933 6.36509 38.0069 6.90947C43.6956 8.2432 49.3844 9.60414 55.0731 11.0195C57.6317 11.6456 58.7205 13.5509 58.0944 16.2183C57.0329 20.7639 55.9441 25.3094 54.8009 29.8278C54.5288 30.8621 54.6649 31.4065 55.6992 31.8148C56.6518 32.1958 57.5228 32.8219 58.5027 33.1757C61.8779 34.4278 63.0483 37.1497 63.2933 40.4159C63.5382 43.8183 63.7015 47.1935 63.8648 50.5958C64.0009 53.7804 64.0826 56.9378 64.2187 60.1224C64.2459 60.8301 64.2731 61.6195 63.3477 61.7011C62.3406 61.7556 62.3134 60.9118 62.2861 60.1769C62.0412 54.3248 61.7962 48.4727 61.524 42.6479C61.4968 41.7497 61.4424 40.8242 61.3063 39.926C61.0069 37.6941 60.1359 35.8704 57.8222 34.9994C56.5974 34.455 55.427 33.7473 54.066 33.0668ZM51.2625 36.3331C52.6779 30.4538 54.0388 24.9012 55.3998 19.1852C48.2684 17.4704 41.2732 15.7828 34.1418 14.0408C31.6104 24.5473 29.1063 34.9177 26.5749 45.4514C33.7063 47.1662 40.6743 48.8538 48.1051 50.6502C47.8873 49.5071 47.8873 48.6088 47.5335 47.8739C46.7714 46.2952 45.8187 44.7982 44.9477 43.2467C43.2601 40.2254 41.5453 37.2585 39.9666 34.1828C39.0684 32.4136 39.64 30.6988 41.1643 29.61C42.6885 28.5485 44.2672 28.6302 45.7643 29.9367C46.2814 30.3722 46.6897 30.9165 47.1524 31.4337C48.4862 32.9852 49.7927 34.5367 51.2625 36.3331ZM26.3028 47.3295C25.0235 50.2692 25.4862 51.2491 28.3442 51.9568C33.3525 53.1816 38.4152 54.2704 43.3962 55.6313C45.6282 56.2301 47.2069 55.7674 47.2069 52.3923C40.2661 50.7047 33.3252 49.0443 26.3028 47.3295ZM55.6992 17.2527C56.7879 14.6124 56.4885 13.3331 54.6649 12.8704C49.0033 11.455 43.3418 10.0941 37.653 8.76036C36.3465 8.46095 35.4483 9.03255 35.0672 10.3118C34.9039 10.8562 34.7951 11.455 34.6317 12.1627C41.7359 13.8775 48.7311 15.5651 55.6992 17.2527Z" fill="#ffffff"/>
<path d="M27.4451 0.757812C32.7528 0.839469 37.5433 1.84657 42.0072 4.18739C42.3611 4.37793 42.8238 4.51402 43.0416 4.81343C43.096 4.89509 43.1504 5.00396 43.2049 5.11284C43.5587 5.84775 42.8783 6.69153 42.1161 6.41934C42.1161 6.41934 42.1161 6.41934 42.0889 6.41934C39.367 5.43946 36.754 4.02408 33.9777 3.42527C26.1386 1.71047 18.6534 2.79923 11.9031 7.42644C8.14693 9.98502 5.56113 13.4418 5.20729 18.1235C4.82622 23.2951 7.33036 27.1601 11.2499 30.2359C14.8156 33.0122 18.9528 34.4004 23.3623 35.0809C23.7161 35.1353 24.1516 35.0808 24.4238 35.2714C24.5327 35.353 24.6416 35.4619 24.7505 35.5708C25.1587 36.0335 25.0226 36.7956 24.4511 37.0406C24.3694 37.0678 24.2877 37.0951 24.2333 37.0678C16.7481 36.1696 10.1067 33.5566 5.72445 27.0513C1.39664 20.6004 2.7848 12.7069 8.90906 7.37201C14.3256 2.66314 20.7493 0.921126 27.4451 0.757812Z" fill="#ffffff"/>
<path d="M47.6422 14.2311L43.7499 13.224C43.2327 13.0879 42.9061 12.5707 43.0422 12.0536C43.1783 11.5364 43.6954 11.2098 44.2126 11.3459L48.1049 12.353C48.6221 12.4891 48.9487 13.0062 48.8126 13.5234C48.6765 14.0678 48.1593 14.3672 47.6422 14.2311Z" fill="#ffffff"/>
<path d="M28.3164 29.9906L28.3708 29.8545L28.3436 29.9906H28.3164Z" fill="#ffffff"/>
<path d="M30.4663 21.0901L30.5207 20.9268L30.4935 21.0901H30.4663Z" fill="#ffffff"/>
</g>
<defs>
<filter id="filter0_d" x="0.210938" y="0.757812" width="67.017" height="66.9458" filterUnits="userSpaceOnUse" color-interpolation-filters="sRGB">
<feFlood flood-opacity="0" result="BackgroundImageFix"/>
<feColorMatrix in="SourceAlpha" type="matrix" values="0 0 0 0 0 0 0 0 0 0 0 0 0 0 0 0 0 0 127 0"/>
<feOffset dy="3"/>
<feGaussianBlur stdDeviation="1.5"/>
<feColorMatrix type="matrix" values="0 0 0 0 0 0 0 0 0 0 0 0 0 0 0 0 0 0 0.16 0"/>
<feBlend mode="normal" in2="BackgroundImageFix" result="effect1_dropShadow"/>
<feBlend mode="normal" in="SourceGraphic" in2="effect1_dropShadow" result="shape"/>
</filter>
</defs>
</svg>