<svg xmlns="http://www.w3.org/2000/svg" width="66" height="65" viewBox="0 0 66 65" fill="none">
<g filter="url(#filter0_d)">
<path d="M18.3049 46.0554C18.0038 42.7715 16.4929 40.3685 14.9596 37.9042C11.9266 33.0926 8.7152 27.9967 15.9632 14.9447C16.2257 14.4474 16.0361 13.8314 15.5395 13.5676C15.0472 13.2934 14.4258 13.4703 14.1516 13.9626C14.1515 13.9629 14.1514 13.9631 14.1512 13.9634C6.3122 28.0636 9.85815 33.678 13.2034 38.9914C14.6251 41.2216 15.9911 43.4517 16.2699 46.2394C16.3207 46.8014 16.8174 47.2158 17.3794 47.1649C17.9414 47.1141 18.3558 46.6174 18.3049 46.0554Z" fill="#ffffff"/>
<path d="M42.9365 14.984C42.6117 15.877 42.153 16.7156 41.5761 17.4706C40.5596 18.8402 39.0825 19.7966 37.4168 20.1636C35.6439 20.5483 33.5141 20.3085 31.0832 19.2102C27.5651 17.6212 23.4672 14.2871 18.9623 8.54999C21.527 8.28795 26.0821 7.46279 29.4775 4.88138C32.3488 2.69582 34.9414 1.89296 37.0879 2.09368C38.0102 2.167 38.9051 2.44298 39.7083 2.90211C40.501 3.36153 41.1932 3.97593 41.7434 4.70854C42.6252 5.90948 43.21 7.30236 43.4494 8.77301C44.1767 8.90989 44.894 9.09611 45.596 9.33055C45.3989 7.20409 44.6281 5.17102 43.3658 3.4485C42.6464 2.49497 41.7418 1.69657 40.7063 1.10126C39.6416 0.492702 38.4554 0.127234 37.2329 0.0307797C34.6124 -0.186661 31.5348 0.733281 28.2174 3.25894C24.0582 6.42019 17.797 6.60418 17.0276 6.60418C16.4623 6.5671 15.9739 6.99529 15.9368 7.56064C15.9209 7.80275 15.9913 8.04263 16.1355 8.23777C21.3541 15.2126 26.1322 19.1934 30.2357 21.0612C33.1015 22.3491 35.6606 22.6223 37.8406 22.1763C39.9879 21.7046 41.8915 20.4706 43.1985 18.7028C43.8847 17.7948 44.4317 16.7895 44.821 15.72L44.6593 15.6419C44.1043 15.3751 43.528 15.155 42.9365 14.984Z" fill="#ffffff"/>
<path d="M57.7341 23.81C49.4268 9.96626 42.792 10.2227 36.5197 10.4681C33.8547 10.574 31.2621 10.6743 28.7141 9.49793C28.1822 9.31185 27.6002 9.59229 27.4142 10.1242C27.2541 10.5822 27.4386 11.0897 27.8555 11.3378C30.8495 12.7149 33.6818 12.609 36.5922 12.4919C42.2791 12.2912 48.3005 12.057 55.9779 24.8582C56.2674 25.3431 56.8952 25.5017 57.3801 25.2122C57.865 24.9228 58.0236 24.295 57.7341 23.81Z" fill="#ffffff"/>
<path d="M25.5246 39.131C25.2124 36.0088 24.1642 33.656 22.6644 32.0001C21.1874 30.3776 19.1735 29.3441 16.9943 29.0897C15.8665 28.9487 14.724 28.9768 13.6044 29.1733C13.6044 29.2347 13.6044 29.2904 13.6044 29.3518C13.6526 29.9724 13.7534 30.588 13.9055 31.1916C14.8384 31.0231 15.7915 30.9968 16.7322 31.1136C18.4227 31.3022 19.9885 32.094 21.1424 33.3437C22.3578 34.6874 23.2164 36.65 23.484 39.3039C23.8687 43.1397 23.0324 48.3527 20.3284 55.1491C18.8174 53.0528 15.8234 49.518 11.8928 47.8677C8.54753 46.4682 6.56826 44.6339 5.65389 42.6881C5.2526 41.8621 5.03753 40.9581 5.02387 40.0398C5.02847 39.1213 5.21817 38.2129 5.58141 37.3692C6.18007 36.0043 7.09332 34.8007 8.24645 33.8567C8.01187 33.1528 7.82551 32.4338 7.68891 31.7046C5.94465 32.9379 4.56864 34.6223 3.70808 36.5775C3.24183 37.6722 3.00098 38.8499 3 40.0398C3.00502 41.267 3.281 42.4778 3.80843 43.5858C4.92351 45.9665 7.27076 48.1743 11.1066 49.7856C16.2249 51.9266 19.6258 57.7863 19.6593 57.8476C19.9378 58.3376 20.5606 58.5089 21.0505 58.2305C21.247 58.1187 21.4011 57.9449 21.488 57.7361C24.9169 49.7354 25.9762 43.6081 25.5246 39.131Z" fill="#ffffff"/>
<path d="M54.5523 37.2327C54.2274 36.7708 53.5897 36.6597 53.1278 36.9846C50.4349 38.8858 49.1135 41.4003 47.7531 43.9817C45.0992 48.9996 42.2948 54.3464 27.3694 54.575C26.8059 54.5842 26.3567 55.0485 26.3659 55.612C26.3751 56.1755 26.8394 56.6248 27.4029 56.6156C43.5437 56.348 46.638 50.4826 49.5651 44.9072C50.8028 42.56 52.0127 40.2629 54.3042 38.6572C54.7661 38.3324 54.8772 37.6946 54.5523 37.2327Z" fill="#ffffff"/>
<path d="M62.258 28.4763C62.068 28.3678 61.8483 28.3229 61.6311 28.3482L61.659 28.376C53.0116 29.4019 47.1741 31.554 43.4944 34.1968C40.9464 36.0311 39.4299 38.0995 38.7497 40.2349C38.083 42.3236 38.1938 44.583 39.0619 46.5964C39.5053 47.6441 40.1028 48.6193 40.8349 49.4901L40.9798 49.3897C41.4936 49.0371 41.9767 48.6418 42.4239 48.2077C41.8136 47.4874 41.3156 46.6792 40.9464 45.8103C40.2693 44.2396 40.1841 42.4768 40.7067 40.8482C41.2642 39.1198 42.5298 37.4026 44.6986 35.8303C47.8264 33.6002 52.7551 31.699 59.992 30.6452C58.9382 33.0036 57.3715 37.3357 57.9123 41.5842C58.3695 45.1691 57.773 47.8119 56.5408 49.5849C56.0168 50.3458 55.3315 50.9815 54.5337 51.447C53.7378 51.9041 52.8578 52.1961 51.9467 52.3057C50.4642 52.4682 48.9644 52.2771 47.57 51.7481C47.0805 52.3058 46.5533 52.8293 45.9921 53.3148C47.9311 54.2069 50.0758 54.5556 52.1976 54.324C53.3761 54.1798 54.5136 53.8007 55.5428 53.2089C56.6028 52.5903 57.5129 51.7449 58.2078 50.7334C59.7076 48.5701 60.438 45.4479 59.9251 41.3165C59.2226 35.7969 62.6291 29.8925 62.6403 29.8758C62.9212 29.3838 62.75 28.7573 62.258 28.4763Z" fill="#ffffff"/>
</g>
<defs>
<filter id="filter0_d" x="0" y="0" width="65.7754" height="64.3639" filterUnits="userSpaceOnUse" color-interpolation-filters="sRGB">
<feFlood flood-opacity="0" result="BackgroundImageFix"/>
<feColorMatrix in="SourceAlpha" type="matrix" values="0 0 0 0 0 0 0 0 0 0 0 0 0 0 0 0 0 0 127 0"/>
<feOffset dy="3"/>
<feGaussianBlur stdDeviation="1.5"/>
<feColorMatrix type="matrix" values="0 0 0 0 0 0 0 0 0 0 0 0 0 0 0 0 0 0 0.16 0"/>
<feBlend mode="normal" in2="BackgroundImageFix" result="effect1_dropShadow"/>
<feBlend mode="normal" in="SourceGraphic" in2="effect1_dropShadow" result="shape"/>
</filter>
</defs>
</svg>