<svg xmlns="http://www.w3.org/2000/svg" width="53" height="54" viewBox="0 0 53 54" fill="none">
<g filter="url(#filter0_d)">
<path d="M37.2561 47.8387H7.92052C5.2236 47.8387 3.03125 45.6444 3.03125 42.9495V13.6139C3.03125 10.9189 5.2236 8.72461 7.92052 8.72461H25.5219C26.0616 8.72461 26.4997 9.16269 26.4997 9.70246C26.4997 10.2422 26.0616 10.6803 25.5219 10.6803H7.92052C6.30315 10.6803 4.98696 11.9965 4.98696 13.6139V42.9495C4.98696 44.5668 6.30315 45.883 7.92052 45.883H37.2561C38.8735 45.883 40.1897 44.5668 40.1897 42.9495V25.3481C40.1897 24.8083 40.6277 24.3703 41.1675 24.3703C41.7073 24.3703 42.1454 24.8083 42.1454 25.3481V42.9495C42.1454 45.6444 39.953 47.8387 37.2561 47.8387Z" fill="#ffffff"/>
<path d="M20.1873 31.6612C19.9311 31.6612 19.6808 31.5595 19.495 31.3757C19.2642 31.1449 19.1625 30.8124 19.2271 30.4917L20.6098 23.5763C20.6489 23.3866 20.7388 23.2125 20.8777 23.0776L41.6219 2.33343C43.5287 0.426617 46.6304 0.426617 48.5353 2.33343C49.4603 3.25652 49.9688 4.48471 49.9688 5.79112C49.9688 7.09753 49.4603 8.32571 48.5372 9.24881L27.7931 29.993C27.6581 30.1299 27.4841 30.2218 27.2924 30.2609L20.379 31.6416C20.3164 31.6553 20.2519 31.6612 20.1873 31.6612ZM22.4716 24.251L21.4351 29.4376L26.6196 28.401L47.1526 7.86612C47.708 7.3107 48.0131 6.57536 48.0131 5.79112C48.0131 5.00688 47.708 4.27154 47.1546 3.71611C46.0124 2.57203 44.1486 2.57203 43.0065 3.71611L22.4716 24.251ZM27.1027 29.3007H27.1223H27.1027Z" fill="#ffffff"/>
<path d="M45.0794 12.3014C44.8291 12.3014 44.5787 12.2056 44.3871 12.0159L38.8563 6.48316C38.475 6.1018 38.475 5.48184 38.8563 5.10048C39.2377 4.71911 39.8577 4.71911 40.239 5.10048L45.7698 10.6332C46.1511 11.0145 46.1511 11.6345 45.7698 12.0159C45.5801 12.2056 45.3297 12.3014 45.0794 12.3014Z" fill="#ffffff"/>
</g>
<defs>
<filter id="filter0_d" x="0.03125" y="0.90332" width="52.9376" height="52.9354" filterUnits="userSpaceOnUse" color-interpolation-filters="sRGB">
<feFlood flood-opacity="0" result="BackgroundImageFix"/>
<feColorMatrix in="SourceAlpha" type="matrix" values="0 0 0 0 0 0 0 0 0 0 0 0 0 0 0 0 0 0 127 0"/>
<feOffset dy="3"/>
<feGaussianBlur stdDeviation="1.5"/>
<feColorMatrix type="matrix" values="0 0 0 0 0 0 0 0 0 0 0 0 0 0 0 0 0 0 0.16 0"/>
<feBlend mode="normal" in2="BackgroundImageFix" result="effect1_dropShadow"/>
<feBlend mode="normal" in="SourceGraphic" in2="effect1_dropShadow" result="shape"/>
</filter>
</defs>
</svg>