<svg xmlns="http://www.w3.org/2000/svg" width="69" height="69" viewBox="0 0 69 69" fill="none">
<g filter="url(#filter0_d)">
<path d="M59.5382 50.1998C58.6457 49.5143 57.4687 49.3073 56.3951 49.6307L43.9905 53.2783C42.8005 53.6275 41.5717 53.8086 40.33 53.8086H37.6783C35.4794 53.8086 33.3064 53.2524 31.392 52.1788L28.7403 50.7043H36.2814C36.4754 50.7043 36.941 50.6913 37.4843 50.5361C37.7559 50.4585 38.5062 50.2127 39.0882 49.5401C39.7996 48.7252 39.9419 47.6904 39.8902 47.0437C39.7479 45.4527 38.2345 43.9781 36.1132 43.5513C32.0258 42.6329 27.9255 41.7145 23.838 40.7962C22.3635 40.4987 20.876 40.3693 19.3755 40.3823H19.078C16.4005 40.4081 13.7618 40.9384 11.2783 41.9215V40.3564C11.2783 39.8519 10.9161 39.4121 10.4117 39.3345L4.20294 38.2997C3.90544 38.2609 3.595 38.3385 3.36218 38.5326C3.12935 38.7266 3 39.0112 3 39.3216V60.0174C3 60.5865 3.46565 61.0521 4.03479 61.0521C4.08653 61.0521 4.1512 61.0521 4.20294 61.0392L10.4117 60.0044C10.9161 59.9268 11.2783 59.487 11.2783 58.9826V57.9478H12.132C13.516 57.9478 14.8871 58.1677 16.1935 58.5945L21.7555 60.4183C25.0927 61.5178 28.5981 62.074 32.1163 62.074H36.7082C40.4335 62.074 44.1199 61.4531 47.6382 60.2243L58.581 56.4085C60.0039 55.9041 60.9611 54.5588 60.9611 53.0455C60.9611 51.9331 60.4307 50.8724 59.5382 50.1998ZM9.22166 58.103L5.08251 58.8015V40.5375L9.22166 41.2359V58.103ZM57.8955 54.4554L45.3228 58.892C43.2274 59.6293 41.0155 60.0044 38.7907 60.0044H30.1502C29.0896 60.0044 28.0419 59.9139 27.0071 59.7457C25.5842 59.5129 24.5365 59.1766 23.9415 58.9955C22.0789 58.4005 19.5825 57.5856 16.5816 56.5896C15.12 56.111 13.5936 55.8653 12.0544 55.8653H11.2783V44.1463L12.5847 43.616C14.5896 42.814 16.7239 42.4001 18.8711 42.4001H19.8412C20.9536 42.4001 22.066 42.5036 23.1525 42.7235L34.962 45.0905C36.0485 45.3104 37.0445 45.8408 37.8335 46.6298C38.0534 46.8497 38.1699 47.1472 38.1699 47.4576C38.1699 48.1044 37.6525 48.6217 37.0057 48.6217H24.7176C24.1485 48.6217 23.6828 49.0874 23.6828 49.6565C23.6828 50.0316 23.8898 50.368 24.2132 50.549C26.6061 51.8425 28.999 53.136 31.392 54.4295C33.1511 55.3867 35.0914 55.8782 37.0704 55.8782H40.3429C42.0632 55.8782 43.7706 55.6324 45.4134 55.128L56.6408 51.7649C57.1711 51.4415 57.8179 51.4933 58.2965 51.8555C58.9562 52.347 59.0984 53.2912 58.594 53.9509C58.4129 54.1837 58.1801 54.3648 57.8955 54.4554Z" fill="white"/>
<path d="M34.0564 39.3219C43.1884 39.3219 50.613 29.5691 50.613 17.5914V5.17394C50.613 4.70828 50.3026 4.29437 49.8498 4.17796L34.328 0.0388045C34.1469 -0.0129348 33.9658 -0.0129348 33.7977 0.0388045L18.2759 4.17796C17.8231 4.29437 17.5127 4.70828 17.5127 5.17394V17.5914C17.4998 29.5691 24.9244 39.3219 34.0564 39.3219ZM19.5694 5.9759L34.0564 2.10838L48.5434 5.9759V17.5914C48.5434 28.4308 42.0501 37.2524 34.0564 37.2524C26.0626 37.2524 19.5694 28.4308 19.5694 17.5914V5.9759Z" fill="white"/>
<path d="M29.9171 23.7999V26.9043C29.9171 28.0425 30.8484 28.9738 31.9867 28.9738H36.1258C37.2641 28.9738 38.1954 28.0425 38.1954 26.9043V23.7999H41.2998C42.438 23.7999 43.3693 22.8686 43.3693 21.7303V17.5912C43.3693 16.4529 42.438 15.5216 41.2998 15.5216H38.1954V12.4172C38.1954 11.279 37.2641 10.3477 36.1258 10.3477H31.9867C30.8484 10.3477 29.9171 11.279 29.9171 12.4172V15.5216H26.8127C25.6745 15.5216 24.7432 16.4529 24.7432 17.5912V21.7303C24.7432 22.8686 25.6745 23.7999 26.8127 23.7999H29.9171ZM26.8127 17.5912H29.9171C31.0554 17.5912 31.9867 16.6599 31.9867 15.5216V12.4172H36.1258V15.5216C36.1258 16.6599 37.0571 17.5912 38.1954 17.5912H41.2998V21.7303H38.1954C37.0571 21.7303 36.1258 22.6616 36.1258 23.7999V26.9043H31.9867V23.7999C31.9867 22.6616 31.0554 21.7303 29.9171 21.7303H26.8127V17.5912Z" fill="white"/>
<path d="M54.7512 6.20873H56.8208V4.13915H58.8904V2.06958H56.8208V0H54.7512V2.06958H52.6816V4.13915H54.7512V6.20873Z" fill="white"/>
<path d="M65.0998 8.27856H63.0303V6.20898H60.9607V8.27856H58.8911V10.3481H60.9607V12.4177H63.0303V10.3481H65.0998V8.27856Z" fill="white"/>
<path d="M50.6125 32.0781V34.1477H48.543V36.2173H50.6125V38.2869H52.6821V36.2173H54.7517V34.1477H52.6821V32.0781H50.6125Z" fill="white"/>
<path d="M58.8911 25.8691H56.8215V27.9387H54.752V30.0083H56.8215V32.0779H58.8911V30.0083H60.9607V27.9387H58.8911V25.8691Z" fill="white"/>
<path d="M11.2908 6.20873H13.3603V4.13915H15.4299V2.06958H13.3603V0H11.2908V2.06958H9.22119V4.13915H11.2908V6.20873Z" fill="white"/>
<path d="M5.08129 12.4177H7.15087V10.3481H9.22045V8.27856H7.15087V6.20898H5.08129V8.27856H3.01172V10.3481H5.08129V12.4177Z" fill="white"/>
<path d="M15.4319 32.0781V34.1477H13.3623V36.2173H15.4319V38.2869H17.5015V36.2173H19.571V34.1477H17.5015V32.0781H15.4319Z" fill="white"/>
<path d="M11.292 32.0779V30.0083H13.3616V27.9387H11.292V25.8691H9.22241V27.9387H7.15283V30.0083H9.22241V32.0779H11.292Z" fill="white"/>
</g>
<defs>
<filter id="filter0_d" x="0" y="0" width="68.0998" height="68.074" filterUnits="userSpaceOnUse" color-interpolation-filters="sRGB">
<feFlood flood-opacity="0" result="BackgroundImageFix"/>
<feColorMatrix in="SourceAlpha" type="matrix" values="0 0 0 0 0 0 0 0 0 0 0 0 0 0 0 0 0 0 127 0"/>
<feOffset dy="3"/>
<feGaussianBlur stdDeviation="1.5"/>
<feColorMatrix type="matrix" values="0 0 0 0 0 0 0 0 0 0 0 0 0 0 0 0 0 0 0.16 0"/>
<feBlend mode="normal" in2="BackgroundImageFix" result="effect1_dropShadow"/>
<feBlend mode="normal" in="SourceGraphic" in2="effect1_dropShadow" result="shape"/>
</filter>
</defs>
</svg>