<svg xmlns="http://www.w3.org/2000/svg" width="67" height="67" viewBox="0 0 67 67" fill="none">
<g filter="url(#filter0_d)">
<path d="M19.726 41.3227C21.3533 41.3227 22.6776 39.9984 22.6776 38.371C22.6776 36.7437 21.3533 35.4194 19.726 35.4194C18.0987 35.4194 16.7744 36.7437 16.7744 38.371C16.7744 39.9984 18.0987 41.3227 19.726 41.3227ZM19.726 37.3872C20.2691 37.3872 20.7099 37.8289 20.7099 38.371C20.7099 38.9132 20.2691 39.3549 19.726 39.3549C19.1829 39.3549 18.7422 38.9132 18.7422 38.371C18.7422 37.8289 19.1829 37.3872 19.726 37.3872Z" fill="#ffffff"/>
<path d="M18.7422 33.4519H20.7099C21.7951 33.4519 22.6776 32.5694 22.6776 31.4842V21.6455C22.6776 20.5603 21.7951 19.6777 20.7099 19.6777H18.7422C17.6569 19.6777 16.7744 20.5603 16.7744 21.6455V31.4842C16.7744 32.5694 17.6569 33.4519 18.7422 33.4519ZM18.7422 21.6455H20.7099L20.7109 31.4842H18.7422V21.6455Z" fill="#ffffff"/>
<path d="M56.129 13.7742V3.93548C56.129 1.76506 54.364 0 52.1936 0H13.8226C11.11 0 8.90323 2.20682 8.90323 4.91935V15.7419H6.93548C4.76506 15.7419 3 17.507 3 19.6774V41.3226C3 43.493 4.76506 45.2581 6.93548 45.2581H8.90323V56.0806C8.90323 58.7932 11.11 61 13.8226 61H59.0806C61.7932 61 64 58.7932 64 56.0806V13.7742H56.129ZM4.96774 41.3226V19.6774C4.96774 18.5922 5.85027 17.7097 6.93548 17.7097H32.5161C33.6013 17.7097 34.4839 18.5922 34.4839 19.6774V41.3226C34.4839 42.4078 33.6013 43.2903 32.5161 43.2903H21.91L19.9944 50.9517C19.9334 51.1987 19.5202 51.1987 19.4582 50.9517L17.5416 43.2903H6.93548C5.85027 43.2903 4.96774 42.4078 4.96774 41.3226ZM30.5484 45.2581H32.5161C33.9664 45.2581 35.2218 44.4611 35.9046 43.2903H48.2581V53.129H30.5484V45.2581ZM32.5161 15.7419H28.5806V7.87097H48.2581V19.6774H36.4516C36.4516 17.507 34.6865 15.7419 32.5161 15.7419ZM10.871 56.0806V45.2581H16.0068L17.5495 51.4289C17.7994 52.4305 18.6947 53.129 19.7258 53.129C20.7569 53.129 21.6522 52.4305 21.9021 51.4289L23.4448 45.2581H28.5806V55.0968H50.2258V41.3226H36.4516V39.3548H42.3548V37.3871H36.4516V35.4194H50.2258V33.4516H36.4516V31.4839H42.3548V29.5161H36.4516V27.5484H50.2258V25.5806H36.4516V21.6452H50.2258V5.90323H26.6129V15.7419H10.871V4.91935C10.871 3.29203 12.1953 1.96774 13.8226 1.96774H52.1936C53.2788 1.96774 54.1613 2.85027 54.1613 3.93548V56.0806C54.1613 57.1924 54.546 58.2078 55.1707 59.0323H13.8226C12.1953 59.0323 10.871 57.708 10.871 56.0806ZM62.0323 56.0806C62.0323 57.708 60.708 59.0323 59.0806 59.0323C57.4533 59.0323 56.129 57.708 56.129 56.0806V15.7419H58.0968V53.129H60.0645V15.7419H62.0323V56.0806Z" fill="#ffffff"/>
<path d="M44.3218 29.5161H50.225V31.4839H44.3218V29.5161Z" fill="#ffffff"/>
<path d="M44.3218 37.3872H50.225V39.3549H44.3218V37.3872Z" fill="#ffffff"/>
</g>
<defs>
<filter id="filter0_d" x="0" y="0" width="67" height="67" filterUnits="userSpaceOnUse" color-interpolation-filters="sRGB">
<feFlood flood-opacity="0" result="BackgroundImageFix"/>
<feColorMatrix in="SourceAlpha" type="matrix" values="0 0 0 0 0 0 0 0 0 0 0 0 0 0 0 0 0 0 127 0"/>
<feOffset dy="3"/>
<feGaussianBlur stdDeviation="1.5"/>
<feColorMatrix type="matrix" values="0 0 0 0 0 0 0 0 0 0 0 0 0 0 0 0 0 0 0.16 0"/>
<feBlend mode="normal" in2="BackgroundImageFix" result="effect1_dropShadow"/>
<feBlend mode="normal" in="SourceGraphic" in2="effect1_dropShadow" result="shape"/>
</filter>
</defs>
</svg>