<svg xmlns="http://www.w3.org/2000/svg" width="71" height="61" viewBox="0 0 71 61" fill="none">
<g filter="url(#filter0_d)">
<path d="M51.211 6.25518C51.2038 6.10398 51.1652 5.95594 51.0974 5.82055C51.0297 5.68516 50.9345 5.56542 50.8178 5.46899C47.17 2.44579 42.7016 0.582327 37.9867 0.118038C37.2055 0.0403419 36.4111 0.00149422 35.6171 0.00081506C35.6113 0.00081506 35.6056 0 35.5997 0C35.5939 0 35.5883 0.00081506 35.5825 0.00081506C34.7882 0.00081506 33.9939 0.0403419 33.2133 0.118038C29.6704 0.465739 26.2506 1.60375 23.2058 3.44827C20.1611 5.29278 17.5688 7.79681 15.62 10.7759L15.6117 10.788C12.8107 15.0578 11.45 20.1122 11.7291 25.2111C12.0082 30.3101 13.9122 35.1858 17.1625 39.1244C17.2588 39.2412 17.3785 39.3366 17.5139 39.4044C17.6493 39.4723 17.7973 39.5111 17.9486 39.5183C17.9658 39.5191 17.9829 39.5194 18.0002 39.5194C18.2883 39.5194 18.5647 39.405 18.7684 39.2013L50.8944 7.07506C51.0014 6.96799 51.0848 6.83975 51.1393 6.69856C51.1938 6.55738 51.2182 6.40636 51.211 6.25518ZM32.0757 22.8197H25.4048C25.497 20.046 25.9499 17.2961 26.7522 14.6394C29.3265 14.9732 31.9176 15.1615 34.5131 15.2034V20.3824L32.0757 22.8197ZM13.8968 22.8197C14.0698 19.2248 15.138 15.7299 17.0044 12.6526C19.4956 13.3521 22.0243 13.9103 24.5785 14.3243C23.773 17.088 23.3201 19.9424 23.2306 22.8197H13.8968ZM33.8349 2.24543C34.0602 2.22723 34.2863 2.21134 34.5131 2.2002V13.0301C32.1575 12.991 29.8056 12.8274 27.4672 12.54C28.9083 8.73104 31.0703 5.23571 33.8349 2.24543ZM29.9026 24.993L25.8074 29.0881C25.5863 27.733 25.4521 26.3652 25.4056 24.993H29.9026ZM36.6864 15.2035C37.7278 15.1869 38.7701 15.1465 39.8134 15.0822L36.6864 18.2091V15.2035ZM42.1843 12.7111C40.3657 12.8926 38.5227 12.9996 36.6864 13.0298V2.20047C36.9135 2.21161 37.1398 2.22764 37.3656 2.2457C39.886 4.97569 41.9085 8.12629 43.3412 11.5545L42.1843 12.7111ZM30.5332 2.76689C28.2776 5.61693 26.4973 8.81272 25.2612 12.2307C22.9156 11.8633 20.5913 11.3706 18.2983 10.7547C21.3255 6.7524 25.6512 3.92828 30.5332 2.76689ZM18.1001 36.7954C15.5725 33.3582 14.1103 29.2542 13.8951 24.993H23.2306C23.2945 26.9958 23.5336 28.9892 23.9453 30.9503L18.1001 36.7954ZM44.9941 9.90077C43.8508 7.35313 42.3968 4.95666 40.6652 2.76594C43.4917 3.43999 46.1529 4.67819 48.4891 6.40623L44.9941 9.90077Z" fill="#ffffff"/>
<path d="M55.5888 10.7889C55.1103 10.0612 54.5924 9.36 54.0376 8.68858C53.9412 8.57186 53.8215 8.47658 53.6861 8.40883C53.5507 8.34109 53.4027 8.30237 53.2515 8.29518C53.1003 8.28798 52.9492 8.31245 52.808 8.36702C52.6668 8.4216 52.5386 8.50508 52.4315 8.6121L20.3056 40.7377C20.1985 40.8447 20.115 40.9729 20.0604 41.1141C20.0058 41.2553 19.9814 41.4063 19.9885 41.5575C19.9957 41.7087 20.0344 41.8568 20.1021 41.9922C20.1698 42.1276 20.2651 42.2473 20.3818 42.3437C24.0296 45.3669 28.4979 47.2304 33.2129 47.6947C34.7291 47.8441 36.256 47.8509 37.7735 47.7149V53.246C37.7736 53.4646 37.8395 53.6781 37.9628 53.8586C38.0861 54.0392 38.2609 54.1783 38.4645 54.2579C38.6681 54.3375 38.891 54.3539 39.104 54.3048C39.317 54.2558 39.5103 54.1436 39.6586 53.983L49.4041 43.4254C54.4628 39.8468 57.9348 34.4444 59.0885 28.3563C60.2422 22.2682 58.9875 15.97 55.5888 10.7888V10.7889ZM48.0599 41.7139C47.9965 41.7585 47.9379 41.8097 47.8853 41.8667L39.9468 50.4667V46.4937C39.9469 46.338 39.9134 46.1841 39.8488 46.0424C39.7841 45.9008 39.6898 45.7747 39.5722 45.6727C39.4545 45.5707 39.3164 45.4951 39.167 45.4511C39.0176 45.4072 38.8606 45.3958 38.7064 45.4179C38.3774 45.465 38.0718 45.5022 37.7718 45.532C36.3274 45.6747 34.8725 45.6747 33.4281 45.532C29.5487 45.1502 25.8451 43.7245 22.711 41.4065L53.1 11.0173C53.334 11.3342 53.5582 11.656 53.7727 11.9828C56.8722 16.7088 58.0092 22.4561 56.9427 28.0063C55.8763 33.5565 52.6902 38.4731 48.0599 41.7139Z" fill="#ffffff"/>
<path d="M35.5996 36.9462C36.7999 36.9462 37.7729 35.9732 37.7729 34.7729C37.7729 33.5726 36.7999 32.5996 35.5996 32.5996C34.3993 32.5996 33.4263 33.5726 33.4263 34.7729C33.4263 35.9732 34.3993 36.9462 35.5996 36.9462Z" fill="#ffffff"/>
<path d="M42.1196 36.9462C43.3199 36.9462 44.2929 35.9732 44.2929 34.7729C44.2929 33.5726 43.3199 32.5996 42.1196 32.5996C40.9193 32.5996 39.9463 33.5726 39.9463 34.7729C39.9463 35.9732 40.9193 36.9462 42.1196 36.9462Z" fill="#ffffff"/>
<path d="M48.6396 36.9462C49.8399 36.9462 50.8129 35.9732 50.8129 34.7729C50.8129 33.5726 49.8399 32.5996 48.6396 32.5996C47.4393 32.5996 46.4663 33.5726 46.4663 34.7729C46.4663 35.9732 47.4393 36.9462 48.6396 36.9462Z" fill="#ffffff"/>
<path d="M11.6922 38.5846C11.4062 38.5489 11.1178 38.6282 10.8903 38.8051C10.6628 38.9821 10.5149 39.2421 10.4792 39.5281L10.3874 40.2616C6.51117 34.8003 4.70078 28.1397 5.27905 21.4676C5.85732 14.7955 8.78664 8.54575 13.5447 3.83276C13.6467 3.73247 13.7279 3.61303 13.7836 3.48129C13.8394 3.34955 13.8685 3.2081 13.8695 3.06505C13.8704 2.92201 13.8431 2.78018 13.7891 2.64771C13.7352 2.51524 13.6555 2.39474 13.5549 2.29311C13.4542 2.19148 13.3344 2.11073 13.2025 2.05549C13.0705 2.00024 12.929 1.9716 12.7859 1.9712C12.6429 1.97079 12.5012 1.99864 12.3689 2.05313C12.2366 2.10763 12.1164 2.1877 12.0152 2.28876C6.90281 7.35244 3.75044 14.0641 3.11785 21.2319C2.48527 28.3996 4.41342 35.5597 8.5599 41.4405L7.64168 41.3046C7.50051 41.2837 7.35661 41.2908 7.21819 41.3255C7.07977 41.3603 6.94954 41.4219 6.83493 41.5069C6.60348 41.6787 6.44974 41.9353 6.40751 42.2204C6.36529 42.5055 6.43806 42.7957 6.6098 43.0272C6.78154 43.2586 7.03819 43.4124 7.32329 43.4546L10.9907 43.9979C11.134 44.0191 11.28 44.0115 11.4202 43.9755C11.5604 43.9395 11.692 43.8758 11.8073 43.7882C11.9226 43.7006 12.0192 43.5909 12.0915 43.4654C12.1638 43.34 12.2102 43.2013 12.2282 43.0577L12.6357 39.7977C12.6534 39.6561 12.643 39.5124 12.6052 39.3748C12.5674 39.2372 12.5028 39.1084 12.4152 38.9958C12.3276 38.8831 12.2186 38.7888 12.0946 38.7183C11.9705 38.6477 11.8338 38.6023 11.6922 38.5846Z" fill="#ffffff"/>
<path d="M62.5672 5.43307C62.8554 5.43307 63.1318 5.31859 63.3356 5.1148C63.5394 4.91101 63.6538 4.63462 63.6538 4.34642C63.6538 4.05822 63.5394 3.78183 63.3356 3.57804C63.1318 3.37425 62.8554 3.25977 62.5672 3.25977H59.3072C59.019 3.25977 58.7426 3.37425 58.5388 3.57804C58.3351 3.78183 58.2206 4.05822 58.2206 4.34642V7.60638C58.2206 7.89458 58.3351 8.17097 58.5388 8.37476C58.7426 8.57855 59.019 8.69303 59.3072 8.69303C59.5954 8.69303 59.8718 8.57855 60.0756 8.37476C60.2794 8.17097 60.3939 7.89458 60.3939 7.60638V7.24805C64.3529 12.6715 66.2509 19.3277 65.7476 26.0235C65.2444 32.7194 62.3728 39.0171 57.6476 43.7879C57.4448 43.9926 57.3316 44.2696 57.333 44.5578C57.3344 44.846 57.4502 45.1218 57.655 45.3247C57.8597 45.5275 58.1367 45.6407 58.4249 45.6393C58.7131 45.6379 58.9889 45.5221 59.1918 45.3173C64.3611 40.0981 67.4676 33.185 67.9379 25.8542C68.4082 18.5234 66.2104 11.27 61.7504 5.43307H62.5672Z" fill="#ffffff"/>
</g>
<defs>
<filter id="filter0_d" x="0" y="0" width="71.0003" height="60.3325" filterUnits="userSpaceOnUse" color-interpolation-filters="sRGB">
<feFlood flood-opacity="0" result="BackgroundImageFix"/>
<feColorMatrix in="SourceAlpha" type="matrix" values="0 0 0 0 0 0 0 0 0 0 0 0 0 0 0 0 0 0 127 0"/>
<feOffset dy="3"/>
<feGaussianBlur stdDeviation="1.5"/>
<feColorMatrix type="matrix" values="0 0 0 0 0 0 0 0 0 0 0 0 0 0 0 0 0 0 0.16 0"/>
<feBlend mode="normal" in2="BackgroundImageFix" result="effect1_dropShadow"/>
<feBlend mode="normal" in="SourceGraphic" in2="effect1_dropShadow" result="shape"/>
</filter>
</defs>
</svg>