<svg xmlns="http://www.w3.org/2000/svg" width="55" height="55" viewBox="0 0 55 55" fill="none">
<g filter="url(#filter0_d)">
<path d="M26.8349 31.4199C26.9593 31.5443 27.107 31.643 27.2696 31.7104C27.4322 31.7777 27.6065 31.8124 27.7825 31.8124C27.9584 31.8124 28.1327 31.7777 28.2953 31.7104C28.4579 31.643 28.6056 31.5443 28.73 31.4199L33.7837 26.3662C34.035 26.1149 34.1762 25.774 34.1762 25.4186C34.1762 25.0632 34.035 24.7224 33.7837 24.4711C33.5324 24.2197 33.1916 24.0786 32.8362 24.0786C32.4808 24.0786 32.1399 24.2197 31.8886 24.4711L29.1225 27.2371V12.6047C29.1225 12.2493 28.9813 11.9085 28.73 11.6571C28.4787 11.4058 28.1379 11.2646 27.7825 11.2646C27.427 11.2646 27.0862 11.4058 26.8349 11.6571C26.5836 11.9085 26.4424 12.2493 26.4424 12.6047V27.2371L23.6763 24.4711C23.425 24.2197 23.0841 24.0786 22.7287 24.0786C22.3733 24.0786 22.0325 24.2197 21.7812 24.4711C21.5299 24.7224 21.3887 25.0632 21.3887 25.4186C21.3887 25.774 21.5299 26.1149 21.7812 26.3662L26.8349 31.4199Z" fill="#ffffff"/>
<path d="M39.3961 22.8779C39.0407 22.8779 38.6998 23.0191 38.4485 23.2704C38.1972 23.5217 38.056 23.8626 38.056 24.218V34.4919H17.5083V24.218C17.5083 23.8626 17.3671 23.5217 17.1158 23.2704C16.8645 23.0191 16.5236 22.8779 16.1682 22.8779C15.8128 22.8779 15.4719 23.0191 15.2206 23.2704C14.9693 23.5217 14.8281 23.8626 14.8281 24.218V34.9386C14.8281 35.5309 15.0634 36.099 15.4823 36.5179C15.9011 36.9367 16.4692 37.172 17.0616 37.172H38.5027C39.0951 37.172 39.6632 36.9367 40.082 36.5179C40.5009 36.099 40.7362 35.5309 40.7362 34.9386V24.218C40.7362 23.8626 40.595 23.5217 40.3437 23.2704C40.0924 23.0191 39.7515 22.8779 39.3961 22.8779Z" fill="#ffffff"/>
<circle cx="27.5" cy="24.5" r="23.25" stroke="#ffffff" stroke-width="2.5"/>
<path d="M11.4487 7.88477L44.1154 40.5514" stroke="#ffffff" stroke-width="2.5"/>
</g>
<defs>
<filter id="filter0_d" x="0" y="0" width="55" height="55" filterUnits="userSpaceOnUse" color-interpolation-filters="sRGB">
<feFlood flood-opacity="0" result="BackgroundImageFix"/>
<feColorMatrix in="SourceAlpha" type="matrix" values="0 0 0 0 0 0 0 0 0 0 0 0 0 0 0 0 0 0 127 0"/>
<feOffset dy="3"/>
<feGaussianBlur stdDeviation="1.5"/>
<feColorMatrix type="matrix" values="0 0 0 0 0 0 0 0 0 0 0 0 0 0 0 0 0 0 0.16 0"/>
<feBlend mode="normal" in2="BackgroundImageFix" result="effect1_dropShadow"/>
<feBlend mode="normal" in="SourceGraphic" in2="effect1_dropShadow" result="shape"/>
</filter>
</defs>
</svg>