<svg xmlns="http://www.w3.org/2000/svg" width="74" height="68" viewBox="0 0 74 68" fill="none">
<g filter="url(#filter0_d)">
<path d="M6.90514 60.209C7.02074 60.8775 7.64972 61.3245 8.31012 61.2075L18.2227 59.4523C18.8831 59.3353 19.3247 58.6987 19.2091 58.0302L19.0159 56.9099L21.3279 55.0095C22.2337 54.2456 23.398 53.8694 24.573 53.9588L40.738 55.1547C40.7653 55.1571 40.792 55.1577 40.8192 55.1583H40.9188C44.4858 55.1505 47.9586 54.0002 50.8391 51.8705C50.8853 51.8363 50.9292 51.7985 50.9707 51.7577L70.2243 32.6751C70.6838 32.2202 70.7128 31.4822 70.2919 30.9913C68.07 28.3954 64.2262 28.0246 61.5603 30.1482L52.7166 36.8419C50.8776 34.5767 47.9775 33.4876 45.1243 33.9904L36.0844 35.5908C34.6438 35.844 33.1659 35.766 31.7591 35.3628L30.7484 35.0705C25.5535 33.5602 19.9567 34.7363 15.7844 38.2149L15.4038 36.0114C15.2882 35.343 14.6592 34.8959 13.9988 35.0129L4.08687 36.7681C3.42647 36.8857 2.98481 37.5224 3.10041 38.1909L6.90514 60.209ZM30.0844 37.4354L31.0952 37.727C32.8541 38.2317 34.7019 38.3289 36.5029 38.0127L45.5428 36.4123C48.1329 35.9568 50.6885 37.3802 51.6945 39.8387L38.1616 42.2347C37.5403 42.3439 37.1052 42.9158 37.1597 43.5513C37.2137 44.1867 37.7389 44.6746 38.3691 44.6746C38.4396 44.6746 38.5102 44.6686 38.5801 44.656L53.4392 42.0253C54.0996 41.9077 54.5413 41.271 54.4257 40.6025C54.329 40.0427 54.1743 39.4942 53.9644 38.9668L63.0263 32.108C63.0346 32.1014 63.0429 32.0948 63.0512 32.0882C64.3601 31.0405 66.1801 30.9433 67.5904 31.8464L49.3345 49.9449C46.8838 51.7355 43.9404 52.7034 40.9182 52.7112H40.8726L24.749 51.5135C22.9528 51.3755 21.1737 51.9485 19.7871 53.1127L18.5363 54.1394L16.2794 41.0784C19.8784 37.4036 25.1705 36.0072 30.0844 37.4354ZM13.2216 37.646L16.6084 57.2429L9.0879 58.5751L5.70112 38.9782L13.2216 37.646Z" fill="#ffffff"/>
<path d="M40.0812 32.6653C49.0435 32.6653 56.3089 25.4005 56.3089 16.4382C56.3089 7.47595 49.0441 0.210544 40.0818 0.209961C31.1195 0.209961 23.8541 7.47537 23.8535 16.4377C23.8634 25.3959 31.123 32.6554 40.0812 32.6653ZM40.0812 2.60006C47.7236 2.60006 53.9188 8.79588 53.9188 16.4382C53.9188 24.0806 47.7236 30.2758 40.0812 30.2753C32.4388 30.2753 26.2436 24.08 26.2436 16.4377C26.2524 8.79879 32.4429 2.60881 40.0812 2.60006Z" fill="#ffffff"/>
<path d="M39.3823 18.3849H46.0326C46.6891 18.3849 47.2213 17.8279 47.2213 17.141C47.2213 16.454 46.6891 15.8971 46.0326 15.8971H40.5112V7.94482C40.5112 7.25728 39.9789 6.70093 39.3225 6.70093C38.666 6.70093 38.1338 7.25728 38.1338 7.94482V17.079C38.1576 17.7896 38.7026 18.3606 39.3823 18.3849Z" fill="#ffffff"/>
</g>
<defs>
<filter id="filter0_d" x="0.0820312" y="0.209961" width="73.5072" height="67.0162" filterUnits="userSpaceOnUse" color-interpolation-filters="sRGB">
<feFlood flood-opacity="0" result="BackgroundImageFix"/>
<feColorMatrix in="SourceAlpha" type="matrix" values="0 0 0 0 0 0 0 0 0 0 0 0 0 0 0 0 0 0 127 0"/>
<feOffset dy="3"/>
<feGaussianBlur stdDeviation="1.5"/>
<feColorMatrix type="matrix" values="0 0 0 0 0 0 0 0 0 0 0 0 0 0 0 0 0 0 0.16 0"/>
<feBlend mode="normal" in2="BackgroundImageFix" result="effect1_dropShadow"/>
<feBlend mode="normal" in="SourceGraphic" in2="effect1_dropShadow" result="shape"/>
</filter>
</defs>
</svg>