<svg xmlns="http://www.w3.org/2000/svg" width="312" height="695" fill="none"><path d="M2.431 8.08a4.035 4.035 0 004.04-4.04A4.035 4.035 0 002.43 0a4.035 4.035 0 00-4.04 4.04 4.035 4.035 0 004.04 4.04zM21.473 8.08a4.035 4.035 0 004.04-4.04A4.035 4.035 0 0021.473 0a4.035 4.035 0 00-4.04 4.04 4.035 4.035 0 004.04 4.04zM2.431 27.118a4.035 4.035 0 004.04-4.04 4.035 4.035 0 00-4.04-4.04 4.035 4.035 0 00-4.04 4.04 4.035 4.035 0 004.04 4.04zM21.473 27.118a4.035 4.035 0 004.04-4.04 4.035 4.035 0 00-4.04-4.04 4.035 4.035 0 00-4.04 4.04 4.035 4.035 0 004.04 4.04zM2.431 46.157a4.035 4.035 0 004.04-4.04 4.035 4.035 0 00-4.04-4.04 4.035 4.035 0 00-4.04 4.04 4.035 4.035 0 004.04 4.04zM21.473 46.157a4.035 4.035 0 004.04-4.04 4.035 4.035 0 00-4.04-4.04 4.035 4.035 0 00-4.04 4.04 4.035 4.035 0 004.04 4.04zM40.509 46.157a4.035 4.035 0 004.04-4.04 4.035 4.035 0 00-4.04-4.04 4.035 4.035 0 00-4.04 4.04 4.035 4.035 0 004.04 4.04zM2.431 65.196a4.035 4.035 0 004.04-4.04 4.035 4.035 0 00-4.04-4.04 4.035 4.035 0 00-4.04 4.04 4.035 4.035 0 004.04 4.04zM21.473 65.196a4.035 4.035 0 004.04-4.04 4.035 4.035 0 00-4.04-4.04 4.035 4.035 0 00-4.04 4.04 4.035 4.035 0 004.04 4.04zM40.509 65.196a4.035 4.035 0 004.04-4.04 4.035 4.035 0 00-4.04-4.04 4.035 4.035 0 00-4.04 4.04 4.035 4.035 0 004.04 4.04zM59.592 65.196a4.035 4.035 0 004.04-4.04 4.035 4.035 0 00-4.04-4.04 4.035 4.035 0 00-4.04 4.04c-.043 2.235 1.762 4.04 4.04 4.04zM2.431 84.278a4.035 4.035 0 004.04-4.04 4.035 4.035 0 00-4.04-4.04 4.035 4.035 0 00-4.04 4.04c0 2.192 1.805 4.04 4.04 4.04zM21.473 84.278a4.035 4.035 0 004.04-4.04 4.035 4.035 0 00-4.04-4.04 4.035 4.035 0 00-4.04 4.04c0 2.192 1.806 4.04 4.04 4.04zM40.509 84.278a4.035 4.035 0 004.04-4.04 4.035 4.035 0 00-4.04-4.04 4.035 4.035 0 00-4.04 4.04c0 2.192 1.805 4.04 4.04 4.04zM59.592 84.278a4.035 4.035 0 004.04-4.04 4.035 4.035 0 00-4.04-4.04 4.035 4.035 0 00-4.04 4.04c-.043 2.192 1.762 4.04 4.04 4.04zM78.632 84.278a4.035 4.035 0 004.04-4.04 4.035 4.035 0 00-4.04-4.04 4.035 4.035 0 00-4.04 4.04c-.043 2.192 1.762 4.04 4.04 4.04zM2.431 103.317a4.036 4.036 0 004.04-4.04 4.035 4.035 0 00-4.04-4.04 4.035 4.035 0 00-4.04 4.04 4.036 4.036 0 004.04 4.04zM21.473 103.317a4.036 4.036 0 004.04-4.04 4.035 4.035 0 00-4.04-4.04 4.035 4.035 0 00-4.04 4.04 4.036 4.036 0 004.04 4.04zM40.509 103.317a4.036 4.036 0 004.04-4.04 4.035 4.035 0 00-4.04-4.04 4.035 4.035 0 00-4.04 4.04 4.036 4.036 0 004.04 4.04zM59.592 103.317a4.036 4.036 0 004.04-4.04 4.035 4.035 0 00-4.04-4.04 4.035 4.035 0 00-4.04 4.04c-.043 2.234 1.762 4.04 4.04 4.04zM78.632 103.317a4.036 4.036 0 004.04-4.04 4.035 4.035 0 00-4.04-4.04 4.035 4.035 0 00-4.04 4.04c-.043 2.234 1.762 4.04 4.04 4.04zM97.667 103.317a4.036 4.036 0 004.04-4.04 4.035 4.035 0 00-4.04-4.04 4.035 4.035 0 00-4.04 4.04c-.043 2.234 1.805 4.04 4.04 4.04zM2.431 122.356a4.035 4.035 0 004.04-4.04 4.035 4.035 0 00-4.04-4.04 4.035 4.035 0 00-4.04 4.04 4.035 4.035 0 004.04 4.04zM21.473 122.356a4.035 4.035 0 004.04-4.04 4.035 4.035 0 00-4.04-4.04 4.035 4.035 0 00-4.04 4.04 4.035 4.035 0 004.04 4.04zM40.509 122.356a4.035 4.035 0 004.04-4.04 4.035 4.035 0 00-4.04-4.04 4.035 4.035 0 00-4.04 4.04 4.035 4.035 0 004.04 4.04zM59.592 122.356a4.035 4.035 0 004.04-4.04 4.035 4.035 0 00-4.04-4.04 4.035 4.035 0 00-4.04 4.04c-.043 2.235 1.762 4.04 4.04 4.04zM78.631 122.313a4.04 4.04 0 100-8.08 4.04 4.04 0 000 8.08zM97.667 122.356a4.035 4.035 0 004.04-4.04 4.035 4.035 0 00-4.04-4.04 4.035 4.035 0 00-4.04 4.04c-.043 2.235 1.805 4.04 4.04 4.04zM116.708 122.356a4.035 4.035 0 004.039-4.04 4.035 4.035 0 00-4.039-4.04 4.035 4.035 0 00-4.04 4.04c-.043 2.235 1.805 4.04 4.04 4.04zM2.431 141.395a4.035 4.035 0 004.04-4.04 4.035 4.035 0 00-4.04-4.04 4.035 4.035 0 00-4.04 4.04 4.035 4.035 0 004.04 4.04zM21.473 141.395a4.035 4.035 0 004.04-4.04 4.035 4.035 0 00-4.04-4.04 4.035 4.035 0 00-4.04 4.04 4.035 4.035 0 004.04 4.04zM40.509 141.395a4.035 4.035 0 004.04-4.04 4.035 4.035 0 00-4.04-4.04 4.035 4.035 0 00-4.04 4.04 4.035 4.035 0 004.04 4.04zM59.592 141.395a4.035 4.035 0 004.04-4.04 4.035 4.035 0 00-4.04-4.04 4.035 4.035 0 00-4.04 4.04c-.043 2.235 1.762 4.04 4.04 4.04zM78.632 141.395a4.035 4.035 0 004.04-4.04 4.035 4.035 0 00-4.04-4.04 4.035 4.035 0 00-4.04 4.04c-.043 2.235 1.762 4.04 4.04 4.04zM97.667 141.395a4.035 4.035 0 004.04-4.04 4.035 4.035 0 00-4.04-4.04 4.035 4.035 0 00-4.04 4.04c-.043 2.235 1.805 4.04 4.04 4.04zM116.708 141.395a4.035 4.035 0 004.039-4.04 4.035 4.035 0 00-4.039-4.04 4.035 4.035 0 00-4.04 4.04c-.043 2.235 1.805 4.04 4.04 4.04zM135.749 141.395a4.035 4.035 0 004.04-4.04 4.035 4.035 0 00-4.04-4.04 4.036 4.036 0 00-4.04 4.04 4.036 4.036 0 004.04 4.04zM2.431 160.433a4.035 4.035 0 004.04-4.04 4.035 4.035 0 00-4.04-4.039 4.035 4.035 0 00-4.04 4.039 4.035 4.035 0 004.04 4.04zM21.473 160.433a4.035 4.035 0 004.04-4.04 4.035 4.035 0 00-4.04-4.039 4.035 4.035 0 00-4.04 4.039 4.035 4.035 0 004.04 4.04zM40.509 160.433a4.035 4.035 0 004.04-4.04 4.035 4.035 0 00-4.04-4.039 4.035 4.035 0 00-4.04 4.039 4.035 4.035 0 004.04 4.04zM59.592 160.433a4.035 4.035 0 004.04-4.04 4.035 4.035 0 00-4.04-4.039 4.035 4.035 0 00-4.04 4.039c-.043 2.235 1.762 4.04 4.04 4.04zM78.632 160.433a4.035 4.035 0 004.04-4.04 4.035 4.035 0 00-4.04-4.039 4.035 4.035 0 00-4.04 4.039c-.043 2.235 1.762 4.04 4.04 4.04zM97.667 160.433a4.035 4.035 0 004.04-4.04 4.035 4.035 0 00-4.04-4.039 4.035 4.035 0 00-4.04 4.039c-.043 2.235 1.805 4.04 4.04 4.04zM116.708 160.433a4.035 4.035 0 004.039-4.04 4.035 4.035 0 00-4.039-4.039 4.035 4.035 0 00-4.04 4.039c-.043 2.235 1.805 4.04 4.04 4.04zM135.749 160.433a4.035 4.035 0 004.04-4.04 4.035 4.035 0 00-4.04-4.039 4.036 4.036 0 00-4.04 4.039 4.036 4.036 0 004.04 4.04zM154.787 160.433a4.035 4.035 0 004.04-4.04 4.035 4.035 0 00-4.04-4.039 4.035 4.035 0 00-4.04 4.039 4.035 4.035 0 004.04 4.04zM2.431 179.472a4.035 4.035 0 004.04-4.04 4.035 4.035 0 00-4.04-4.039 4.035 4.035 0 00-4.04 4.039 4.035 4.035 0 004.04 4.04zM21.473 179.472a4.035 4.035 0 004.04-4.04 4.035 4.035 0 00-4.04-4.039 4.035 4.035 0 00-4.04 4.039 4.035 4.035 0 004.04 4.04zM40.509 179.472a4.035 4.035 0 004.04-4.04 4.035 4.035 0 00-4.04-4.039 4.035 4.035 0 00-4.04 4.039 4.035 4.035 0 004.04 4.04zM59.592 179.472a4.035 4.035 0 004.04-4.04 4.035 4.035 0 00-4.04-4.039 4.035 4.035 0 00-4.04 4.039c-.043 2.235 1.762 4.04 4.04 4.04zM78.632 179.472a4.035 4.035 0 004.04-4.04 4.035 4.035 0 00-4.04-4.039 4.035 4.035 0 00-4.04 4.039c-.043 2.235 1.762 4.04 4.04 4.04zM97.667 179.472a4.035 4.035 0 004.04-4.04 4.035 4.035 0 00-4.04-4.039 4.035 4.035 0 00-4.04 4.039c-.043 2.235 1.805 4.04 4.04 4.04zM116.708 179.472a4.035 4.035 0 004.039-4.04 4.035 4.035 0 00-4.039-4.039 4.035 4.035 0 00-4.04 4.039c-.043 2.235 1.805 4.04 4.04 4.04zM135.749 179.472a4.035 4.035 0 004.04-4.04 4.035 4.035 0 00-4.04-4.039 4.036 4.036 0 00-4.04 4.039 4.036 4.036 0 004.04 4.04zM154.787 179.472a4.035 4.035 0 004.04-4.04 4.035 4.035 0 00-4.04-4.039 4.035 4.035 0 00-4.04 4.039 4.035 4.035 0 004.04 4.04zM173.827 179.472a4.035 4.035 0 004.04-4.04 4.035 4.035 0 00-4.04-4.039 4.035 4.035 0 00-4.04 4.039 4.035 4.035 0 004.04 4.04zM2.431 198.511a4.035 4.035 0 004.04-4.04 4.035 4.035 0 00-4.04-4.04 4.035 4.035 0 00-4.04 4.04 4.035 4.035 0 004.04 4.04zM21.473 198.511a4.035 4.035 0 004.04-4.04 4.035 4.035 0 00-4.04-4.04 4.035 4.035 0 00-4.04 4.04 4.035 4.035 0 004.04 4.04zM40.509 198.511a4.035 4.035 0 004.04-4.04 4.035 4.035 0 00-4.04-4.04 4.035 4.035 0 00-4.04 4.04 4.035 4.035 0 004.04 4.04zM59.591 198.511a4.035 4.035 0 004.04-4.04 4.035 4.035 0 00-4.04-4.04 4.035 4.035 0 00-4.04 4.04 4.008 4.008 0 004.04 4.04zM78.631 198.511a4.035 4.035 0 004.04-4.04 4.035 4.035 0 00-4.04-4.04 4.035 4.035 0 00-4.04 4.04 4.008 4.008 0 004.04 4.04zM97.666 198.511a4.035 4.035 0 004.04-4.04 4.035 4.035 0 00-4.04-4.04 4.035 4.035 0 00-4.04 4.04 4.035 4.035 0 004.04 4.04zM116.707 198.511a4.035 4.035 0 004.04-4.04 4.035 4.035 0 00-4.04-4.04 4.035 4.035 0 00-4.04 4.04 4.035 4.035 0 004.04 4.04zM135.749 198.511a4.035 4.035 0 004.04-4.04 4.035 4.035 0 00-4.04-4.04 4.036 4.036 0 00-4.04 4.04 4.036 4.036 0 004.04 4.04zM154.787 198.511a4.035 4.035 0 004.04-4.04 4.035 4.035 0 00-4.04-4.04 4.035 4.035 0 00-4.04 4.04 4.035 4.035 0 004.04 4.04zM173.827 198.511a4.035 4.035 0 004.04-4.04 4.035 4.035 0 00-4.04-4.04 4.035 4.035 0 00-4.04 4.04 4.035 4.035 0 004.04 4.04zM192.865 198.511a4.035 4.035 0 004.04-4.04 4.035 4.035 0 00-4.04-4.04 4.035 4.035 0 00-4.04 4.04 4.035 4.035 0 004.04 4.04zM2.431 217.55a4.035 4.035 0 004.04-4.04 4.035 4.035 0 00-4.04-4.04 4.035 4.035 0 00-4.04 4.04 4.035 4.035 0 004.04 4.04zM21.473 217.55a4.035 4.035 0 004.04-4.04 4.035 4.035 0 00-4.04-4.04 4.035 4.035 0 00-4.04 4.04 4.035 4.035 0 004.04 4.04zM40.509 217.55a4.035 4.035 0 004.04-4.04 4.035 4.035 0 00-4.04-4.04 4.035 4.035 0 00-4.04 4.04 4.035 4.035 0 004.04 4.04zM59.592 217.55a4.035 4.035 0 004.04-4.04 4.035 4.035 0 00-4.04-4.04 4.035 4.035 0 00-4.04 4.04c-.043 2.235 1.762 4.04 4.04 4.04zM78.631 217.55a4.04 4.04 0 100-8.08 4.04 4.04 0 000 8.08zM97.667 217.55a4.035 4.035 0 004.04-4.04 4.035 4.035 0 00-4.04-4.04 4.035 4.035 0 00-4.04 4.04c-.043 2.235 1.805 4.04 4.04 4.04zM116.708 217.55a4.035 4.035 0 004.039-4.04 4.035 4.035 0 00-4.039-4.04 4.035 4.035 0 00-4.04 4.04c-.043 2.235 1.805 4.04 4.04 4.04zM135.749 217.55a4.035 4.035 0 004.04-4.04 4.035 4.035 0 00-4.04-4.04 4.036 4.036 0 00-4.04 4.04 4.036 4.036 0 004.04 4.04zM154.787 217.55a4.035 4.035 0 004.04-4.04 4.035 4.035 0 00-4.04-4.04 4.035 4.035 0 00-4.04 4.04 4.035 4.035 0 004.04 4.04zM177.57 215.061a4.04 4.04 0 10-7.457-3.11 4.04 4.04 0 007.457 3.11zM192.865 217.55a4.035 4.035 0 004.04-4.04 4.035 4.035 0 00-4.04-4.04 4.035 4.035 0 00-4.04 4.04 4.035 4.035 0 004.04 4.04zM211.945 217.55a4.035 4.035 0 004.04-4.04 4.035 4.035 0 00-4.04-4.04 4.035 4.035 0 00-4.04 4.04c-.043 2.235 1.762 4.04 4.04 4.04zM2.431 236.632a4.035 4.035 0 004.04-4.04 4.035 4.035 0 00-4.04-4.04 4.035 4.035 0 00-4.04 4.04c0 2.192 1.805 4.04 4.04 4.04zM21.473 236.632a4.035 4.035 0 004.04-4.04 4.035 4.035 0 00-4.04-4.04 4.035 4.035 0 00-4.04 4.04c0 2.192 1.806 4.04 4.04 4.04zM40.509 236.632a4.035 4.035 0 004.04-4.04 4.035 4.035 0 00-4.04-4.04 4.035 4.035 0 00-4.04 4.04c0 2.192 1.805 4.04 4.04 4.04zM59.592 236.632a4.035 4.035 0 004.04-4.04 4.035 4.035 0 00-4.04-4.04 4.035 4.035 0 00-4.04 4.04c-.043 2.192 1.762 4.04 4.04 4.04zM78.632 236.632a4.035 4.035 0 004.04-4.04 4.035 4.035 0 00-4.04-4.04 4.035 4.035 0 00-4.04 4.04c-.043 2.192 1.762 4.04 4.04 4.04zM97.667 236.632a4.035 4.035 0 004.04-4.04 4.035 4.035 0 00-4.04-4.04 4.035 4.035 0 00-4.04 4.04c-.043 2.192 1.805 4.04 4.04 4.04zM116.708 236.632a4.035 4.035 0 004.039-4.04 4.035 4.035 0 00-4.039-4.04 4.035 4.035 0 00-4.04 4.04c-.043 2.192 1.805 4.04 4.04 4.04zM135.749 236.632a4.035 4.035 0 004.04-4.04 4.035 4.035 0 00-4.04-4.04 4.036 4.036 0 00-4.04 4.04c0 2.192 1.806 4.04 4.04 4.04zM154.787 236.632a4.035 4.035 0 004.04-4.04 4.035 4.035 0 00-4.04-4.04 4.035 4.035 0 00-4.04 4.04c0 2.192 1.805 4.04 4.04 4.04zM173.827 236.632a4.035 4.035 0 004.04-4.04 4.035 4.035 0 00-4.04-4.04 4.035 4.035 0 00-4.04 4.04c0 2.192 1.805 4.04 4.04 4.04zM192.865 236.632a4.035 4.035 0 004.04-4.04 4.035 4.035 0 00-4.04-4.04 4.035 4.035 0 00-4.04 4.04c0 2.192 1.805 4.04 4.04 4.04zM211.945 236.632a4.035 4.035 0 004.04-4.04 4.035 4.035 0 00-4.04-4.04 4.035 4.035 0 00-4.04 4.04c-.043 2.192 1.762 4.04 4.04 4.04zM230.985 236.632a4.035 4.035 0 004.04-4.04 4.035 4.035 0 00-4.04-4.04 4.035 4.035 0 00-4.039 4.04c-.043 2.192 1.762 4.04 4.039 4.04zM21.473 255.671a4.036 4.036 0 004.04-4.04 4.035 4.035 0 00-4.04-4.04 4.035 4.035 0 00-4.04 4.04c0 2.192 1.806 4.04 4.04 4.04zM40.509 255.671a4.036 4.036 0 004.04-4.04 4.035 4.035 0 00-4.04-4.04 4.035 4.035 0 00-4.04 4.04c0 2.192 1.805 4.04 4.04 4.04zM59.592 255.671a4.036 4.036 0 004.04-4.04 4.035 4.035 0 00-4.04-4.04 4.035 4.035 0 00-4.04 4.04c-.043 2.192 1.762 4.04 4.04 4.04zM78.632 255.671a4.036 4.036 0 004.04-4.04 4.035 4.035 0 00-4.04-4.04 4.035 4.035 0 00-4.04 4.04c-.043 2.192 1.762 4.04 4.04 4.04zM97.667 255.671a4.036 4.036 0 004.04-4.04 4.035 4.035 0 00-4.04-4.04 4.035 4.035 0 00-4.04 4.04c-.043 2.192 1.805 4.04 4.04 4.04zM116.708 255.671a4.036 4.036 0 004.039-4.04 4.035 4.035 0 00-4.039-4.04 4.035 4.035 0 00-4.04 4.04c-.043 2.192 1.805 4.04 4.04 4.04zM135.749 255.671a4.036 4.036 0 004.04-4.04 4.035 4.035 0 00-4.04-4.04 4.036 4.036 0 00-4.04 4.04c0 2.192 1.806 4.04 4.04 4.04zM154.787 255.671a4.036 4.036 0 004.04-4.04 4.035 4.035 0 00-4.04-4.04 4.035 4.035 0 00-4.04 4.04c0 2.192 1.805 4.04 4.04 4.04zM173.827 255.671a4.036 4.036 0 004.04-4.04 4.035 4.035 0 00-4.04-4.04 4.035 4.035 0 00-4.04 4.04c0 2.192 1.805 4.04 4.04 4.04zM192.865 255.671a4.036 4.036 0 004.04-4.04 4.035 4.035 0 00-4.04-4.04 4.035 4.035 0 00-4.04 4.04c0 2.192 1.805 4.04 4.04 4.04zM211.945 255.671a4.036 4.036 0 004.04-4.04 4.035 4.035 0 00-4.04-4.04 4.035 4.035 0 00-4.04 4.04c-.043 2.192 1.762 4.04 4.04 4.04zM230.985 255.671a4.036 4.036 0 004.04-4.04 4.035 4.035 0 00-4.04-4.04 4.035 4.035 0 00-4.039 4.04c-.043 2.192 1.762 4.04 4.039 4.04zM250.025 255.671a4.036 4.036 0 004.04-4.04 4.035 4.035 0 00-4.04-4.04 4.035 4.035 0 00-4.039 4.04c-.043 2.192 1.805 4.04 4.039 4.04zM40.509 274.71a4.035 4.035 0 004.04-4.04 4.035 4.035 0 00-4.04-4.04 4.035 4.035 0 00-4.04 4.04 4.035 4.035 0 004.04 4.04zM59.592 274.71a4.035 4.035 0 004.04-4.04 4.035 4.035 0 00-4.04-4.04 4.035 4.035 0 00-4.04 4.04c-.043 2.235 1.762 4.04 4.04 4.04zM78.632 274.71a4.035 4.035 0 004.04-4.04 4.035 4.035 0 00-4.04-4.04 4.035 4.035 0 00-4.04 4.04c-.043 2.235 1.762 4.04 4.04 4.04zM97.667 274.71a4.035 4.035 0 004.04-4.04 4.035 4.035 0 00-4.04-4.04 4.035 4.035 0 00-4.04 4.04c-.043 2.235 1.805 4.04 4.04 4.04zM116.708 274.71a4.035 4.035 0 004.039-4.04 4.035 4.035 0 00-4.039-4.04 4.035 4.035 0 00-4.04 4.04c-.043 2.235 1.805 4.04 4.04 4.04zM135.749 274.71a4.035 4.035 0 004.04-4.04 4.035 4.035 0 00-4.04-4.04 4.036 4.036 0 00-4.04 4.04 4.036 4.036 0 004.04 4.04zM154.787 274.71a4.035 4.035 0 004.04-4.04 4.035 4.035 0 00-4.04-4.04 4.035 4.035 0 00-4.04 4.04 4.035 4.035 0 004.04 4.04zM173.827 274.71a4.035 4.035 0 004.04-4.04 4.035 4.035 0 00-4.04-4.04 4.035 4.035 0 00-4.04 4.04 4.035 4.035 0 004.04 4.04zM192.865 274.71a4.035 4.035 0 004.04-4.04 4.035 4.035 0 00-4.04-4.04 4.035 4.035 0 00-4.04 4.04 4.035 4.035 0 004.04 4.04zM211.945 274.71a4.035 4.035 0 004.04-4.04 4.035 4.035 0 00-4.04-4.04 4.035 4.035 0 00-4.04 4.04c-.043 2.235 1.762 4.04 4.04 4.04zM230.985 274.71a4.035 4.035 0 004.04-4.04 4.035 4.035 0 00-4.04-4.04 4.035 4.035 0 00-4.039 4.04c-.043 2.235 1.762 4.04 4.039 4.04zM250.025 274.71a4.035 4.035 0 004.04-4.04 4.035 4.035 0 00-4.04-4.04 4.035 4.035 0 00-4.039 4.04c-.043 2.235 1.805 4.04 4.039 4.04zM269.065 274.71a4.035 4.035 0 004.04-4.04 4.035 4.035 0 00-4.04-4.04 4.035 4.035 0 00-4.04 4.04 4.035 4.035 0 004.04 4.04zM59.592 293.748a4.035 4.035 0 004.04-4.04 4.035 4.035 0 00-4.04-4.04 4.035 4.035 0 00-4.04 4.04c-.043 2.235 1.762 4.04 4.04 4.04zM78.631 293.748a4.04 4.04 0 100-8.08 4.04 4.04 0 000 8.08zM97.667 293.748a4.035 4.035 0 004.04-4.04 4.035 4.035 0 00-4.04-4.04 4.035 4.035 0 00-4.04 4.04c-.043 2.235 1.805 4.04 4.04 4.04zM116.708 293.748a4.035 4.035 0 004.039-4.04 4.035 4.035 0 00-4.039-4.04 4.035 4.035 0 00-4.04 4.04c-.043 2.235 1.805 4.04 4.04 4.04zM135.749 293.748a4.035 4.035 0 004.04-4.04 4.035 4.035 0 00-4.04-4.04 4.036 4.036 0 00-4.04 4.04 4.036 4.036 0 004.04 4.04zM154.787 293.748a4.035 4.035 0 004.04-4.04 4.035 4.035 0 00-4.04-4.04 4.035 4.035 0 00-4.04 4.04 4.035 4.035 0 004.04 4.04zM177.639 291.082a4.04 4.04 0 10-7.596-2.76 4.04 4.04 0 007.596 2.76zM192.865 293.748a4.035 4.035 0 004.04-4.04 4.035 4.035 0 00-4.04-4.04 4.035 4.035 0 00-4.04 4.04 4.035 4.035 0 004.04 4.04zM211.945 293.748a4.035 4.035 0 004.04-4.04 4.035 4.035 0 00-4.04-4.04 4.035 4.035 0 00-4.04 4.04c-.043 2.235 1.762 4.04 4.04 4.04zM230.985 293.748a4.035 4.035 0 004.04-4.04 4.035 4.035 0 00-4.04-4.04 4.035 4.035 0 00-4.039 4.04c-.043 2.235 1.762 4.04 4.039 4.04zM250.025 293.748a4.035 4.035 0 004.04-4.04 4.035 4.035 0 00-4.04-4.04 4.035 4.035 0 00-4.039 4.04c-.043 2.235 1.805 4.04 4.039 4.04zM269.065 293.748a4.035 4.035 0 004.04-4.04 4.035 4.035 0 00-4.04-4.04 4.035 4.035 0 00-4.04 4.04 4.035 4.035 0 004.04 4.04zM288.1 293.748a4.035 4.035 0 004.04-4.04 4.035 4.035 0 00-4.04-4.04 4.035 4.035 0 00-4.039 4.04 4.035 4.035 0 004.039 4.04zM78.632 312.787a4.035 4.035 0 004.04-4.04 4.035 4.035 0 00-4.04-4.039 4.035 4.035 0 00-4.04 4.039c-.043 2.235 1.762 4.04 4.04 4.04zM97.667 312.787a4.035 4.035 0 004.04-4.04 4.035 4.035 0 00-4.04-4.039 4.035 4.035 0 00-4.04 4.039c-.043 2.235 1.805 4.04 4.04 4.04zM116.708 312.787a4.035 4.035 0 004.039-4.04 4.035 4.035 0 00-4.039-4.039 4.035 4.035 0 00-4.04 4.039c-.043 2.235 1.805 4.04 4.04 4.04zM135.749 312.787a4.035 4.035 0 004.04-4.04 4.035 4.035 0 00-4.04-4.039 4.036 4.036 0 00-4.04 4.039 4.036 4.036 0 004.04 4.04zM154.787 312.787a4.035 4.035 0 004.04-4.04 4.035 4.035 0 00-4.04-4.039 4.035 4.035 0 00-4.04 4.039 4.035 4.035 0 004.04 4.04zM173.827 312.787a4.035 4.035 0 004.04-4.04 4.035 4.035 0 00-4.04-4.039 4.035 4.035 0 00-4.04 4.039 4.035 4.035 0 004.04 4.04zM192.865 312.787a4.035 4.035 0 004.04-4.04 4.035 4.035 0 00-4.04-4.039 4.035 4.035 0 00-4.04 4.039 4.035 4.035 0 004.04 4.04zM211.945 312.787a4.035 4.035 0 004.04-4.04 4.035 4.035 0 00-4.04-4.039 4.035 4.035 0 00-4.04 4.039c-.043 2.235 1.762 4.04 4.04 4.04zM230.985 312.787a4.035 4.035 0 004.04-4.04 4.035 4.035 0 00-4.04-4.039 4.035 4.035 0 00-4.039 4.039c-.043 2.235 1.762 4.04 4.039 4.04zM250.025 312.787a4.035 4.035 0 004.04-4.04 4.035 4.035 0 00-4.04-4.039 4.035 4.035 0 00-4.039 4.039c-.043 2.235 1.805 4.04 4.039 4.04zM269.065 312.787a4.035 4.035 0 004.04-4.04 4.035 4.035 0 00-4.04-4.039 4.035 4.035 0 00-4.04 4.039 4.035 4.035 0 004.04 4.04zM288.1 312.787a4.035 4.035 0 004.04-4.04 4.035 4.035 0 00-4.04-4.039 4.035 4.035 0 00-4.039 4.039 4.035 4.035 0 004.039 4.04zM307.14 312.787a4.035 4.035 0 004.04-4.04 4.035 4.035 0 00-4.04-4.039 4.035 4.035 0 00-4.039 4.039 4.035 4.035 0 004.039 4.04zM97.667 331.826a4.035 4.035 0 004.04-4.04 4.035 4.035 0 00-4.04-4.039 4.035 4.035 0 00-4.04 4.039c-.043 2.235 1.805 4.04 4.04 4.04zM116.708 331.826a4.035 4.035 0 004.039-4.04 4.035 4.035 0 00-4.039-4.039 4.035 4.035 0 00-4.04 4.039c-.043 2.235 1.805 4.04 4.04 4.04zM135.749 331.826a4.035 4.035 0 004.04-4.04 4.035 4.035 0 00-4.04-4.039 4.036 4.036 0 00-4.04 4.039 4.036 4.036 0 004.04 4.04zM154.787 331.826a4.035 4.035 0 004.04-4.04 4.035 4.035 0 00-4.04-4.039 4.035 4.035 0 00-4.04 4.039 4.035 4.035 0 004.04 4.04zM173.827 331.826a4.035 4.035 0 004.04-4.04 4.035 4.035 0 00-4.04-4.039 4.035 4.035 0 00-4.04 4.039 4.035 4.035 0 004.04 4.04zM192.865 331.826a4.035 4.035 0 004.04-4.04 4.035 4.035 0 00-4.04-4.039 4.035 4.035 0 00-4.04 4.039 4.035 4.035 0 004.04 4.04zM211.945 331.826a4.035 4.035 0 004.04-4.04 4.035 4.035 0 00-4.04-4.039 4.035 4.035 0 00-4.04 4.039c-.043 2.235 1.762 4.04 4.04 4.04zM230.985 331.826a4.035 4.035 0 004.04-4.04 4.035 4.035 0 00-4.04-4.039 4.035 4.035 0 00-4.039 4.039c-.043 2.235 1.762 4.04 4.039 4.04zM250.025 331.826a4.035 4.035 0 004.04-4.04 4.035 4.035 0 00-4.04-4.039 4.035 4.035 0 00-4.039 4.039c-.043 2.235 1.805 4.04 4.039 4.04zM269.065 331.826a4.035 4.035 0 004.04-4.04 4.035 4.035 0 00-4.04-4.039 4.035 4.035 0 00-4.04 4.039 4.035 4.035 0 004.04 4.04zM288.1 331.826a4.035 4.035 0 004.04-4.04 4.035 4.035 0 00-4.04-4.039 4.035 4.035 0 00-4.039 4.039 4.035 4.035 0 004.039 4.04zM307.14 331.826a4.035 4.035 0 004.04-4.04 4.035 4.035 0 00-4.04-4.039 4.035 4.035 0 00-4.039 4.039 4.035 4.035 0 004.039 4.04zM78.632 350.865a4.035 4.035 0 004.04-4.04 4.035 4.035 0 00-4.04-4.04 4.035 4.035 0 00-4.04 4.04c-.043 2.235 1.762 4.04 4.04 4.04zM97.667 350.865a4.035 4.035 0 004.04-4.04 4.035 4.035 0 00-4.04-4.04 4.035 4.035 0 00-4.04 4.04c-.043 2.235 1.805 4.04 4.04 4.04zM116.708 350.865a4.035 4.035 0 004.039-4.04 4.035 4.035 0 00-4.039-4.04 4.035 4.035 0 00-4.04 4.04c-.043 2.235 1.805 4.04 4.04 4.04zM135.749 350.865a4.035 4.035 0 004.04-4.04 4.035 4.035 0 00-4.04-4.04 4.036 4.036 0 00-4.04 4.04 4.036 4.036 0 004.04 4.04zM154.787 350.865a4.035 4.035 0 004.04-4.04 4.035 4.035 0 00-4.04-4.04 4.035 4.035 0 00-4.04 4.04 4.035 4.035 0 004.04 4.04zM173.827 350.865a4.035 4.035 0 004.04-4.04 4.035 4.035 0 00-4.04-4.04 4.035 4.035 0 00-4.04 4.04 4.035 4.035 0 004.04 4.04zM192.865 350.865a4.035 4.035 0 004.04-4.04 4.035 4.035 0 00-4.04-4.04 4.035 4.035 0 00-4.04 4.04 4.035 4.035 0 004.04 4.04zM211.945 350.865a4.035 4.035 0 004.04-4.04 4.035 4.035 0 00-4.04-4.04 4.035 4.035 0 00-4.04 4.04c-.043 2.235 1.762 4.04 4.04 4.04zM230.985 350.865a4.035 4.035 0 004.04-4.04 4.035 4.035 0 00-4.04-4.04 4.035 4.035 0 00-4.039 4.04c-.043 2.235 1.762 4.04 4.039 4.04zM250.025 350.865a4.035 4.035 0 004.04-4.04 4.035 4.035 0 00-4.04-4.04 4.035 4.035 0 00-4.039 4.04c-.043 2.235 1.805 4.04 4.039 4.04zM269.065 350.865a4.035 4.035 0 004.04-4.04 4.035 4.035 0 00-4.04-4.04 4.035 4.035 0 00-4.04 4.04 4.035 4.035 0 004.04 4.04zM288.1 350.865a4.035 4.035 0 004.04-4.04 4.035 4.035 0 00-4.04-4.04 4.035 4.035 0 00-4.039 4.04 4.035 4.035 0 004.039 4.04zM59.592 369.904a4.035 4.035 0 004.04-4.04 4.035 4.035 0 00-4.04-4.04 4.035 4.035 0 00-4.04 4.04c-.043 2.235 1.762 4.04 4.04 4.04zM78.632 369.904a4.035 4.035 0 004.04-4.04 4.035 4.035 0 00-4.04-4.04 4.035 4.035 0 00-4.04 4.04c-.043 2.235 1.762 4.04 4.04 4.04zM97.667 369.904a4.035 4.035 0 004.04-4.04 4.035 4.035 0 00-4.04-4.04 4.035 4.035 0 00-4.04 4.04c-.043 2.235 1.805 4.04 4.04 4.04zM116.708 369.904a4.035 4.035 0 004.039-4.04 4.035 4.035 0 00-4.039-4.04 4.035 4.035 0 00-4.04 4.04c-.043 2.235 1.805 4.04 4.04 4.04zM135.749 369.904a4.035 4.035 0 004.04-4.04 4.035 4.035 0 00-4.04-4.04 4.036 4.036 0 00-4.04 4.04 4.036 4.036 0 004.04 4.04zM154.787 369.904a4.035 4.035 0 004.04-4.04 4.035 4.035 0 00-4.04-4.04 4.035 4.035 0 00-4.04 4.04 4.035 4.035 0 004.04 4.04zM173.827 369.904a4.035 4.035 0 004.04-4.04 4.035 4.035 0 00-4.04-4.04 4.035 4.035 0 00-4.04 4.04 4.035 4.035 0 004.04 4.04zM192.865 369.904a4.035 4.035 0 004.04-4.04 4.035 4.035 0 00-4.04-4.04 4.035 4.035 0 00-4.04 4.04 4.035 4.035 0 004.04 4.04zM211.945 369.904a4.035 4.035 0 004.04-4.04 4.035 4.035 0 00-4.04-4.04 4.035 4.035 0 00-4.04 4.04c-.043 2.235 1.762 4.04 4.04 4.04zM230.985 369.904a4.035 4.035 0 004.04-4.04 4.035 4.035 0 00-4.04-4.04 4.035 4.035 0 00-4.039 4.04c-.043 2.235 1.762 4.04 4.039 4.04zM250.025 369.904a4.035 4.035 0 004.04-4.04 4.035 4.035 0 00-4.04-4.04 4.035 4.035 0 00-4.039 4.04c-.043 2.235 1.805 4.04 4.039 4.04zM269.065 369.904a4.035 4.035 0 004.04-4.04 4.035 4.035 0 00-4.04-4.04 4.035 4.035 0 00-4.04 4.04 4.035 4.035 0 004.04 4.04zM40.509 388.986a4.035 4.035 0 004.04-4.04 4.035 4.035 0 00-4.04-4.04 4.035 4.035 0 00-4.04 4.04c0 2.192 1.805 4.04 4.04 4.04zM59.592 388.986a4.035 4.035 0 004.04-4.04 4.035 4.035 0 00-4.04-4.04 4.035 4.035 0 00-4.04 4.04c-.043 2.192 1.762 4.04 4.04 4.04zM78.631 388.943a4.04 4.04 0 100-8.08 4.04 4.04 0 000 8.08zM97.667 388.986a4.035 4.035 0 004.04-4.04 4.035 4.035 0 00-4.04-4.04 4.035 4.035 0 00-4.04 4.04c-.043 2.192 1.805 4.04 4.04 4.04zM116.708 388.986a4.035 4.035 0 004.039-4.04 4.035 4.035 0 00-4.039-4.04 4.035 4.035 0 00-4.04 4.04c-.043 2.192 1.805 4.04 4.04 4.04zM135.749 388.986a4.035 4.035 0 004.04-4.04 4.035 4.035 0 00-4.04-4.04 4.036 4.036 0 00-4.04 4.04c0 2.192 1.806 4.04 4.04 4.04zM154.787 388.986a4.035 4.035 0 004.04-4.04 4.035 4.035 0 00-4.04-4.04 4.035 4.035 0 00-4.04 4.04c0 2.192 1.805 4.04 4.04 4.04zM176.672 387.768a4.039 4.039 0 10-5.713-5.713 4.039 4.039 0 105.713 5.713zM192.865 388.986a4.035 4.035 0 004.04-4.04 4.035 4.035 0 00-4.04-4.04 4.035 4.035 0 00-4.04 4.04c0 2.192 1.805 4.04 4.04 4.04zM211.945 388.986a4.035 4.035 0 004.04-4.04 4.035 4.035 0 00-4.04-4.04 4.035 4.035 0 00-4.04 4.04c-.043 2.192 1.762 4.04 4.04 4.04zM230.985 388.986a4.035 4.035 0 004.04-4.04 4.035 4.035 0 00-4.04-4.04 4.035 4.035 0 00-4.039 4.04c-.043 2.192 1.762 4.04 4.039 4.04zM250.025 388.986a4.035 4.035 0 004.04-4.04 4.035 4.035 0 00-4.04-4.04 4.035 4.035 0 00-4.039 4.04c-.043 2.192 1.805 4.04 4.039 4.04zM21.473 408.025a4.036 4.036 0 004.04-4.04 4.035 4.035 0 00-4.04-4.04 4.035 4.035 0 00-4.04 4.04c0 2.191 1.806 4.04 4.04 4.04zM40.509 408.025a4.036 4.036 0 004.04-4.04 4.035 4.035 0 00-4.04-4.04 4.035 4.035 0 00-4.04 4.04c0 2.191 1.805 4.04 4.04 4.04zM59.592 408.025a4.036 4.036 0 004.04-4.04 4.035 4.035 0 00-4.04-4.04 4.035 4.035 0 00-4.04 4.04c-.043 2.191 1.762 4.04 4.04 4.04zM78.632 408.025a4.036 4.036 0 004.04-4.04 4.035 4.035 0 00-4.04-4.04 4.035 4.035 0 00-4.04 4.04c-.043 2.191 1.762 4.04 4.04 4.04zM97.667 408.025a4.036 4.036 0 004.04-4.04 4.035 4.035 0 00-4.04-4.04 4.035 4.035 0 00-4.04 4.04c-.043 2.191 1.805 4.04 4.04 4.04zM116.708 408.025a4.036 4.036 0 004.039-4.04 4.035 4.035 0 00-4.039-4.04 4.035 4.035 0 00-4.04 4.04c-.043 2.191 1.805 4.04 4.04 4.04zM135.749 408.025a4.036 4.036 0 004.04-4.04 4.035 4.035 0 00-4.04-4.04 4.036 4.036 0 00-4.04 4.04c0 2.191 1.806 4.04 4.04 4.04zM154.787 408.025a4.036 4.036 0 004.04-4.04 4.035 4.035 0 00-4.04-4.04 4.035 4.035 0 00-4.04 4.04c0 2.191 1.805 4.04 4.04 4.04zM173.827 408.025a4.036 4.036 0 004.04-4.04 4.035 4.035 0 00-4.04-4.04 4.035 4.035 0 00-4.04 4.04c0 2.191 1.805 4.04 4.04 4.04zM192.865 408.025a4.036 4.036 0 004.04-4.04 4.035 4.035 0 00-4.04-4.04 4.035 4.035 0 00-4.04 4.04c0 2.191 1.805 4.04 4.04 4.04zM211.945 408.025a4.036 4.036 0 004.04-4.04 4.035 4.035 0 00-4.04-4.04 4.035 4.035 0 00-4.04 4.04c-.043 2.191 1.762 4.04 4.04 4.04zM230.985 408.025a4.036 4.036 0 004.04-4.04 4.035 4.035 0 00-4.04-4.04 4.035 4.035 0 00-4.039 4.04c-.043 2.191 1.762 4.04 4.039 4.04zM2.431 427.064a4.035 4.035 0 004.04-4.04 4.035 4.035 0 00-4.04-4.04 4.035 4.035 0 00-4.04 4.04 4.035 4.035 0 004.04 4.04zM21.473 427.064a4.035 4.035 0 004.04-4.04 4.035 4.035 0 00-4.04-4.04 4.035 4.035 0 00-4.04 4.04 4.035 4.035 0 004.04 4.04zM40.509 427.064a4.035 4.035 0 004.04-4.04 4.035 4.035 0 00-4.04-4.04 4.035 4.035 0 00-4.04 4.04 4.035 4.035 0 004.04 4.04zM59.592 427.064a4.035 4.035 0 004.04-4.04 4.035 4.035 0 00-4.04-4.04 4.035 4.035 0 00-4.04 4.04c-.043 2.235 1.762 4.04 4.04 4.04zM78.632 427.064a4.035 4.035 0 004.04-4.04 4.035 4.035 0 00-4.04-4.04 4.035 4.035 0 00-4.04 4.04c-.043 2.235 1.762 4.04 4.04 4.04zM97.667 427.064a4.035 4.035 0 004.04-4.04 4.035 4.035 0 00-4.04-4.04 4.035 4.035 0 00-4.04 4.04c-.043 2.235 1.805 4.04 4.04 4.04zM116.708 427.064a4.035 4.035 0 004.039-4.04 4.035 4.035 0 00-4.039-4.04 4.035 4.035 0 00-4.04 4.04c-.043 2.235 1.805 4.04 4.04 4.04zM135.749 427.064a4.035 4.035 0 004.04-4.04 4.035 4.035 0 00-4.04-4.04 4.036 4.036 0 00-4.04 4.04 4.036 4.036 0 004.04 4.04zM154.787 427.064a4.035 4.035 0 004.04-4.04 4.035 4.035 0 00-4.04-4.04 4.035 4.035 0 00-4.04 4.04 4.035 4.035 0 004.04 4.04zM173.827 427.064a4.035 4.035 0 004.04-4.04 4.035 4.035 0 00-4.04-4.04 4.035 4.035 0 00-4.04 4.04 4.035 4.035 0 004.04 4.04zM192.865 427.064a4.035 4.035 0 004.04-4.04 4.035 4.035 0 00-4.04-4.04 4.035 4.035 0 00-4.04 4.04 4.035 4.035 0 004.04 4.04zM211.945 427.064a4.035 4.035 0 004.04-4.04 4.035 4.035 0 00-4.04-4.04 4.035 4.035 0 00-4.04 4.04c-.043 2.235 1.762 4.04 4.04 4.04zM2.431 446.102a4.035 4.035 0 004.04-4.04 4.036 4.036 0 00-4.04-4.04 4.036 4.036 0 00-4.04 4.04 4.035 4.035 0 004.04 4.04zM21.473 446.102a4.035 4.035 0 004.04-4.04 4.036 4.036 0 00-4.04-4.04 4.036 4.036 0 00-4.04 4.04 4.035 4.035 0 004.04 4.04zM40.509 446.102a4.035 4.035 0 004.04-4.04 4.036 4.036 0 00-4.04-4.04 4.036 4.036 0 00-4.04 4.04 4.035 4.035 0 004.04 4.04zM59.592 446.102a4.035 4.035 0 004.04-4.04 4.036 4.036 0 00-4.04-4.04 4.036 4.036 0 00-4.04 4.04c-.043 2.235 1.762 4.04 4.04 4.04zM78.632 446.102a4.035 4.035 0 004.04-4.04 4.036 4.036 0 00-4.04-4.04 4.036 4.036 0 00-4.04 4.04c-.043 2.235 1.762 4.04 4.04 4.04zM97.667 446.102a4.035 4.035 0 004.04-4.04 4.036 4.036 0 00-4.04-4.04 4.036 4.036 0 00-4.04 4.04c-.043 2.235 1.805 4.04 4.04 4.04zM116.708 446.102a4.035 4.035 0 004.039-4.04 4.036 4.036 0 00-4.039-4.04 4.036 4.036 0 00-4.04 4.04c-.043 2.235 1.805 4.04 4.04 4.04zM135.749 446.102a4.035 4.035 0 004.04-4.04 4.036 4.036 0 00-4.04-4.04 4.036 4.036 0 00-4.04 4.04 4.036 4.036 0 004.04 4.04zM154.787 446.102a4.035 4.035 0 004.04-4.04 4.036 4.036 0 00-4.04-4.04 4.036 4.036 0 00-4.04 4.04 4.035 4.035 0 004.04 4.04zM173.827 446.102a4.035 4.035 0 004.04-4.04 4.036 4.036 0 00-4.04-4.04 4.036 4.036 0 00-4.04 4.04 4.035 4.035 0 004.04 4.04zM192.865 446.102a4.035 4.035 0 004.04-4.04 4.036 4.036 0 00-4.04-4.04 4.036 4.036 0 00-4.04 4.04 4.035 4.035 0 004.04 4.04zM2.431 465.141a4.035 4.035 0 004.04-4.04 4.035 4.035 0 00-4.04-4.04 4.035 4.035 0 00-4.04 4.04 4.035 4.035 0 004.04 4.04zM21.473 465.141a4.035 4.035 0 004.04-4.04 4.035 4.035 0 00-4.04-4.04 4.035 4.035 0 00-4.04 4.04 4.035 4.035 0 004.04 4.04zM40.509 465.141a4.035 4.035 0 004.04-4.04 4.035 4.035 0 00-4.04-4.04 4.035 4.035 0 00-4.04 4.04 4.035 4.035 0 004.04 4.04zM59.592 465.141a4.035 4.035 0 004.04-4.04 4.035 4.035 0 00-4.04-4.04 4.035 4.035 0 00-4.04 4.04c-.043 2.235 1.762 4.04 4.04 4.04zM78.631 465.141a4.04 4.04 0 100-8.08 4.04 4.04 0 000 8.08zM97.667 465.141a4.035 4.035 0 004.04-4.04 4.035 4.035 0 00-4.04-4.04 4.035 4.035 0 00-4.04 4.04c-.043 2.235 1.805 4.04 4.04 4.04zM116.708 465.141a4.035 4.035 0 004.039-4.04 4.035 4.035 0 00-4.039-4.04 4.035 4.035 0 00-4.04 4.04c-.043 2.235 1.805 4.04 4.04 4.04zM135.749 465.141a4.035 4.035 0 004.04-4.04 4.035 4.035 0 00-4.04-4.04 4.036 4.036 0 00-4.04 4.04 4.036 4.036 0 004.04 4.04zM154.787 465.141a4.035 4.035 0 004.04-4.04 4.035 4.035 0 00-4.04-4.04 4.035 4.035 0 00-4.04 4.04 4.035 4.035 0 004.04 4.04zM177.592 462.648a4.04 4.04 0 10-7.466-3.092 4.04 4.04 0 007.466 3.092zM2.431 484.18a4.035 4.035 0 004.04-4.04 4.035 4.035 0 00-4.04-4.039 4.035 4.035 0 00-4.04 4.039 4.035 4.035 0 004.04 4.04zM21.473 484.18a4.035 4.035 0 004.04-4.04 4.035 4.035 0 00-4.04-4.039 4.035 4.035 0 00-4.04 4.039 4.035 4.035 0 004.04 4.04zM40.509 484.18a4.035 4.035 0 004.04-4.04 4.035 4.035 0 00-4.04-4.039 4.035 4.035 0 00-4.04 4.039 4.035 4.035 0 004.04 4.04zM59.592 484.18a4.035 4.035 0 004.04-4.04 4.035 4.035 0 00-4.04-4.039 4.035 4.035 0 00-4.04 4.039c-.043 2.235 1.762 4.04 4.04 4.04zM78.632 484.18a4.035 4.035 0 004.04-4.04 4.035 4.035 0 00-4.04-4.039 4.035 4.035 0 00-4.04 4.039c-.043 2.235 1.762 4.04 4.04 4.04zM97.667 484.18a4.035 4.035 0 004.04-4.04 4.035 4.035 0 00-4.04-4.039 4.035 4.035 0 00-4.04 4.039c-.043 2.235 1.805 4.04 4.04 4.04zM116.708 484.18a4.035 4.035 0 004.039-4.04 4.035 4.035 0 00-4.039-4.039 4.035 4.035 0 00-4.04 4.039c-.043 2.235 1.805 4.04 4.04 4.04zM135.749 484.18a4.035 4.035 0 004.04-4.04 4.035 4.035 0 00-4.04-4.039 4.036 4.036 0 00-4.04 4.039 4.036 4.036 0 004.04 4.04zM154.787 484.18a4.035 4.035 0 004.04-4.04 4.035 4.035 0 00-4.04-4.039 4.035 4.035 0 00-4.04 4.039 4.035 4.035 0 004.04 4.04zM2.431 503.218a4.035 4.035 0 004.04-4.04 4.035 4.035 0 00-4.04-4.039 4.035 4.035 0 00-4.04 4.039 4.035 4.035 0 004.04 4.04zM21.473 503.218a4.035 4.035 0 004.04-4.04 4.035 4.035 0 00-4.04-4.039 4.035 4.035 0 00-4.04 4.039 4.035 4.035 0 004.04 4.04zM40.509 503.218a4.035 4.035 0 004.04-4.04 4.035 4.035 0 00-4.04-4.039 4.035 4.035 0 00-4.04 4.039 4.035 4.035 0 004.04 4.04zM59.592 503.218a4.035 4.035 0 004.04-4.04 4.035 4.035 0 00-4.04-4.039 4.035 4.035 0 00-4.04 4.039c-.043 2.235 1.762 4.04 4.04 4.04zM78.632 503.218a4.035 4.035 0 004.04-4.04 4.035 4.035 0 00-4.04-4.039 4.035 4.035 0 00-4.04 4.039c-.043 2.235 1.762 4.04 4.04 4.04zM97.667 503.218a4.035 4.035 0 004.04-4.04 4.035 4.035 0 00-4.04-4.039 4.035 4.035 0 00-4.04 4.039c-.043 2.235 1.805 4.04 4.04 4.04zM116.708 503.218a4.035 4.035 0 004.039-4.04 4.035 4.035 0 00-4.039-4.039 4.035 4.035 0 00-4.04 4.039c-.043 2.235 1.805 4.04 4.04 4.04zM135.749 503.218a4.035 4.035 0 004.04-4.04 4.035 4.035 0 00-4.04-4.039 4.036 4.036 0 00-4.04 4.039 4.036 4.036 0 004.04 4.04zM2.431 522.258a4.035 4.035 0 004.04-4.04 4.035 4.035 0 00-4.04-4.04 4.035 4.035 0 00-4.04 4.04 4.035 4.035 0 004.04 4.04zM21.473 522.258a4.035 4.035 0 004.04-4.04 4.035 4.035 0 00-4.04-4.04 4.035 4.035 0 00-4.04 4.04 4.035 4.035 0 004.04 4.04zM40.509 522.258a4.035 4.035 0 004.04-4.04 4.035 4.035 0 00-4.04-4.04 4.035 4.035 0 00-4.04 4.04 4.035 4.035 0 004.04 4.04zM59.592 522.258a4.035 4.035 0 004.04-4.04 4.035 4.035 0 00-4.04-4.04 4.035 4.035 0 00-4.04 4.04c-.043 2.235 1.762 4.04 4.04 4.04zM78.632 522.258a4.035 4.035 0 004.04-4.04 4.035 4.035 0 00-4.04-4.04 4.035 4.035 0 00-4.04 4.04c-.043 2.235 1.762 4.04 4.04 4.04zM97.667 522.258a4.035 4.035 0 004.04-4.04 4.035 4.035 0 00-4.04-4.04 4.035 4.035 0 00-4.04 4.04c-.043 2.235 1.805 4.04 4.04 4.04zM116.708 522.258a4.035 4.035 0 004.039-4.04 4.035 4.035 0 00-4.039-4.04 4.035 4.035 0 00-4.04 4.04c-.043 2.235 1.805 4.04 4.04 4.04zM2.431 541.339a4.035 4.035 0 004.04-4.04 4.035 4.035 0 00-4.04-4.04 4.035 4.035 0 00-4.04 4.04c0 2.192 1.805 4.04 4.04 4.04zM21.473 541.339a4.035 4.035 0 004.04-4.04 4.035 4.035 0 00-4.04-4.04 4.035 4.035 0 00-4.04 4.04c0 2.192 1.806 4.04 4.04 4.04zM40.509 541.339a4.035 4.035 0 004.04-4.04 4.035 4.035 0 00-4.04-4.04 4.035 4.035 0 00-4.04 4.04c0 2.192 1.805 4.04 4.04 4.04zM59.592 541.339a4.035 4.035 0 004.04-4.04 4.035 4.035 0 00-4.04-4.04 4.035 4.035 0 00-4.04 4.04c-.043 2.192 1.762 4.04 4.04 4.04zM78.631 541.296a4.04 4.04 0 10.001-8.078 4.04 4.04 0 000 8.078zM97.667 541.339a4.035 4.035 0 004.04-4.04 4.035 4.035 0 00-4.04-4.04 4.035 4.035 0 00-4.04 4.04c-.043 2.192 1.805 4.04 4.04 4.04zM2.431 560.378a4.035 4.035 0 004.04-4.039 4.035 4.035 0 00-4.04-4.04 4.035 4.035 0 00-4.04 4.04c0 2.191 1.805 4.039 4.04 4.039zM21.473 560.378a4.035 4.035 0 004.04-4.039 4.035 4.035 0 00-4.04-4.04 4.035 4.035 0 00-4.04 4.04c0 2.191 1.806 4.039 4.04 4.039zM40.509 560.378a4.035 4.035 0 004.04-4.039 4.035 4.035 0 00-4.04-4.04 4.035 4.035 0 00-4.04 4.04c0 2.191 1.805 4.039 4.04 4.039zM59.592 560.378a4.035 4.035 0 004.04-4.039 4.035 4.035 0 00-4.04-4.04 4.035 4.035 0 00-4.04 4.04c-.043 2.191 1.762 4.039 4.04 4.039zM78.632 560.378a4.035 4.035 0 004.04-4.039 4.035 4.035 0 00-4.04-4.04 4.035 4.035 0 00-4.04 4.04c-.043 2.191 1.762 4.039 4.04 4.039zM2.431 579.418a4.035 4.035 0 004.04-4.04 4.035 4.035 0 00-4.04-4.04 4.035 4.035 0 00-4.04 4.04 4.035 4.035 0 004.04 4.04zM21.473 579.418a4.035 4.035 0 004.04-4.04 4.035 4.035 0 00-4.04-4.04 4.035 4.035 0 00-4.04 4.04 4.035 4.035 0 004.04 4.04zM40.509 579.418a4.035 4.035 0 004.04-4.04 4.035 4.035 0 00-4.04-4.04 4.035 4.035 0 00-4.04 4.04 4.035 4.035 0 004.04 4.04zM59.591 579.418a4.035 4.035 0 004.04-4.04 4.035 4.035 0 00-4.04-4.04 4.035 4.035 0 00-4.04 4.04 4.008 4.008 0 004.04 4.04zM2.431 598.456a4.035 4.035 0 004.04-4.04 4.036 4.036 0 00-4.04-4.04 4.036 4.036 0 00-4.04 4.04 4.035 4.035 0 004.04 4.04zM21.473 598.456a4.035 4.035 0 004.04-4.04 4.036 4.036 0 00-4.04-4.04 4.036 4.036 0 00-4.04 4.04 4.035 4.035 0 004.04 4.04zM40.509 598.456a4.035 4.035 0 004.04-4.04 4.036 4.036 0 00-4.04-4.04 4.036 4.036 0 00-4.04 4.04 4.035 4.035 0 004.04 4.04zM2.431 617.494a4.035 4.035 0 004.04-4.04 4.035 4.035 0 00-4.04-4.039 4.035 4.035 0 00-4.04 4.039 4.035 4.035 0 004.04 4.04zM21.473 617.494a4.035 4.035 0 004.04-4.04 4.035 4.035 0 00-4.04-4.039 4.035 4.035 0 00-4.04 4.039 4.035 4.035 0 004.04 4.04zM2.431 636.533a4.035 4.035 0 004.04-4.04 4.035 4.035 0 00-4.04-4.039 4.035 4.035 0 00-4.04 4.039 4.035 4.035 0 004.04 4.04z" fill="#F7F7F7"/></svg>