<svg width="748" height="578" fill="none" xmlns="http://www.w3.org/2000/svg"><g filter="url(#filter0_b)"><rect x="30" y="15" width="688" height="518" rx="29" fill="#fff" fill-opacity=".2"/></g><g filter="url(#filter1_d)"><rect x="31.5" y="16.5" width="685" height="515" rx="27.5" stroke="#4A4949" stroke-width="3"/></g><path d="M122 155.399C122 135.296 138.296 119 158.399 119h471.202C649.704 119 666 135.296 666 155.399H122z" fill="#FFF8F1"/><rect opacity=".1" x="158.312" y="192.984" width="473.934" height="64.93" rx="17.5" stroke="#000"/><rect opacity=".1" x="123" y="120" width="542" height="294" rx="40" stroke="#4A4949" stroke-width="2"/><g filter="url(#filter2_d)"><rect x="288" y="279" width="114" height="101.045" rx="12" fill="#B4C99A"/></g><path d="M369.614 337.729v10.94a5.47 5.47 0 01-5.47 5.47h-38.288a5.473 5.473 0 01-5.47-5.47v-10.94M358.674 318.584L345 304.91l-13.674 13.674M345 304.91v32.818" stroke="#fff" stroke-width="4" stroke-linecap="round" stroke-linejoin="round"/><defs><filter id="filter0_b" x="-20" y="-35" width="788" height="618" filterUnits="userSpaceOnUse" color-interpolation-filters="sRGB"><feFlood flood-opacity="0" result="BackgroundImageFix"/><feGaussianBlur in="BackgroundImage" stdDeviation="25"/><feComposite in2="SourceAlpha" operator="in" result="effect1_backgroundBlur"/><feBlend in="SourceGraphic" in2="effect1_backgroundBlur" result="shape"/></filter><filter id="filter1_d" x="0" y="0" width="748" height="578" filterUnits="userSpaceOnUse" color-interpolation-filters="sRGB"><feFlood flood-opacity="0" result="BackgroundImageFix"/><feColorMatrix in="SourceAlpha" values="0 0 0 0 0 0 0 0 0 0 0 0 0 0 0 0 0 0 127 0"/><feOffset dy="15"/><feGaussianBlur stdDeviation="15"/><feColorMatrix values="0 0 0 0 0 0 0 0 0 0 0 0 0 0 0 0 0 0 0.16 0"/><feBlend in2="BackgroundImageFix" result="effect1_dropShadow"/><feBlend in="SourceGraphic" in2="effect1_dropShadow" result="shape"/></filter><filter id="filter2_d" x="273" y="269" width="144" height="131.045" filterUnits="userSpaceOnUse" color-interpolation-filters="sRGB"><feFlood flood-opacity="0" result="BackgroundImageFix"/><feColorMatrix in="SourceAlpha" values="0 0 0 0 0 0 0 0 0 0 0 0 0 0 0 0 0 0 127 0"/><feOffset dy="5"/><feGaussianBlur stdDeviation="7.5"/><feColorMatrix values="0 0 0 0 0.705882 0 0 0 0 0.788235 0 0 0 0 0.603922 0 0 0 0.45 0"/><feBlend in2="BackgroundImageFix" result="effect1_dropShadow"/><feBlend in="SourceGraphic" in2="effect1_dropShadow" result="shape"/></filter></defs></svg>