<svg xmlns="http://www.w3.org/2000/svg" width="697" height="412" fill="none">
<path d="M155.407 319.7l-1.5-2.9c-2.2-4.8-3.6-9.7-3.9-14.5-.5-6.5.7-12.6 1.5-15.3-9-2.4-17.4-6.5-25.2-11.9-5.1-3.4-9.7-7.5-13.6-12.1-1 .7-1.7 1.5-2.4 2.4-1.7 1.9-3.9 5.1-4.8 9.9l-.5 2.4-1.5-1.9c-5.3-6.8-7.5-13.3-6.5-19.4.7-4.8 3.6-11.9 4.4-13.6-1.5-8-1.7-16.2-.5-24.5 1.2-8.2 3.6-16.2 7.5-23.7l.2-.7h.7c9.4 0 18.4 1.7 27.1 5.1 7.5 2.9 14.3 7.3 20.3 12.6 3.4-.2 8.5.2 13.8 2.9 7.5 3.9 11.1 9.9 12.6 13.3l.5 1.2-12.8 3.4c2.2 7.8 3.1 15.7 2.7 23.5-.2 6.8-1.7 13.3-3.6 19.6 3.6 1 8 2.4 12.1 4.6 5.1 2.4 9.4 6.3 13.1 10.9l2.2 2.7-3.4-.7c-.2 0-12.8-2.7-22.8 3.4-10.7 6.3-14.5 20.1-14.5 20.3l-1.2 3zm-42.4-60.1l.7 1c4.1 4.8 9 9 14 12.6 7.8 5.3 16.2 9.4 25.4 11.9l1.2.2-.2 1.2s-1.9 7.8-1.7 15.5c.2 3.6 1 7.3 2.4 10.9 1.9-4.6 6.3-13.8 14.5-18.6 7.8-4.6 16.7-4.6 21.3-4.1-3.1-3.1-6.5-5.8-10.4-7.8-4.6-2.2-9-3.9-12.8-4.8l-1.5-.2.5-1.2c2.4-6.5 3.6-13.3 4.1-20.3.5-8-.7-16.2-2.9-24l-.5-1.2 12.6-3.1c-1.7-3.1-4.8-7.8-10.9-10.9-5.1-2.4-9.9-2.9-13.1-2.7h-.3l-.5-.2c-6.1-5.3-12.6-9.4-20.1-12.6-8-3.1-16.7-4.8-25.4-5.1-3.4 7-5.8 14.5-6.8 22.3-1.2 8-1 16 .5 24v.5l-.2.2s-3.6 8-4.4 13.3c-.7 4.8 1 9.9 4.8 15.7 1.2-3.9 3.1-6.5 4.6-8.5 1-1.2 2.2-2.4 3.6-3.4l1.5-.6z" fill="#B4C99A"/><path d="M121.007 245.8c-4.4 0-8-.7-10.2-1.5-.7-.2-1-1-.7-1.5.2-.7 1-1 1.5-.7 3.6 1.2 11.1 2.7 19.1-.2 14.8-5.1 19.4-20.3 19.9-22 .2-.7 1-1 1.5-.7.5.2 1 1 .7 1.5-.5 1.9-5.6 18.2-21.3 23.7-3.7 1-7.4 1.4-10.5 1.4zM131.407 257.7c-1.2 0-2.7-.2-3.6-1-.5-.2-.7-1-.5-1.7.2-.5 1-.7 1.7-.5 1.7 1 3.6 1 5.1-.2 1.7-1 2.4-3.1 1.9-5.1-.2-.7.2-1.2 1-1.5.7-.2 1.2.2 1.5 1 .7 2.9-.5 5.8-2.9 7.5-1.5 1.3-3 1.5-4.2 1.5zM145.407 253.1c-1.2 0-2.4-.2-3.4-.7-.7-.2-1-1-.7-1.5.2-.7 1-1 1.5-.7 2.4 1 4.8.5 6.5-1 1.2-1.2 1.5-2.7 1.5-3.6 0-.7.7-1.2 1.2-1.2.7 0 1.2.7 1.2 1.2 0 1.2-.5 3.4-2.2 5.1-1.4 1.7-3.4 2.4-5.6 2.4zM156.807 241.5c-1.7 0-3.6-.7-5.3-1.9-.5-.5-.5-1.2-.2-1.7.5-.5 1.2-.5 1.7-.2 2.2 1.7 5.1 1.9 6.8 0 1.2-1.2 1.5-2.9 1-4.8-.2-.7.2-1.2.7-1.5.7-.2 1.2.2 1.5.7.7 2.7 0 5.3-1.7 7-.8 1.7-2.5 2.4-4.5 2.4zM159.007 256.3c-1.5 0-3.1-.5-4.4-1.5-.5-.5-.7-1.2-.2-1.7.5-.5 1.2-.7 1.7-.2 1.9 1.2 4.4 1.2 5.8 0 1.2-1 1.7-2.7 1.5-4.4-.2-.7.2-1.2 1-1.5.7-.2 1.2.2 1.5 1 .5 2.4-.2 5.1-2.2 6.8-1.5.7-3 1.5-4.7 1.5zM142.508 266.9c-1.7 0-3.4-.5-4.8-1.5-.5-.2-.7-1.2-.5-1.7.2-.5 1.199-.7 1.699-.5 2.2 1.2 4.801 1.5 6.801.2 3.1-1.7 3.399-5.3 3.399-5.6 0-.7.5-1.2 1.2-1.2s1.201.7 1.201 1.2-.501 5.1-4.601 7.5c-1.5 1.4-2.899 1.6-4.399 1.6zM157.607 269.8c-1.5 0-3.1-.5-4.6-1.2-.5-.2-.7-1-.5-1.7.2-.5 1-.7 1.7-.5 2.7 1.5 5.6 1 7.5-.7 2.2-1.9 1.9-4.8 1.9-5.3 0-.7.5-1.2 1.2-1.2s1.2.5 1.2 1.2.2 4.6-2.7 7.3c-1.4 1.4-3.6 2.1-5.7 2.1zM131.407 219.9c-3.1 0-5.8-2.7-5.8-5.8 0-3.1 2.7-5.8 5.8-5.8 3.1 0 5.8 2.7 5.8 5.8 0 3.1-2.7 5.8-5.8 5.8zm0-9.2c-1.9 0-3.4 1.5-3.4 3.4s1.5 3.4 3.4 3.4 3.4-1.5 3.4-3.4-1.5-3.4-3.4-3.4zM208.407 394.8c-2.9 0-5.8-1.5-9.2-4.1-10.4-8.7-22.3-31.5-21.8-47.7.2-8.5 3.1-15.7 3.4-16 1.5-3.1 3.1-6.3 5.3-9.2.5-.7 1.5-1 2.2-.5.7.2 1.2 1.2 1 1.9-1.9 8.2-1.7 16.2.5 23.3 1.2 4.1 5.8 17.9 18.4 28.8 1.2 1 2.4 1.9 3.4 2.9 3.9 2.9 7 5.6 7 9.7 0 4.8-3.9 9.9-8.5 10.9-.5-.2-1.2 0-1.7 0zm-22.3-73.1c-1.2 1.9-2.2 3.9-3.1 6.1 0 0-2.9 7-3.1 15.3-.5 15.3 11.1 37.5 20.8 45.8 3.4 2.9 6.3 4.1 8.7 3.4 3.4-.7 6.5-4.8 6.5-8.5 0-2.9-2.7-5.1-6.3-8-1.2-1-2.2-1.9-3.4-2.9-13.1-11.4-17.9-25.9-19.1-30-1.9-6.7-2.2-13.7-1-21.2z" fill="#B4C99A"/><path d="M224.207 412c.5-.7 3.1-5.3 1.5-9.2-1.5-3.1-5.3-4.4-9.4-5.6-2.7-.7-4.8-1.2-6.3-1.2 4.1-.2 5.8-1.5 6.5-2.7 1.7-2.4 3.1-4.8 3.1-7.3 0-.2.5-.5.5-.2 2.4 3.4 4.1 6.5 5.1 8.7 2.9 6.1 4.6 9.4 3.1 12.8-.5 2.8-2.7 4.2-4.1 4.7zM482.607 141.4c-4.1 0-8.7-3.1-9.7-7-.7-2.9.2-6.3 3.1-9.9 7.3-9.7 27.1-21.6 41.7-21.8 7.5-.2 14.3 2.2 14.5 2.2 2.9 1 5.8 2.4 8.5 4.1.7.5 1 1.2.7 1.9-.2.7-1 1.2-1.9 1-7.5-1.2-14.3-.7-20.6 1.5-3.4 1.2-15.7 6.1-24.7 17.9-1 1.2-1.7 2.2-2.4 3.1-2.4 3.6-4.6 6.5-8.5 6.8-.2.2-.5.2-.7.2zm36.1-36.5h-1c-13.6.2-32.7 11.6-39.7 20.8-2.2 3.1-3.1 5.8-2.7 8 .7 2.9 4.6 5.6 7.8 5.3 2.7-.2 4.4-2.7 6.5-5.8.7-1 1.5-2.2 2.4-3.1 9.4-12.4 22.3-17.4 25.9-18.7 5.6-1.9 11.9-2.7 18.4-1.9-1.7-1-3.1-1.7-5.1-2.2-.2-.5-6-2.4-12.5-2.4z" fill="#B4C99A"/><path d="M458.107 147.5c.7.5 4.8 2.4 8.2.7 2.7-1.5 3.6-4.8 4.6-8.7.5-2.4.7-4.4.7-5.6.5 3.6 1.7 5.1 2.7 5.8 2.2 1.5 4.4 2.4 6.5 2.7.2 0 .2.2.2.5-2.9 2.2-5.6 3.9-7.5 5.1-5.1 2.9-8.2 4.6-11.1 3.4-2.1-.8-3.5-2.4-4.3-3.9zM231.207 373.5l-1-.7c-3.1-2.7-5.599-5.8-6.799-9.2-1-2.4-1.501-5.1-1.701-7.3-.7.7-1.5 1.7-2.4 2.2-2.7 1.7-5.1 1.9-6.5 1.7h-1v-1c-1.5-13.6 5.601-24.5 13.101-25.9 3.6-.7 8.2.5 12.1 3.6 6.1 4.6 9.9 12.4 10.4 21.1v1.7l-1.701-.2c-1.2-.2-2.7-.7-3.9-1.2-1.7-.7-3.399-1.7-4.799-2.9.2 2.4.5 5.1-.5 8.2-1 4.4-3.401 7.5-4.801 9.2l-.5.7zm-8.699-21.3h.199c.7.2 1.201.7 1.201 1.2.2 1.7.699 6.3 1.899 9.4 1 2.7 2.701 5.1 5.101 7.3 1.2-1.7 2.9-4.1 3.6-7.3 1-4.1.499-7.8-.201-10.2-.2-.7.001-1.2.701-1.7.5-.2 1.199-.2 1.699.2 1.9 1.9 4.1 3.4 6.5 4.6.5.2 1.201.5 1.701.7-.7-7.3-4.1-13.6-9.4-17.4-3.4-2.7-7.301-3.9-10.201-3.1-6.3 1.2-12.399 10.7-11.399 22 1 0 2.399-.5 3.899-1.5 1.7-1 2.701-2.9 3.101-3.6.4-.4.8-.6 1.6-.6zM224.207 325.8c-2.4 0-5.1-.5-7.5-2.2-2.7-2.2-4.6-5.6-4.6-9 0-1.9.5-3.6 1-5.1-4.1-2.2-7.3-6.1-6.8-10.4.2-1.7 1.2-3.6 2.4-4.8l-.5-.5c-3.1-5.1-2.7-8.5-1.7-10.4 1.2-2.7 4.6-4.8 7.5-4.1.7.2 2.2.7 2.9 2.2 1 1.9.5 4.4-1.5 6.3-.5.5-1.2.5-1.7 0s-.5-1.2 0-1.7c1-1.2 1.5-2.4 1-3.4-.5-.7-1.2-1-1.5-1-1.7-.5-3.9 1.2-4.8 2.9-.7 1.5-1 3.9 1.5 8 0 0 0 .2.2.2 1.5-1 2.9-1.7 4.6-1.9 1.9-.2 5.8 0 6.8 2.7.7 2.2-.7 5.1-2.9 6.1-2.9 1.2-6.3-1-8.7-3.4-.7 1-1.5 2.2-1.5 3.4-.5 3.4 2.4 6.3 5.6 8 .7-1.2 1.7-2.2 2.7-2.9 2.2-1.7 4.4-2.7 6.5-2.2 1.7.2 3.4 1.5 4.4 3.1.7 1.2 1 2.2.7 3.1-1 2.9-6.1 3.6-9.7 2.9-1.2-.2-2.4-.5-3.4-1-.5 1.2-1 2.7-1 4.1 0 2.7 1.5 5.6 3.6 7 2.7 1.9 5.6 1.7 8.7 1.7 2.7-.2 5.3-.7 8-1.9.7-.2 1.2 0 1.7.5.2.7 0 1.2-.5 1.7-2.9 1.2-5.8 1.9-8.7 2.2-.9-.2-1.9-.2-2.8-.2zm-7.8-17.5c1 .2 1.7.5 2.7.7 3.1.5 6.5-.2 7-1.2 0-.2 0-.7-.5-1.2-.7-1-1.7-1.9-2.9-1.9-1.2-.2-2.9.5-4.4 1.7-.7.5-1.2 1.2-1.9 1.9zm-4.4-14c1.9 1.9 4.4 3.4 6.1 2.9 1.2-.5 1.9-2.2 1.7-2.9-.2-1-2.4-1.5-4.4-1.2-1.2 0-2.4.5-3.4 1.2z" fill="#B4C99A"/><path d="M207.208 337.6c-.2 0-.5 0-.5-.2-.5-.2-.7-1-.5-1.7 1.5-2.7 2.9-5.3 4.8-7.8 1.7-2.2 3.6-4.4 5.8-6.5.5-.5 1.2-.5 1.7 0s.5 1.2 0 1.7c-1.9 1.9-3.9 3.9-5.301 6.1-1.7 2.4-3.099 4.8-4.599 7.3-.7.9-.9 1.1-1.4 1.1zM229.507 354.4c-.5 0-1-.2-1.2-.7-1.9-4.6-3.1-9.7-3.6-14.8-.5-4.8-.2-9.9 1-14.5.2-.7.7-1 1.5-1 .7.2 1 .7 1 1.5-1 4.6-1.2 9.2-.7 14 .5 4.8 1.5 9.4 3.4 14 .2.7 0 1.2-.7 1.7-.5-.2-.5-.2-.7-.2zM308.707 328c-5.8 0-10.7-5.3-10.7-12.1s4.8-12.1 10.7-12.1c5.8 0 10.7 5.3 10.7 12.1 0 6.7-4.9 12.1-10.7 12.1zm0-21.8c-4.6 0-8.2 4.4-8.2 9.7 0 5.3 3.6 9.7 8.2 9.7s8.2-4.4 8.2-9.7c0-5.4-3.6-9.7-8.2-9.7zM250.607 308.6h-.2c-5.8-1.2-9.7-6.3-9.7-12.1 0-6.8 5.6-12.4 12.4-12.4 5.1 0 9.4 2.9 11.4 7.5.7 1.5 1 3.1 1 4.8 0 3.9-1.7 7.3-4.8 9.7-.5.5-1.2.2-1.7-.2-.5-.5-.2-1.2.2-1.7 2.4-1.9 3.9-4.8 3.9-7.8 0-1.2-.2-2.7-.7-3.9-1.5-3.6-5.1-6.1-9.2-6.1-5.6 0-9.9 4.4-9.9 9.9 0 4.6 3.1 8.7 7.8 9.7.5 0 1 .5 1 1.2-.3.6-1.1 1.4-1.5 1.4zM280.408 325.8c-6.1 0-11.1-4.8-11.1-11.1 0-1.5.2-3.1 1-4.4 1.2-2.7 3.4-4.8 6.1-5.8 2.9-1.2 6.3-1 9 .2.5.2 1 1 .5 1.7-.2.5-1 .7-1.7.5-2.2-1.2-4.8-1.2-7-.2-2.2.7-3.9 2.4-4.6 4.6-.5 1-.7 2.2-.7 3.4 0 4.8 3.9 8.7 8.7 8.7 4.8 0 8.7-3.9 8.7-8.7 0-1.9-.5-3.6-1.7-5.1-.5-.5-.2-1.2.2-1.7.5-.5 1.2-.2 1.7.2 1.5 1.9 2.2 4.1 2.2 6.5-.2 6.3-5.3 11.2-11.3 11.2z" fill="#B4C99A"/><path d="M277.707 348.8c-6.5 0-12.1-5.6-12.1-12.6s5.3-12.6 12.1-12.6 12.1 5.6 12.1 12.6c0 6.8-5.3 12.6-12.1 12.6zm0-23c-5.3 0-9.7 4.6-9.7 10.2s4.4 10.2 9.7 10.2c5.3 0 9.7-4.6 9.7-10.2s-4.4-10.2-9.7-10.2z" fill="#B4C99A"/><path d="M285.407 329.2c-.5 0-1-.5-1.2-1-.2-.7-.2-1.5-.2-2.2 0-1 .2-1.9.5-2.9 0-.5.5-1 1.2-1s1.2.5 1.2 1.2v.2c-.2.7-.2 1.7-.2 2.4 0 .5 0 1.2.2 1.7-.2.8-.5 1.3-1.5 1.6zM295.108 337.6c-2.9 0-5.6-1.2-7.8-3.1l1.7-1.7c1.5 1.7 3.6 2.4 5.8 2.4 4.8 0 8.7-4.1 8.7-9.2 0-.7.5-1.2 1.2-1.2s1.2.5 1.2 1.2c.4 6.3-4.7 11.6-10.8 11.6zM290.007 318.3c-.5 0-.7-.2-1-.5-.2-.5-.2-1.2.2-1.7 3.1-1.9 7.3-2.2 10.4-.5.5.2.7 1 .5 1.7-.2.5-1 .7-1.7.5-2.4-1.2-5.6-1.2-8 .5.1-.3-.1 0-.4 0zM293.907 311.5c-6.8 0-12.4-4.8-12.4-10.9 0-6.1 5.6-10.9 12.4-10.9 6.8 0 12.4 4.8 12.4 10.9 0 6-5.6 10.9-12.4 10.9zm0-19.4c-5.3 0-9.9 3.9-9.9 8.5s4.4 8.5 9.9 8.5c5.6 0 9.9-3.9 9.9-8.5s-4.3-8.5-9.9-8.5zM254.207 349.3c-7.8 0-13.8-5.6-13.8-12.4 0-4.8 3.1-9.2 8-11.1.7-.2 1.2 0 1.7.7.2.7 0 1.2-.7 1.7-3.9 1.7-6.5 5.1-6.5 9 0 5.6 5.1 9.9 11.4 9.9 6.3 0 11.4-4.6 11.4-9.9 0-2.7-1.2-5.1-3.1-6.8-.5-.5-.5-1.2 0-1.7s1.2-.5 1.7 0c2.4 2.4 3.9 5.3 3.9 8.7 0 6.3-6.3 11.9-14 11.9zM269.008 312.7c-.7 0-1.2-.5-1.2-1 0-.7.5-1.2 1-1.5.7 0 1.5-.2 2.2-.5.7-.2 1.2 0 1.7.7.2.7 0 1.2-.7 1.7-1.1.1-2.1.6-3 .6zM276.708 306.9h-.5c-.5-.2-1-1-.5-1.7.5-1.2 1-2.4 1-3.9 0-5.1-3.9-9.2-8.7-9.2-1.5 0-2.9.2-4.1 1-.5.2-1.2.2-1.7-.5-.2-.5 0-1.2.5-1.7 1.7-1 3.4-1.5 5.3-1.5 6.1 0 11.1 5.1 11.1 11.6 0 1.7-.5 3.4-1.2 5.1-.2.5-.7.8-1.2.8z" fill="#B4C99A"/><path d="M257.808 331.8c-7.8 0-14-6.3-14-14 0-7.8 6.3-14 14-14s14 6.3 14 14c.1 7.7-6.2 14-14 14zm0-25.6c-6.3 0-11.6 5.1-11.6 11.6s5.1 11.6 11.6 11.6 11.6-5.1 11.6-11.6c.1-6.6-5.3-11.6-11.6-11.6z" fill="#B4C99A"/><path d="M257.607 324.1c5.2 0 9.4-3.5 9.4-7.8s-4.2-7.8-9.4-7.8-9.4 3.5-9.4 7.8c-.1 4.3 4.2 7.8 9.4 7.8zM254.207 345.1c5.2 0 9.4-3.5 9.4-7.8s-4.2-7.8-9.4-7.8-9.4 3.5-9.4 7.8c-.1 4.4 4.2 7.8 9.4 7.8zM292.707 307.6c5.4 0 9.7-3.6 9.7-8s-4.3-8-9.7-8c-5.4 0-9.7 3.6-9.7 8s4.4 8 9.7 8zM483.107 357c-1.7 0-3.4-.2-5.1-1.2-1.9-1-3.6-2.4-4.8-4.4-3.1.5-6.3 0-9-1.2-3.9-1.9-6.8-5.3-8.2-9.7-1.2-4.4-1-9.2 1.2-13.6 4.4-9 14.3-13.1 22.5-9.2 2.2 1 4.4 2.7 5.8 4.8 2.9-.7 5.6-.5 8 .7 7 3.4 9.4 13.6 5.1 22.5-3.1 7.2-9.4 11.3-15.5 11.3zm-8.7-8.2l.5.7c1 1.9 2.4 3.1 4.4 4.1 5.8 2.9 13.8-1.2 17.4-9 3.6-7.8 1.9-16.5-3.9-19.1-2.2-1-4.6-1.2-7.3-.5l-1 .2-.5-.7c-1.2-2.2-3.1-3.6-5.3-4.6-7-3.4-15.5.5-19.4 8.2-1.7 3.9-2.2 8-1 11.9 1.2 3.9 3.6 6.8 6.8 8.2 2.4 1.2 5.3 1.5 8.2 1l1.1-.4z" fill="#B4C99A"/><path d="M465.208 339.1c-.5 0-1-.2-1.2-.7-2.2-6.1-.5-12.4 3.6-15 2.4-1.5 5.1-1.5 6.8-1.2.7 0 1.2.7 1 1.5 0 .7-.7 1.2-1.5 1-1.5-.2-3.4-.2-5.1.7-3.4 1.9-4.4 7-2.7 12.1.2.7 0 1.2-.7 1.5 0 .1-.2.1-.2.1zM500.607 313.2s-1.7 4.6-5.6 6.3c-3.9 1.7-8.5.2-8.5.2s1.7-4.6 5.6-6.3c3.9-1.7 8.5-.2 8.5-.2z" fill="#B4C99A"/><path d="M486.507 320.9c-.5 0-1-.2-1.2-1-.5-1.9-1.5-3.6-2.7-5.3-1.2-1.5-2.4-2.7-4.1-3.9-.5-.5-.7-1.2-.2-1.7.5-.5 1.2-.7 1.7-.2 1.7 1.2 3.4 2.7 4.6 4.4 1.5 1.7 2.4 3.9 3.1 6.1.2.7-.2 1.2-.7 1.5-.2.1-.2.1-.5.1zM373.807 227.7c-1.7 0-3.4-.2-5.1-1.2-1.9-1-3.6-2.4-4.8-4.4-3.1.5-6.3 0-9-1.2-3.9-1.9-6.8-5.3-8.2-9.7-1.2-4.4-1-9.2 1.2-13.6 4.4-9 14.3-13.1 22.5-9.2 2.2 1 4.4 2.7 5.8 4.8 2.9-.7 5.6-.5 8 .7 7 3.4 9.4 13.6 5.1 22.5-3.1 6.9-9.4 11.3-15.5 11.3zm-8.7-8.3l.5.7c1 1.9 2.4 3.1 4.4 4.1 5.8 2.9 13.8-1.2 17.4-9 3.6-7.8 1.9-16.5-3.9-19.1-2.2-1-4.6-1.2-7.3-.5l-1 .2-.5-.7c-1.2-2.2-3.1-3.6-5.3-4.6-7-3.4-15.5.5-19.4 8.2-1.7 3.9-2.2 8-1 11.9 1.2 3.9 3.6 6.8 6.8 8.2 2.4 1.2 5.3 1.5 8.2 1l1.1-.4z" fill="#B4C99A"/><path d="M355.907 209.8c-.5 0-1-.2-1.2-.7-2.2-6.1-.5-12.4 3.6-15 2.4-1.5 5.1-1.5 6.8-1.2.7 0 1.2.7 1 1.5 0 .7-.7 1.2-1.5 1-1.5-.2-3.4-.2-5.1.7-3.4 1.9-4.4 7-2.7 12.1.2.7 0 1.2-.7 1.5l-.2.1zM391.307 183.6s-1.7 4.6-5.6 6.3c-3.9 1.7-8.5.2-8.5.2s1.7-4.6 5.6-6.3c3.9-1.7 8.5-.2 8.5-.2z" fill="#B4C99A"/><path d="M377.207 191.3c-.5 0-1-.2-1.2-1-.5-1.9-1.5-3.6-2.7-5.3-1.2-1.5-2.4-2.7-4.1-3.9-.5-.5-.7-1.2-.2-1.7.5-.5 1.2-.7 1.7-.2 1.7 1.2 3.4 2.7 4.6 4.4 1.5 1.7 2.4 3.9 3.1 6.1.2.7-.2 1.2-.7 1.5-.2.1-.2.1-.5.1zM219.807 270.5c-.5 0-.7-.2-1-.5-1-1.2-1.7-2.7-2.2-4.1-.7-2.2-1.2-4.4-1.5-6.8 0-.7.5-1.2 1.2-1.2.5 0 1.2.5 1.2 1.2 0 2.2.5 4.1 1.2 6.1.5 1.2 1.2 2.4 1.9 3.6.5.5.2 1.2-.2 1.7h-.6z" fill="#B4C99A"/><path d="M219.607 261.1c-.7 0-1.5 0-2.2-.2-10.2-2.7-14.3-20.6-14.5-32-.2-8.7 1.7-9.4 2.4-9.4 1.9-.7 3.6 2.2 6.3 6.8 2.7 4.4 6.5 10.9 9.2 10.4 1.9-.2 3.6-3.9 4.6-5.8.7-1.7 1.2-2.2 1.9-2.4l.5-.2.5.2c.7.5.7 1.2 1 2.9.2 2.7.7 7.5 3.4 9.4 3.9 3.1 13.6-.5 21.6-4.8.7-.5 1.5-.2 1.9.5.5.7.5 1.5 0 1.9-2.9 3.1-10.9 10.9-20.8 16.7-7.1 3.6-12 6-15.8 6zm-13.8-39.5c-1 1.7-1.2 12.1 1.7 22.3 2.4 8.2 6.1 13.3 10.4 14.5 3.1.7 7.3-.7 16-5.6 6.8-3.9 12.6-8.7 16.5-12.4-6.5 3.1-14.8 5.6-19.1 1.9-2.9-2.4-3.6-6.8-4.1-9.9-1.2 2.4-3.1 5.6-5.8 6.1-4.4.7-8.2-5.8-11.6-11.6-1.6-1.9-3.3-4.6-4-5.3z" fill="#B4C99A"/><path d="M279.607 148.2c-8-8.2-20.3-9.2-28.8-7.5-33.9 7-38.5 69.8-38.8 79.2v4.6c2.9 4.8 6.3 9.9 9.4 9.2 3.6-.7 6.1-8.7 6.5-8.2.5.2.2 7.8 3.4 11.6 18.2-8 41.9-40 44.8-44.1 6.8-9.2 10.7-16 10.7-24.7.3-3.1.1-12.8-7.2-20.1zm-34.6 75.6c-.5.5-1.5-.2-1-.7 6.8-9.4 17.9-24.9 24.9-35.6 1-1.7 2.9-4.4 4.8-8.2 3.1-6.1 5.1-11.6 6.5-16.2.5-1.5 2.4-1.5 2.7 0 .5 1.7.7 3.6 1 5.6.2 8.2-4.1 14.5-7 18.7-9.6 12.7-23.7 27.7-31.9 36.4zM344.807 228.2c-29.3-15-65.9-3.4-85.3 26.2l7.5 4.1c17-24.9 48.2-34.9 73.4-21.8 25.9 13.3 35.8 45.8 24.2 74.6l7.5 4.1c14.3-34 3-71.7-27.3-87.2z" fill="#B4C99A"/><path d="M359.807 309.5l-88.7-48 .7-1.2c15.5-22.3 44.1-30.5 66.1-19.1 23 11.9 32.7 40.7 22.3 66.9l-.4 1.4zm-85.3-48.6l84 45.3c9.2-24.7 0-51.4-21.6-62.5-20.7-10.7-47.3-3.4-62.4 17.2z" fill="#B4C99A"/><path d="M313.807 284.6c-.5 0-1-.2-1.2-.7l-.5-1.2-15.3-40.9c-.2-.7 0-1.2.7-1.5.7-.2 1.2 0 1.5.7l15.7 42.4c.2.7 0 1.2-.7 1.5 0-.3 0-.3-.2-.3zM321.008 288.5c-.5 0-1-.2-1.2-.7l-4.1-11.1-13.6-36.8c-.2-.7 0-1.2.7-1.5.7-.2 1.2 0 1.5.7l17.7 48c.2.7 0 1.2-.7 1.5 0-.1 0-.1-.3-.1z" fill="#B4C99A"/><path d="M318.907 287.3c-1 0-1.5-.5-1.5-1.2 0-.5.5-1 1-1.2l1.5-.5 40.9-13.3c.7-.2 1.2.2 1.5.7.2.7-.2 1.2-.7 1.5l-42.7 14zM312.107 283.6c-.5 0-1-.2-1.2-.7-.2-.7.2-1.2.7-1.5l9.4-3.1 38-12.4c.7-.2 1.2.2 1.5.7.2.7-.2 1.2-.7 1.5l-47.2 15.5h-.5z" fill="#B4C99A"/><path d="M313.107 284.1c-.2 0-.5 0-.5-.2-.5-.2-.7-1-.5-1.7l22.5-41.4c.2-.5 1-.7 1.7-.5.5.2.7 1 .5 1.7l-22.3 41.4c-.5.5-1 .7-1.4.7zM318.107 287c-.2 0-.5 0-.5-.2-.5-.2-.7-1-.5-1.7l3.4-6.3 18.9-35.1c.2-.5 1-.7 1.7-.5.5.2.7 1 .5 1.7l-22.5 41.4c-.2.5-.5.7-1 .7z" fill="#B4C99A"/><path d="M320.607 276.8l-1-.5c-4.4-2.4-9.9-.7-12.4 3.9l17 9c2.7-4.6 1-10.2-3.6-12.4zM290.107 261c.5-.6-.3-2.2-1.8-3.5-1.5-1.3-3.2-1.9-3.7-1.3-.5.6.3 2.2 1.8 3.5 1.5 1.3 3.2 1.9 3.7 1.3zM341.507 256.9c1.3-1.5 1.9-3.2 1.3-3.7-.6-.5-2.2.3-3.5 1.8-1.3 1.5-1.9 3.2-1.3 3.7.6.4 2.2-.3 3.5-1.8zM344.907 265.6c1.8-.8 3.1-2.1 2.7-2.8-.3-.7-2.1-.7-3.9.1-1.8.8-3.1 2.1-2.7 2.8.3.7 2 .7 3.9-.1zM73.307 158.4c-3.1 0-6.3-1-9.2-2.9-2.2-1.5-4.4-2.9-6.3-4.4l-1-.7 7.3-12.8c.2-.2.2-.7.2-1 0-.7-.5-1.5-1-1.7-1-.5-2.2-.2-2.7.7l-7 12.4-1.2-1c-4.6-3.6-9-7.5-13.1-11.6l-.7-.7 10.9-18.9c.2-.2.2-.7.2-1 0-.7-.5-1.5-1-1.7-1-.5-2.2-.2-2.7.7l-10.2 18.2-1.2-1.2c-5.8-6.1-11.1-12.6-16-19.4l-.2-.2v-.8l.2-.2 7-12.1c.2-.2.2-.7.2-1 0-.7-.5-1.5-1-1.7-.5-.2-1-.2-1.5-.2-.5.2-1 .5-1.2 1l-6.3 11.1-1-1.7c-3.9-5.8-7-11.9-9.9-17.7l-.7-1.5 1.5-.5c11.6-1.2 23-1 34.2.7l1.7.2-3.9 7c-.2.5-.2 1-.2 1.5.2.5.5 1 1 1.2 1 .5 2.2.2 2.7-.7l4.6-8.2 1 .2c10.2 2.2 20.1 5.6 29.6 9.9l1.2.5-8.2 14.3c-.5 1-.2 2.2.7 2.7 1 .5 2.2.2 2.7-.7l8.2-14h1l.2.2c2.2 1.2 4.1 2.2 6.1 3.4l1 .7-8 14c-.5 1-.2 2.2.7 2.7 1 .5 2.2.2 2.7-.7l8-13.8 1 .7c1 .7 1.9 1.2 2.9 1.9 3.4 2.4 5.8 6.1 6.5 10.4.7 4.4-.2 8.7-2.7 12.1-2.2 3.1-4.6 6.3-6.8 9.7-2.4 3.1-4.6 6.5-7 9.7-3.4 4.7-8.3 6.9-13.3 6.9zm-13.1-8.5c1.7 1.2 3.6 2.4 5.3 3.9 6.3 4.4 14.5 2.7 18.9-3.4 2.4-3.1 4.6-6.5 7-9.7 2.2-3.1 4.6-6.3 6.8-9.7 2.2-2.9 2.9-6.8 2.4-10.4-.7-3.6-2.7-6.8-5.6-8.7-.5-.5-1-.7-1.7-1.2l-6.5 11.6c-1.2 2.2-3.9 2.9-6.1 1.7-1-.5-1.7-1.5-2.2-2.7-.2-1.2-.2-2.4.5-3.4l6.8-11.9c-1.2-.7-2.4-1.5-3.9-2.2l-7.3 12.6c-1.2 2.2-3.9 2.9-6.1 1.7-2.2-1.2-2.9-3.9-1.7-6.1l7-12.1c-8.7-4.1-17.7-7-26.9-9l-3.9 6.5c-1.2 2.2-3.9 2.9-6.1 1.7-1-.5-1.7-1.5-2.2-2.7-.2-1.2-.2-2.4.5-3.4l2.2-3.9c-9.9-1.5-20.1-1.7-30.3-.7 2.4 4.8 5.1 9.4 8 14.3l4.4-7.8c.5-1 1.5-1.7 2.7-1.9 1.2-.2 2.4-.2 3.4.5 1.5.7 2.2 2.2 2.2 3.9 0 .7-.2 1.5-.5 2.2l-6.5 11.4c4.4 6.1 9.2 11.9 14.3 17.2l8.7-15.3c1.2-2.2 3.9-2.9 6.1-1.7 1.5.7 2.2 2.2 2.2 3.9 0 .7-.2 1.5-.5 2.2l-9.9 17.4c3.6 3.4 7.3 6.8 11.1 9.9l5.6-9.9c1.2-2.2 3.9-2.9 6.1-1.7 1.5.7 2.2 2.2 2.2 3.9 0 .7-.2 1.5-.5 2.2l-6 10.8zM140.107 165.4c-.2 0-.7 0-.7-.2-4.8-4.6-9.9-8.7-15.5-12.4-8-5.3-16.7-9.4-25.9-12.4-.7-.2-1-1-.7-1.5.2-.7 1-1 1.5-.7 9.4 2.9 18.4 7.3 26.4 12.6 5.6 3.6 10.9 8 15.7 12.6.5.5.5 1.2 0 1.7-.3.3-.5.3-.8.3zM101.408 184.3c-.2 0-.7 0-1-.2-.5-.5-.5-1.2 0-1.7 1.7-1.7 2.9-3.6 3.6-5.8.5-1.7 1.2-4.6 0-9.7-1.5-6.5-4.8-13.1-9.9-19.1-.5-.5-.2-1.2.2-1.7.5-.5 1.2-.2 1.7.2 5.3 6.3 9 13.3 10.4 20.3 1.5 5.8.7 9.2 0 11.1-.7 2.4-2.2 4.8-4.1 6.8-.5-.4-.7-.2-.9-.2zM123.607 177.1h-.7c-1.7-.5-1.9-3.1-2.2-4.4-.2-3.4-4.6-10.7-23.7-27.4-.5-.5-.5-1.2 0-1.7s1.2-.5 1.7 0c16 14 24.2 23.5 24.7 28.8.2 1.9.5 2.4.5 2.4.5 0 2.7-1.9 2.9-4.4.2-1.7-.2-4.1-6.1-9.9-4.8-4.8-10.7-9.2-17-12.8-.5-.2-.7-1-.5-1.7.2-.5 1-.7 1.7-.5 6.5 3.6 12.4 8 17.4 13.1 5.3 5.3 7.5 9 6.8 12.1-.5 2.4-2.4 4.8-3.9 5.8-.6.3-1.1.6-1.6.6zM34.307 260.1c-4.4 0-8.7-.7-12.8-2.2-12.8-.7-25.4-5.8-35.4-14.5-10.4-9.2-17.2-21.6-19.1-34.9-6.1-14.5-2.7-32 8.2-44.3 9.9-11.4 24.9-17 39-14.5 15.3-1 30 4.1 41.9 14.5 11.1 9.9 18.2 23.3 19.6 37.5 5.6 14.5 2.2 31-8.7 43.4-8.8 9.7-20.9 15-32.7 15zm-26.4-108.7c-11.4 0-22.8 5.1-31 14.3-10.4 11.9-13.6 28.3-7.8 41.9v.2c1.9 12.8 8.5 24.7 18.4 33.7 9.4 8.5 21.6 13.3 34.2 14h.2c14.8 5.1 32 .2 43.1-12.1 10.4-11.6 13.3-27.4 8.2-41.2v-.2c-1.5-13.8-8-26.6-18.7-36.1-11.4-9.9-25.7-15-40.2-14h-.4c-1.9-.3-3.9-.5-6-.5z" fill="#B4C99A"/><path d="M48.607 192.6c-1.7 2.2-7.5.2-13.3-4.1-5.6-4.4-9-9.7-7.3-11.9 1.7-2.2 7.5-.2 13.3 4.1 5.6 4.6 8.7 9.9 7.3 11.9z" fill="#B4C99A"/><path d="M54.907 156c.2 5.6-1 11.4-3.4 16.5-2.7 5.1-6.5 9.2-11.1 12.1-.5.2-1.2.2-1.7-.5-.2-.5-.2-1.2.2-1.7 4.1-2.9 7.3-7 9.2-11.6 1.9-4.6 2.7-9.7 1.9-14.5-.2-1.2.7-2.4 1.9-2.7 1.5.2 2.7.9 3 2.4zM74.507 203.2c-.2 0-.5 0-.7-.2-2.7-1.7-5.6-3.4-8.5-4.8-3.6-1.9-7.8-3.6-11.6-5.3-.7-.2-1-1-.7-1.7.2-.7 1-1 1.7-.7 3.9 1.7 8 3.4 11.9 5.3 2.9 1.5 5.8 3.1 8.5 4.8.5.2.7 1.2.5 1.7-.4.7-.9.9-1.1.9zM69.107 184.6c-.2 0-.5 0-.5-.2-2.9-1.5-7.5-3.4-13.1-2.7-2.2.2-4.1.7-6.1 1.7-.7.2-1.2 0-1.7-.7-.2-.7 0-1.2.7-1.7 2.2-1 4.4-1.7 6.8-1.9 6.3-.7 11.4 1.2 14.5 2.9.5.2.7 1 .5 1.7-.1.6-.6.9-1.1.9z" fill="#B4C99A"/><path d="M41.307 177.1c-.7 0-1.2-.7-1.2-1.2.2-4.4-.2-8.7-1.5-12.8-1-3.1-2.4-6.1-4.4-9-.5-.5-.2-1.2.2-1.7.5-.5 1.2-.2 1.7.2 1.9 2.9 3.6 6.1 4.8 9.4 1.5 4.4 1.9 9 1.7 13.8-.1.8-.6 1.3-1.3 1.3zM28.507 169.3c-.7 0-1.2-.5-1.2-1.2-.2-2.2-1.2-7.8-5.8-12.1-2.2-1.9-4.6-3.4-7.5-4.1-.7-.2-1-1-.7-1.5.2-.7 1-1 1.5-.7 3.1 1 6.1 2.7 8.5 4.8 5.1 4.6 6.3 10.7 6.5 13.8-.1.3-.6 1-1.3 1zM-31.893 209.3c-.7 0-1.2-.5-1.2-1.2-1.5-19.9 8-37.8 23-43.6 3.4-1.2 15.5-5.1 28.1 1.5 4.8 2.7 9 6.5 12.1 11.4.2.5.2 1.2-.2 1.7-.5.2-1.2.2-1.7-.2-2.9-4.6-6.8-8-11.1-10.4-9.2-4.8-19.4-3.9-26.2-1.5-14 5.3-23 22.3-21.6 41.2 0 .3-.4 1.1-1.2 1.1z" fill="#B4C99A"/><path d="M-26.792 225.7c-.7 0-1.2-.5-1.2-1.2-1.2-22.3 10.9-42.4 28.8-47.5 12.6-3.6 24.2 1 29.8 4.1.5.2.7 1 .5 1.7-.2.5-1 .7-1.7.5-5.3-2.9-16.2-7.5-28.1-3.9-16.7 4.8-28.3 24-27.1 45.1.2.8-.2 1.2-1 1.2zM8.607 255.8c-.5 0-1-.5-1.2-1 0-.7.2-1.2 1-1.5 22-3.9 38.8-18.9 40.9-36.6 1.2-10.2-2.4-18.9-5.8-24.5-.2-.5-.2-1.2.5-1.7s1.2-.2 1.7.5c3.6 5.8 7.5 15 6.3 25.9-2.5 19-20.2 34.8-43.4 38.9.2 0 .2 0 0 0z" fill="#B4C99A"/><path d="M27.707 258.4c-2.4 0-4.6-.2-7-.5-.7 0-1.2-.7-1-1.5 0-.7.7-1.2 1.5-1 22 3.6 40-10.7 42.9-26.2 2.2-11.9-3.6-24.9-15-33.2-.5-.5-.7-1.2-.2-1.7.5-.5 1.2-.7 1.7-.2 12.1 8.7 18.4 22.8 16 35.6-3.3 16.6-20.2 28.7-38.9 28.7zM-13.193 243.7c-.7 0-1.2-.5-1.2-1.2 0-7.3 1.7-21.1 11.4-34.4 12.6-17.2 30.5-22 37.8-23.3.7 0 1.2.2 1.5 1 0 .7-.2 1.2-1 1.5-6.8 1.2-24.2 5.8-36.3 22.3-9.2 12.6-10.9 26.2-10.9 32.9-.1.7-.6 1.2-1.3 1.2z" fill="#B4C99A"/><path d="M-11.793 244.9c-.7 0-1.2-.5-1.2-1.2s.5-1.2 1.2-1.2c5.1-.2 22.5-2.7 35.6-17.9 12.8-15.5 12.1-33.2 11.4-38.3 0-.7.5-1.2 1-1.5.7 0 1.2.5 1.5 1 .7 5.3 1.7 24-11.9 40-13.8 16.4-32.2 18.6-37.6 19.1zM194.107 168.3c-13.1 0-23.7-10.7-23.7-23.7s10.7-23.7 23.7-23.7c13.1 0 23.7 10.7 23.7 23.7s-10.6 23.7-23.7 23.7zm0-45.3c-11.9 0-21.3 9.7-21.3 21.3 0 11.6 9.7 21.3 21.3 21.3 11.6 0 21.3-9.7 21.3-21.3 0-11.6-9.4-21.3-21.3-21.3z" fill="#B4C99A"/><path d="M214.508 105.8c.7 3.6.7 7.5-.2 11.1-1 3.6-3.1 7.3-5.8 9.9-.5.5-1.2.5-1.7 0s-.5-1.2 0-1.7c2.7-2.4 4.8-5.3 6.3-8.7 1.4-3.1 1.9-6.7 1.4-10.6zM179.407 164.5c-1.2-2.4-3.6-3.4-4.4-3.6-9.2-3.1-22.3 11.6-21.1 13.3.2.5 1.5 0 3.4-.5 5.8-1.7 8.5-5.1 9-4.6 1.5 1-10.9 18.7-9.7 19.6.7.5 5.1-3.6 8-7 4.1-4.6 6.3-8.2 6.8-8 .2.2-.2 1.7-1.5 5.6-1.5 4.8-2.2 7-1.9 7.3 1.2.6 15.5-13.9 11.4-22.1zM489.907 241.5c-1.7 0-3.1-.2-4.8-.5-16.7-3.9-25.4-27.9-19.6-53.3 5.8-25.7 24.2-43.1 40.9-39.2 8.2 1.9 14.8 8.5 18.4 18.9 3.6 9.9 4.1 22.3 1.2 34.6-2.9 12.4-8.7 23.3-16.2 30.5-6.1 5.8-13.1 9-19.9 9zm12.1-91.3c-14.3 0-28.8 16-33.9 38-5.6 24.2 2.4 47 17.7 50.4 7.3 1.7 15.3-1.2 22.5-8.2 7.3-7 12.8-17.4 15.5-29.3 2.7-11.9 2.4-23.7-1-33.2-3.4-9.4-9.2-15.5-16.7-17.2-1.5-.5-2.7-.5-4.1-.5z" fill="#B4C99A"/><path d="M494.007 223.3c11 0 19.9-8.9 19.9-19.9 0-11-8.9-19.9-19.9-19.9-11 0-19.9 8.9-19.9 19.9 0 11 8.9 19.9 19.9 19.9zM542.707 73.9c-4.8 0-8.7 3.9-8.7 8.7 0 4.8 3.9 8.7 8.7 8.7 4.8 0 8.7-3.9 8.7-8.7 0-4.9-3.9-8.7-8.7-8.7zm4.6 5.1c-.7-.7-1-1.5-.7-1.7.2-.2 1 0 1.7.7s1 1.2.7 1.7c-.3.2-1 0-1.7-.7zM687.508 0c-4.8 0-8.7 3.9-8.7 8.7 0 4.8 3.9 8.7 8.7 8.7 4.8 0 8.7-3.9 8.7-8.7.3-4.8-3.8-8.7-8.7-8.7zm4.9 5.1c-.7-.7-1-1.5-.7-1.7.2-.2 1 0 1.7.7s1 1.2.7 1.7c-.5.2-1.3-.2-1.7-.7zM466.607 104.4c1 3.4 4.6 5.1 8 4.1 3.4-1 5.1-4.6 4.1-8-1-3.4-4.6-5.1-8-4.1-3.4 1.2-5.3 4.8-4.1 8zm2.4-4.4c-.2.5-.7 1-1 1-.2 0-.2-.7.2-1.2.2-.5.7-1 1-1 .3.3.1.7-.2 1.2zM572.007 274.2c3.1 1.7 7.3.5 9-2.9 1.7-3.1.5-7.3-2.9-9-3.1-1.7-7.3-.5-9 2.9-1.7 3.2-.5 7.3 2.9 9zm-1.5-5.1c.2.7.2 1.2 0 1.2s-.5-.5-.7-1c-.2-.7-.2-1.2 0-1.2.2-.2.5.3.7 1zM560.107 240.8c-1.2 4.6 1.5 9.2 6.1 10.7 4.6 1.2 9.2-1.5 10.7-6.1 1.2-4.6-1.5-9.2-6.1-10.7-4.6-1.2-9.5 1.5-10.7 6.1zm6.1-3.2c-.7.5-1.5.5-1.7.2-.2-.3.2-1 1.2-1.2.7-.5 1.5-.5 1.7-.2 0 .2-.5 1-1.2 1.2zM400.307 317.4c-1.2 4.6 1.5 9.2 6.1 10.7 4.6 1.2 9.2-1.5 10.7-6.1 1.2-4.6-1.5-9.2-6.1-10.7-4.6-1.2-9.4 1.5-10.7 6.1zm6.1-3.1c-.7.5-1.5.5-1.7.2-.2-.3.2-1 1.2-1.2.7-.5 1.5-.5 1.7-.2 0 .2-.5.9-1.2 1.2zM314.207 185.5c-.7 2.9 1 5.8 3.6 6.5 2.9.7 5.8-1 6.5-3.6.7-2.9-1-5.8-3.6-6.5-2.6-1-5.5.7-6.5 3.6zm3.9-2c-.5.2-1 .2-1 .2 0-.2.2-.5.7-.7.5-.2 1-.2 1-.2s-.2.5-.7.7zM395.007 339.8c-.7 2.9 1 5.8 3.6 6.5 2.9.7 5.8-1 6.5-3.6.7-2.9-1-5.8-3.6-6.5-2.7-1-5.6.7-6.5 3.6zm3.8-1.9c-.5.2-1 .2-1 .2 0-.2.2-.5.7-.7.5-.2 1-.2 1-.2s-.2.4-.7.7zM111.308 50.9c-.7 2.9 1 5.8 3.6 6.5 2.9.7 5.8-1 6.5-3.6.7-2.9-1-5.8-3.6-6.5-2.6-.8-5.5.7-6.5 3.6zm3.9-2c-.5.2-1 .2-1 .2 0-.2.2-.5.7-.7.5-.2 1-.2 1-.2 0 .2-.3.5-.7.7zM152.207 334.5c-.7 2.9 1 5.8 3.6 6.5 2.9.7 5.8-1 6.5-3.6.7-2.9-1-5.8-3.6-6.5-2.6-.8-5.5.9-6.5 3.6zm3.9-1.9c-.5.2-1 .2-1 .2 0-.2.2-.5.7-.7.5-.2 1-.2 1-.2 0 .2-.2.4-.7.7zM647.107 181.2c0 6.3-5.1 11.4-11.4 11.4-1.5 0-2.7-.2-3.9-.7l1.7-1.5c3.4-2.9 4.6-4.4 3.9-5.6-.7-1.2-2.2-.5-4.4.5-2.2 1.2-6.1 3.1-8 1.9-1.5-1-1.7-4.1-1.9-6.5-.2-2.4-.2-4.4-1.9-4.6-1.7-.2-2.7 1.7-3.9 4.1-.5 1.2-1.9 3.9-2.7 4.1-1-.2-2.4-4.4-2.9-6.1-1-2.9-1.5-4.4-2.9-4.1-1.4.3-1.7 2.2-1.7 4.8v9.2c-5.3-1-9.2-5.6-9.2-11.1 0-5.1 3.1-9.2 7.8-10.7 1-5.3 5.6-9.4 11.1-9.4 1 0 1.7 0 2.7.2 1.9-1.9 4.6-2.9 7.8-2.9 5.3 0 9.7 3.6 10.9 8.2 3.4 1.9 5.6 5.6 5.6 9.7v.7c1.8 2.1 3.3 5 3.3 8.4z" fill="#B4C99A"/><path d="M619.708 202.2l-11.9-4.1v-18.7c0-2.4 0-4.4 1.5-4.6 1.5-.2 1.9 1.2 2.9 3.9.5 1.5 1.7 5.6 2.7 5.6.7 0 1.9-2.7 2.4-3.9 1.2-2.4 1.9-4.1 3.6-3.9 1.7.2 1.7 2.2 1.7 4.4.2 2.2.2 5.1 1.7 6.1 1.7 1.2 5.3-.7 7.5-1.7 1.9-1 3.1-1.7 3.9-.5.8 1.2-.2 2.4-3.6 5.1l-12.4 12.3zm-9.4-6l9 3.1 11.1-10.4c-2.4 1-5.1 1.7-7 .2-2.4-1.5-2.7-5.3-2.9-8v-1.2c-.2.5-.5 1.2-.7 1.7-1.2 2.7-2.7 5.3-4.8 5.1-2.2 0-3.4-2.9-4.4-6.1l-.3 15.6zM147.107 71.4c2.4-4.6 2.7-9.4.7-10.4-2.2-1.2-5.8 1.7-8.5 6.3-2.4 4.6-2.7 9.4-.7 10.4 2.5 1.3 6.1-1.7 8.5-6.3zM158.807 95.2c4.1-3.4 6.1-7.8 4.4-9.4-1.5-1.9-6.1-.5-10.2 2.9s-6.1 7.8-4.4 9.4c1.7 1.9 6.3.5 10.2-2.9zM131.407 99.5c6.1-1.9 10.4-5.1 9.9-7.5-.7-2.4-6.3-2.7-12.4-1-6.1 1.9-10.4 5.1-9.9 7.5.8 2.5 6.3 2.7 12.4 1zM137.408 120.9c6.3-.5 11.4-2.9 11.1-5.3-.2-2.4-5.6-3.9-11.9-3.4-6.3.5-11.4 2.9-11.1 5.3.1 2.6 5.4 4.1 11.9 3.4zM165.307 119.4c5.6-3.4 9-7.8 7.5-9.7-1.2-2.2-6.8-1-12.1 2.2-5.6 3.4-9 7.8-7.5 9.7 1.2 2.2 6.5 1.2 12.1-2.2z" fill="#B4C99A"/><path d="M149.308 149.9c-.2 0-.2-.2 0 0-1 0-1.2-.7-1.2-1.5 1.7-10.2 1.9-20.6 1-31-.5-5.8-1-11.1-3.1-17.2-3.6-10.4-10.7-19.9-21.1-27.6-.5-.5-.7-1.2-.2-1.7.5-.5 1.2-.7 1.7-.2 10.7 8 18.2 17.9 21.8 28.8 2.2 6.3 2.7 11.9 3.1 17.7 1 10.7.5 21.3-1 31.7 0 .5-.5 1-1 1zM616.307 51.6c-5.3-.7-9.7.7-9.9 3.1-.2 2.4 3.6 4.8 9 5.6 5.3.7 9.7-.7 9.9-3.1.5-2.5-3.7-4.9-9-5.6zM634.507 32c-4.6-2.4-9.4-2.7-10.4-.7-1.2 2.2 1.7 5.8 6.3 8.2 4.6 2.4 9.4 2.7 10.4.7.9-1.9-1.7-5.6-6.3-8.2zM648.307 55.9c-3.9-5.1-8.7-8-10.7-6.5-1.9 1.5-.2 6.8 3.6 11.9 3.9 5.1 8.7 8 10.7 6.5 2-1.4.3-6.8-3.6-11.9zM666.207 42.9c-2.9-5.8-7-9.4-9.2-8.5-2.2 1-1.7 6.5 1.2 12.4 2.9 5.8 7 9.4 9.2 8.5 2.2-1.3 1.7-6.9-1.2-12.4zM654.607 17.4c-5.1-3.9-10.4-5.6-11.9-3.6-1.5 2 1.5 6.5 6.5 10.4 5.1 3.9 10.4 5.6 11.9 3.6 1.5-1.9-1.4-6.5-6.5-10.4z" fill="#B4C99A"/><path d="M624.507 72.7h-.2c-.7-.2-1-.7-.7-1.5 3.4-12.8 9.9-23.5 18.9-30.8 5.1-4.4 9.9-6.8 15.3-9.4 9.4-4.8 19.6-8.2 29.8-10.4.7-.2 1.2.2 1.5 1 .2.7-.2 1.2-1 1.5-10.2 2.2-20.1 5.6-29.3 10.4-5.1 2.7-9.9 4.8-14.8 9-8.5 7-14.5 17.2-17.9 29.6-.6.1-1.1.6-1.6.6zM599.107 147.7c-5.6 0-10.4-1-12.6-1.7-.2 0-6.1-1.7-29.8-18.6-2.9-1-5.8-1.2-8.7-.7-7.3 1.2-11.4 8-13.1 10.7-.7 1.5-1.5 2.4-2.7 1.7l-.7-.5v-.7c0-1.7 7.8-13.6 11.4-15.5 2.9-1.5 6.8-3.1 9.7-4.4 2.2-1 3.9-2.7 4.8-4.8 1-2.7 1.5-3.9 1.5-4.4 2.4-14.3 16.7-24.7 18.2-25.9 11.6-8.2 31-10.9 44.8-.2 12.4 9.9 12.8 25.7 12.6 30.3-.2 5.1-1.7 17.7-11.9 26.4-7.5 6.6-16.5 8.3-23.5 8.3zm-48.4-23.5c2.2 0 4.6.5 7 1.2l.2.2c23.3 16.5 29.1 18.2 29.3 18.4 4.8 1.2 21.3 4.6 33.9-6.1 9.4-8.2 10.9-19.9 11.1-24.7.2-3.1.2-18.9-11.6-28.3-12.1-9.7-30.8-7.5-41.9.2-1.5 1-15 10.9-17.2 24.2-.2 1-.7 2.7-1.7 4.8-1.2 2.7-3.4 5.1-6.1 6.1-2.7 1.2-6.5 2.7-9.4 4.1-.5.2-1.2.7-1.9 1.7 1.5-1 3.4-1.5 5.3-1.9.8.1 2 .1 3 .1z" fill="#B4C99A"/><path d="M572.207 104.6l-.5-.5c-.5-.7-.2-1.5 0-1.7 1.7-3.1 16-22.5 32.9-20.6 9 1.2 16 8 17.2 10.4.2.7.2 1.2 0 1.7-.7 1.2-1.9.5-4.1-.5-3.1-1.7-9.2-5.1-16.5-5.1-9 0-17.9 4.8-26.6 14.8-1 1.2-1.2 1.5-1.9 1.5h-.5zm29.1-18.4s.2 0 0 0c6.5 0 11.9 2.4 15.5 4.1-2.7-2.4-7-5.1-12.4-5.8-6.5-.7-12.8 1.9-17.9 5.8 5.1-2.9 9.9-4.1 14.8-4.1zM636.907 111.7c-.2 0-.7-.2-1-.5-.5-.5-.2-1.2.2-1.7 6.5-5.1 13.1-7.8 19.9-8.5 3.6-.2 7 0 9.9.2 4.6.5 7.3.5 8.2-1 1-1.5.7-3.6.2-5.3-1-2.7-3.6-3.6-4.6-3.9-2.4-1-6.3-1.2-16.5 3.4-6.5 2.9-10.4 5.8-12.4 7.3-1.7 1.2-2.7 1.7-3.4.7-.7-.7 0-1.7 0-2.2 1.9-3.6 14-17.4 25.7-16 .5 0 .7.2 1.2.2 1 .2 2.4.5 2.9 0 .2-.2.2-1 0-2.2-.5-2.2-2.4-4.6-4.6-5.3-1.9-.7-6.1 1.5-11.6 5.6-5.1 3.9-9.9 8.5-14 13.8-.5.5-1.2.5-1.7.2-.5-.5-.5-1.2-.2-1.7 4.4-5.3 9.2-10.2 14.5-14.3 8.5-6.5 11.9-6.5 13.8-6.1 3.1 1 5.3 4.4 6.1 7 .5 1.7.5 3.4-.5 4.4-1.2 1.5-3.4 1.2-5.1.7-.5 0-.7-.2-1.2-.2-7.3-1-15.3 5.6-19.9 10.4 2.2-1.5 5.3-3.1 9.2-5.1 10.9-5.1 15.3-4.6 18.4-3.4 1.2.5 4.6 1.7 6.1 5.3 1 2.2 1.2 5.3-.5 7.8-1.9 2.9-5.8 2.4-10.7 2.2-2.9-.2-6.1-.5-9.4-.2-6.3.5-12.6 3.4-18.7 8 .4.4-.1.4-.3.4z" fill="#B4C99A"/><path d="M671.807 117c0 .7-.2 1.7-1 3.9-1.2 2.9-1.7 4.6-2.9 5.1-2.4 1-5.3-4.4-10.2-8.2-9.4-7.5-20.6-5.6-20.6-7 0-1.5 9.9-3.1 20.1-1.2.5-.1 14.1 2.5 14.6 7.4zM433.907 314.6c-.7 0-1.7 0-2.4-.2-4.1-1-6.1-4.4-8.2-8.5-2.2-3.9-4.6-8.7-10.2-13.8-4.6-4.6-8-6.1-10.4-7.3-2.7-1.2-5.1-2.2-7.3-5.8-9-13.6-.5-36.1 5.8-47.5 1.2-2.2 2.7-4.1 3.6-5.8 2.4-3.9 4.6-6.8 5.6-12.1 1-4.8.5-9.4 0-12.8-.2-3.9-.5-6.3 1.5-7.3 1.7-.7 2.7.7 3.9 2.2 1.2 1.5 2.9 3.4 5.6 4.8 3.9 1.9 7.3 1.7 10.4 1.7 2.9-.2 5.8-.2 7.3 1.9 1.2 1.7.7 3.6.2 5.6-.5 1.7-1 3.9-.5 6.5 1 3.9 3.6 6.5 5.3 8l.2.2c5.3 4.8 23.3 22.3 26.4 37.5 3.4 17.2-11.6 33.4-17.2 39.5-4.6 5.2-11.8 13.2-19.6 13.2zm-21.1-118.7c-.2.7 0 2.9.2 4.6.2 3.6.7 8.2-.2 13.6-1 5.8-3.1 9.2-5.8 13.1-1.2 1.7-2.4 3.4-3.6 5.8-5.6 9.9-14.3 32.2-6.1 44.8 1.9 2.9 3.6 3.6 6.3 4.8 2.7 1.2 6.3 2.9 11.1 7.5 5.6 5.6 8.5 10.4 10.4 14.5 2.2 3.9 3.6 6.5 6.8 7.3 7 1.7 15.3-7 20.1-12.4 5.3-5.8 19.9-21.3 16.5-37.3-3.1-15-21.8-32.9-25.7-36.3l-.2-.2c-1.9-1.7-5.1-4.6-6.1-9.2-.7-3.1 0-5.8.5-7.8.5-1.7.7-2.7 0-3.6-.7-1.2-2.4-1.2-5.3-1-3.1.2-7.3.5-11.6-1.9-3.1-1.7-5.1-3.9-6.3-5.3 0-.2-.7-.7-1-1z" fill="#B4C99A"/><path d="M418.207 296.9c-.7 0-1.2-.7-1.2-1.2.2-3.4-.2-7-1-10.2-.5-2.2-1.2-4.1-2.2-6.1-.2-.5 0-1.2.5-1.7.5-.2 1.2 0 1.7.5 1 2.2 1.9 4.4 2.4 6.5 1 3.6 1.2 7.3 1.2 10.9-.2.9-.7 1.3-1.4 1.3zM439.307 160.8c-1.5 0-3.1.2-3.1.2-1.5.2-2.9 1-4.4 1.9 0-.7-.7-4.1-3.6-6.5-2.9-2.4-6.1-2.2-7-2.2-6.1.2-12.8 6.1-12.4 12.1.5 5.6 6.5 9.2 7 9.7 1 .5 1 .5 1.5.7 2.2 1.7 3.4 6.5-1.2 20.8 1.5 1.5 4.4 3.6 8.5 5.1 2.7.7 9 .2 9 .2-.7-10.7 1.7-14.5 4.1-16.2 3.1-1.9 5.6 0 9.4-2.2 4.1-2.4 7.5-8.2 6.3-13.8-1.6-7.8-11.2-9.8-14.1-9.8zM332.508 173.9c-1.1 0-2.2-.3-3.1-1l-3.3-2.4c-1.9-1.4-2.7-3.9-2-6.1l9.4-27.6c1.1-3.2 3.7-5.7 7-6.5 3.4-.9 6.9 0 9.5 2.4 1.4 1.2 2.8 2.5 4.2 3.6 1.7 1.4 3.4 2.7 5.1 4 2.7 2 4.2 5 4.2 8.4-.1 3.3-1.7 6.3-4.4 8.2l-23.5 16.2c-1 .5-2.1.8-3.1.8zm10.5-42c-.7 0-1.4.1-2.1.3-2.7.7-4.8 2.6-5.7 5.2l-9.4 27.6c-.5 1.4 0 3 1.2 3.9l3.3 2.4c1.2.8 2.7.8 3.9 0l23.5-16.2c2.2-1.5 3.5-3.9 3.5-6.6 0-2.7-1.2-5.1-3.3-6.7-1.8-1.3-3.5-2.7-5.2-4-1.4-1.2-2.8-2.4-4.2-3.7-1.4-1.5-3.4-2.2-5.5-2.2zM324.508 165.5l-2-.4 2 .4z" fill="#B4C99A"/><path d="M336.108 173.2c-.3 0-.7 0-1-.1l-.3-.1.4-2 .3.1c.8.2 1.5 0 2.2-.4l16.8-10.2 8.1-4.9c3-1.8 4.3-5.2 3.3-8.9-.9-3.5-4.1-6.3-8-6.8l-2.5-.4.3-2 2.5.4c4.7.7 8.5 4 9.6 8.3 1.2 4.5-.5 8.9-4.2 11.1l-8.1 4.9-16.8 10.2c-.8.6-1.7.8-2.6.8zM323.808 167l-.7-2c-.4-1-.4-2.1-.1-3.1l8.4-29.3c.7-2.5 2.3-4.5 4.5-5.7 2.6-1.4 6-1.7 9.2-.8 3.3 1 5.9 4 6.5 7.6l.1.8-2 .3-.1-.8c-.5-2.9-2.5-5.3-5.1-6-2.7-.8-5.5-.6-7.6.6-1.8 1-3 2.5-3.6 4.5l-8.4 29.3c-.2.6-.2 1.3.1 1.9l.7 2-1.9.7z" fill="#B4C99A"/><path d="M323.908 163.1l-2-.1c-1.3-.1-2.5-.8-3.3-1.8-.8-1.1-1-2.4-.6-3.7l7.8-26.9c1.3-4.6 4.7-8.3 9.2-10 4.5-1.7 9.4-1.2 13.5 1.3 3.3 2.1 4.4 6.6 2.3 9.9l-1.7-1.1c1.5-2.4.8-5.6-1.6-7.2-3.5-2.2-7.8-2.7-11.7-1.2-3.9 1.5-6.8 4.6-8 8.7l-7.8 26.9c-.2.7-.1 1.4.3 2 .4.6 1.1 1 1.8 1l2 .1-.2 2.1zM343.607 176.2c-2 0-4-.7-5.6-2.1l-1.4-1.3 1.3-1.5 1.4 1.3c2.2 2 5.6 2.2 8 .4l21.7-15.8c4.4-3.2 5.5-9.4 2.5-14l-1.1-1.7c-1.8-2.8-5.6-3.7-8.5-2.1l-1.4.8-1-1.7 1.4-.8c3.8-2.1 8.7-.9 11.1 2.7l1.1 1.7c3.6 5.5 2.3 12.8-3 16.7l-21.7 15.8c-1.4 1.1-3.1 1.6-4.8 1.6zM363.107 124.6c3.6-1.3 7.6-2.7 11.1-.8 1.7.9 4.1 3 3.9 5.5-.1 1.5-1.2 3.4-2.9 3.6-1 .1-2.3-.4-2.8-1.3-.6-1.1.2-2.1-.3-2.8-.7-.8-2.7-.6-4.2 0-4.1 1.7-3.6 5.8-6.7 7-3.2 1.3-8.4-1.3-8.6-3.8-.3-3.5 8.4-6.6 10.5-7.4zM503.808 301.2c-1.1 0-2.2-.3-3.1-1l-3.3-2.4c-1.9-1.4-2.7-3.9-2-6.1l9.4-27.6c1.1-3.2 3.7-5.7 7-6.5 3.4-.9 6.9 0 9.5 2.4l4.2 3.6c1.7 1.4 3.4 2.7 5.1 4 2.7 2 4.2 5 4.2 8.4-.1 3.3-1.7 6.3-4.4 8.2l-23.5 16.2c-1 .5-2.1.8-3.1.8zm10.6-41.9c-.7 0-1.4.1-2.1.3-2.7.7-4.8 2.6-5.7 5.2l-9.4 27.6c-.5 1.4 0 3 1.2 3.9l3.3 2.4c1.2.8 2.7.8 3.9 0l23.5-16.2c2.2-1.5 3.5-3.9 3.5-6.6 0-2.7-1.2-5.1-3.3-6.7-1.8-1.3-3.5-2.6-5.2-4-1.4-1.2-2.9-2.4-4.2-3.7-1.5-1.5-3.5-2.2-5.5-2.2zM495.808 292.9l-2-.5 2 .5z" fill="#B4C99A"/><path d="M507.407 300.6c-.3 0-.7 0-1-.1l-.3-.1.4-2 .3.1c.8.2 1.5 0 2.2-.4 5.4-3.3 10.9-6.6 16.4-10l8.5-5.2c3-1.8 4.3-5.2 3.3-8.9-.9-3.5-4.1-6.3-8-6.8l-2.5-.4.3-2 2.5.4c4.7.7 8.5 4 9.6 8.3 1.2 4.5-.5 8.9-4.2 11.1l-8.5 5.2c-5.5 3.3-10.9 6.6-16.4 10-.8.6-1.7.8-2.6.8zM495.207 294.4l-.7-2c-.4-1-.4-2.1-.1-3.1l8.4-29.3c.7-2.5 2.3-4.5 4.5-5.7 2.6-1.4 6-1.7 9.2-.8 3.3 1 5.9 4 6.5 7.6l.1.8-2 .3-.1-.8c-.5-2.9-2.5-5.3-5.1-6-2.7-.8-5.5-.6-7.6.6-1.8 1-3 2.5-3.6 4.5l-8.4 29.3c-.2.6-.2 1.3.1 1.9l.7 2-1.9.7z" fill="#B4C99A"/><path d="M495.207 290.5l-2-.1c-1.3-.1-2.5-.8-3.3-1.8-.8-1.1-1-2.4-.6-3.7l7.8-26.9c1.3-4.6 4.7-8.3 9.2-10 4.5-1.7 9.4-1.2 13.5 1.3 3.3 2.1 4.4 6.5 2.3 9.9l-1.7-1.1c1.5-2.4.8-5.6-1.6-7.2-3.5-2.2-7.8-2.7-11.7-1.2-3.9 1.5-6.8 4.6-8 8.7l-7.8 26.9c-.2.7-.1 1.4.3 2 .4.6 1.1 1 1.8 1l2 .1-.2 2.1zM514.907 303.6c-2 0-4-.7-5.6-2.1l-1.4-1.3 1.3-1.5 1.4 1.3c2.2 2 5.6 2.2 8 .4l21.7-15.8c4.4-3.2 5.5-9.4 2.5-14l-1.1-1.7c-1.8-2.8-5.6-3.7-8.5-2.1l-1.4.8-1-1.7 1.4-.8c3.8-2.1 8.7-.9 11.1 2.7l1.1 1.7c3.6 5.5 2.3 12.8-3 16.7l-21.7 15.8c-1.4 1.1-3.1 1.6-4.8 1.6zM534.407 252c3.6-1.3 7.6-2.7 11.1-.8 1.7.9 4.1 3 3.9 5.5-.1 1.5-1.2 3.4-2.9 3.6-1 .1-2.3-.4-2.8-1.3-.6-1.1.2-2.1-.3-2.8-.7-.8-2.7-.6-4.2 0-4.1 1.7-3.6 5.8-6.7 7-3.2 1.3-8.4-1.3-8.6-3.8-.3-3.5 8.4-6.6 10.5-7.4zM365.707 373.1h-.4c-1.2-.1-2.3-.7-3-1.7l-11.3-15.8 1.6-1.2 11.3 15.8c.4.5 1 .8 1.6.9.6.1 1.3-.2 1.7-.6l8.9-8.5c.5-.4.7-1 .7-1.6 0-.6-.3-1.2-.7-1.6l-12.7-12.1 1.4-1.5 12.8 12.1c.8.8 1.3 1.9 1.4 3.1 0 1.2-.5 2.3-1.3 3.1l-8.9 8.5c-1 .7-2 1.1-3.1 1.1z" fill="#B4C99A"/><path d="M349.807 369.4h-.3c-3.1-.1-5.9-1.4-8-3.6-6.5-6.9-6.2-17.7.7-24.2l7.6-7.2c6.9-6.5 17.7-6.2 24.2.7 2.1 2.2 3.2 5.2 3.2 8.2 0 3-1.4 5.9-3.6 8.1l-2 1.9-1.4-1.5 2-1.9c1.8-1.7 2.9-4.1 3-6.7.1-2.6-.9-5-2.6-6.8-5.7-6.1-15.3-6.3-21.4-.6l-7.6 7.2c-6.1 5.7-6.3 15.3-.6 21.4 1.7 1.8 4.1 2.9 6.7 3 2.6.1 5-.9 6.8-2.6l1.3-1.3 1.4 1.5-1.3 1.3c-2.3 2-5.1 3.1-8.1 3.1z" fill="#B4C99A"/><path d="M350.107 361.2c1.602 0 2.9-1.97 2.9-4.4 0-2.43-1.298-4.4-2.9-4.4-1.602 0-2.9 1.97-2.9 4.4 0 2.43 1.298 4.4 2.9 4.4zM371.302 346.066c.25-1.582-1.493-3.172-3.894-3.551-2.4-.379-4.548.595-4.798 2.177s1.493 3.172 3.893 3.551c2.4.38 4.549-.595 4.799-2.177zM554.407 213.6c-.6 0-1.1-.1-1.6-.3l-11.4-4.9c-1.1-.5-2-1.4-2.4-2.6-.4-1.2-.3-2.4.4-3.5l9.9-16.7 1.7 1-9.9 16.7c-.3.5-.4 1.2-.2 1.8.2.6.7 1.1 1.2 1.3l11.3 4.8c.6.2 1.2.2 1.8 0 .6-.3 1-.7 1.2-1.3l5.9-16.6 1.9.7-5.9 16.6c-.4 1.1-1.2 2-2.3 2.5-.4.3-1 .5-1.6.5z" fill="#B4C99A"/><path d="M566.707 205.5c-1.5 0-3-.3-4.5-.9l-2.6-1.1.8-1.8 2.6 1.1c2.3 1 4.9 1 7.3 0 2.4-1 4.2-2.8 5.2-5.1v-.1c3.2-7.7-.4-16.5-8.1-19.8l-9.6-4c-7.7-3.2-16.6.4-19.8 8.1-1 2.3-1 4.9 0 7.3 1 2.4 2.8 4.2 5.1 5.2l1.7.7-.8 1.8-1.7-.7c-2.8-1.2-5-3.4-6.2-6.3-1.2-2.9-1.1-6 .1-8.8 3.7-8.7 13.7-12.8 22.4-9.1l9.6 4c8.7 3.7 12.8 13.7 9.1 22.4v.1c-1.2 2.8-3.4 5-6.2 6.1-1.4.6-2.9.9-4.4.9z" fill="#B4C99A"/><path d="M549.079 188.007c2.224-.979 3.504-2.961 2.858-4.427-.645-1.466-2.971-1.86-5.195-.881-2.224.98-3.504 2.962-2.858 4.427.645 1.466 2.971 1.861 5.195.881zM566.21 200.466c1.549-.408 2.301-2.644 1.682-4.994-.62-2.35-2.378-3.923-3.927-3.515-1.548.409-2.301 2.645-1.681 4.995.619 2.349 2.377 3.923 3.926 3.514z" fill="#B4C99A"/></svg>